<svg xmlns="http://www.w3.org/2000/svg" xmlns:xlink="http://www.w3.org/1999/xlink" width="2000" zoomAndPan="magnify" viewBox="0 0 1500 1499.999933" height="2000" preserveAspectRatio="xMidYMid meet" version="1.0"><defs><clipPath id="b3e43f4a3c"><path d="M 275 390.898438 L 1225 390.898438 L 1225 1109 L 275 1109 Z M 275 390.898438 " clip-rule="nonzero"/></clipPath></defs><path stroke-linecap="round" transform="matrix(0.75, 0, 0, 0.75, 397.857157, 1089.176262)" fill="none" stroke-linejoin="miter" d="M 30.497751 30.499361 L 289.497773 30.499361 " stroke="#ffffff" stroke-width="61" stroke-opacity="1" stroke-miterlimit="4"/><g clip-path="url(#b3e43f4a3c)"><path fill="#33f6bd" d="M 1152.855469 390.820312 L 347.136719 390.820312 C 307.433594 390.820312 275.140625 423.132812 275.140625 462.835938 L 275.140625 1036.976562 C 275.140625 1076.679688 307.433594 1108.972656 347.136719 1108.972656 L 1152.835938 1108.972656 C 1192.539062 1108.972656 1224.832031 1076.679688 1224.832031 1036.976562 L 1224.832031 462.835938 C 1224.851562 423.132812 1192.558594 390.820312 1152.855469 390.820312 Z M 1201.207031 1036.976562 C 1201.207031 1063.636719 1179.515625 1085.328125 1152.855469 1085.328125 L 347.136719 1085.328125 C 320.476562 1085.328125 298.785156 1063.636719 298.785156 1036.976562 L 298.785156 462.835938 C 298.785156 436.175781 320.476562 414.480469 347.136719 414.480469 L 1152.835938 414.480469 C 1179.496094 414.480469 1201.1875 436.175781 1201.1875 462.835938 L 1201.1875 1036.976562 Z M 442.914062 923.347656 L 377.894531 923.347656 C 371.371094 923.347656 366.070312 928.648438 366.070312 935.167969 L 366.070312 1025.234375 C 366.070312 1031.757812 371.371094 1037.054688 377.894531 1037.054688 L 442.914062 1037.054688 C 449.4375 1037.054688 454.738281 1031.757812 454.738281 1025.234375 L 454.738281 935.167969 C 454.738281 928.628906 449.4375 923.347656 442.914062 923.347656 Z M 431.09375 1013.410156 L 389.714844 1013.410156 L 389.714844 946.992188 L 431.09375 946.992188 Z M 560.46875 845.417969 L 495.445312 845.417969 C 488.921875 845.417969 483.625 850.71875 483.625 857.242188 L 483.625 1025.214844 C 483.625 1031.734375 488.921875 1037.035156 495.445312 1037.035156 L 560.46875 1037.035156 C 566.988281 1037.035156 572.289062 1031.734375 572.289062 1025.214844 L 572.289062 857.242188 C 572.289062 850.71875 567.007812 845.417969 560.46875 845.417969 Z M 548.644531 1013.410156 L 507.269531 1013.410156 L 507.269531 869.082031 L 548.644531 869.082031 Z M 678.039062 891.269531 L 613.015625 891.269531 C 606.496094 891.269531 601.195312 896.570312 601.195312 903.089844 L 601.195312 1025.214844 C 601.195312 1031.734375 606.496094 1037.035156 613.015625 1037.035156 L 678.039062 1037.035156 C 684.5625 1037.035156 689.859375 1031.734375 689.859375 1025.214844 L 689.859375 903.089844 C 689.859375 896.570312 684.5625 891.269531 678.039062 891.269531 Z M 666.214844 1013.410156 L 624.839844 1013.410156 L 624.839844 914.933594 L 666.214844 914.933594 Z M 795.609375 749.5625 L 730.589844 749.5625 C 724.066406 749.5625 718.765625 754.863281 718.765625 761.382812 L 718.765625 1025.234375 C 718.765625 1031.757812 724.066406 1037.054688 730.589844 1037.054688 L 795.609375 1037.054688 C 802.132812 1037.054688 807.433594 1031.757812 807.433594 1025.234375 L 807.433594 761.382812 C 807.433594 754.84375 802.132812 749.5625 795.609375 749.5625 Z M 783.789062 1013.410156 L 742.410156 1013.410156 L 742.410156 773.207031 L 783.789062 773.207031 Z M 482.855469 503.148438 C 482.855469 496.625 488.15625 491.328125 494.675781 491.328125 L 735.574219 491.328125 C 742.09375 491.328125 747.394531 496.625 747.394531 503.148438 C 747.394531 509.671875 742.09375 514.96875 735.574219 514.96875 L 494.675781 514.96875 C 488.15625 514.96875 482.855469 509.671875 482.855469 503.148438 Z M 482.855469 564.664062 C 482.855469 558.140625 488.15625 552.839844 494.675781 552.839844 L 667.773438 552.839844 C 674.296875 552.839844 679.59375 558.140625 679.59375 564.664062 C 679.59375 571.183594 674.296875 576.484375 667.773438 576.484375 L 494.675781 576.484375 C 488.15625 576.484375 482.855469 571.203125 482.855469 564.664062 Z M 406.089844 580.523438 C 431.804688 580.523438 452.707031 559.617188 452.707031 533.90625 C 452.707031 508.191406 431.804688 487.285156 406.089844 487.285156 C 380.375 487.285156 359.472656 508.191406 359.472656 533.90625 C 359.472656 559.617188 380.375 580.523438 406.089844 580.523438 Z M 406.089844 510.929688 C 418.757812 510.929688 429.0625 521.238281 429.0625 533.90625 C 429.0625 546.574219 418.757812 556.878906 406.089844 556.878906 C 393.421875 556.878906 383.117188 546.574219 383.117188 533.90625 C 383.117188 521.238281 393.421875 510.929688 406.089844 510.929688 Z M 482.855469 623.476562 C 482.855469 616.957031 488.15625 611.65625 494.675781 611.65625 L 735.574219 611.65625 C 742.09375 611.65625 747.394531 616.957031 747.394531 623.476562 C 747.394531 630 742.09375 635.300781 735.574219 635.300781 L 494.675781 635.300781 C 488.15625 635.300781 482.855469 630.019531 482.855469 623.476562 Z M 482.855469 685.011719 C 482.855469 678.492188 488.15625 673.191406 494.675781 673.191406 L 667.773438 673.191406 C 674.296875 673.191406 679.59375 678.492188 679.59375 685.011719 C 679.59375 691.535156 674.296875 696.835938 667.773438 696.835938 L 494.675781 696.835938 C 488.15625 696.835938 482.855469 691.535156 482.855469 685.011719 Z M 406.089844 700.875 C 431.804688 700.875 452.707031 679.96875 452.707031 654.253906 C 452.707031 628.542969 431.804688 607.636719 406.089844 607.636719 C 380.375 607.636719 359.472656 628.542969 359.472656 654.253906 C 359.472656 679.96875 380.375 700.875 406.089844 700.875 Z M 406.089844 631.28125 C 418.757812 631.28125 429.0625 641.585938 429.0625 654.253906 C 429.0625 666.925781 418.757812 677.230469 406.089844 677.230469 C 393.421875 677.230469 383.117188 666.925781 383.117188 654.253906 C 383.117188 641.585938 393.421875 631.28125 406.089844 631.28125 Z M 970.792969 767.53125 C 1045.609375 767.53125 1106.453125 706.667969 1106.453125 631.8125 C 1106.453125 625.289062 1101.152344 620.011719 1094.632812 620.011719 C 1094.394531 620.011719 1094.160156 620.011719 1093.921875 620.03125 L 982.617188 620.03125 L 982.617188 509.019531 C 982.636719 508.683594 982.65625 508.351562 982.65625 507.996094 C 982.65625 501.472656 977.355469 496.171875 970.832031 496.171875 L 970.792969 496.171875 C 895.980469 496.171875 835.136719 557.039062 835.136719 631.832031 C 835.136719 706.667969 895.980469 767.53125 970.792969 767.53125 Z M 958.972656 520.46875 L 958.972656 631.871094 C 958.972656 638.394531 964.273438 643.695312 970.792969 643.695312 L 1082.199219 643.695312 C 1076.269531 699.929688 1028.566406 743.886719 970.792969 743.886719 C 909.023438 743.886719 858.78125 693.644531 858.78125 631.871094 C 858.78125 574.082031 902.738281 526.378906 958.972656 520.46875 Z M 1016.191406 450.835938 C 1016.191406 450.835938 1016.152344 450.835938 1016.152344 450.835938 C 1009.628906 450.835938 1004.328125 456.136719 1004.328125 462.65625 L 1004.328125 586.496094 C 1004.328125 593.015625 1009.628906 598.316406 1016.152344 598.316406 L 1139.988281 598.316406 C 1143.121094 598.316406 1146.136719 597.054688 1148.34375 594.828125 C 1150.570312 592.601562 1151.8125 589.589844 1151.8125 586.457031 C 1151.792969 511.699219 1090.945312 450.875 1016.191406 450.835938 Z M 1027.972656 574.691406 L 1027.972656 475.109375 C 1080.308594 480.628906 1122.019531 522.339844 1127.554688 574.691406 Z M 1139.398438 806.5625 C 1139.398438 813.085938 1134.097656 818.386719 1127.574219 818.386719 L 883.210938 818.386719 C 876.691406 818.386719 871.390625 813.085938 871.390625 806.5625 C 871.390625 800.042969 876.691406 794.742188 883.210938 794.742188 L 1127.574219 794.742188 C 1134.097656 794.742188 1139.398438 800.042969 1139.398438 806.5625 Z M 1139.398438 872.628906 C 1139.398438 879.152344 1134.097656 884.453125 1127.574219 884.453125 L 883.210938 884.453125 C 876.691406 884.453125 871.390625 879.152344 871.390625 872.628906 C 871.390625 866.109375 876.691406 860.808594 883.210938 860.808594 L 1127.574219 860.808594 C 1134.097656 860.808594 1139.398438 866.089844 1139.398438 872.628906 Z M 1139.398438 938.675781 C 1139.398438 945.199219 1134.097656 950.5 1127.574219 950.5 L 883.210938 950.5 C 876.691406 950.5 871.390625 945.199219 871.390625 938.675781 C 871.390625 932.15625 876.691406 926.855469 883.210938 926.855469 L 1127.574219 926.855469 C 1134.097656 926.855469 1139.398438 932.15625 1139.398438 938.675781 Z M 1139.398438 1004.742188 C 1139.398438 1011.265625 1134.097656 1016.566406 1127.574219 1016.566406 L 883.210938 1016.566406 C 876.691406 1016.566406 871.390625 1011.265625 871.390625 1004.742188 C 871.390625 998.21875 876.691406 992.921875 883.210938 992.921875 L 1127.574219 992.921875 C 1134.097656 992.921875 1139.398438 998.199219 1139.398438 1004.742188 Z M 1139.398438 1004.742188 " fill-opacity="1" fill-rule="nonzero"/></g><path stroke-linecap="round" transform="matrix(0.75, 0, 0, 0.75, 686.339206, 1057.301265)" fill="none" stroke-linejoin="miter" d="M 36.500853 36.499358 L 603.500902 36.499358 " stroke="#ffffff" stroke-width="73" stroke-opacity="1" stroke-miterlimit="4"/></svg>