<svg xmlns="http://www.w3.org/2000/svg" xmlns:xlink="http://www.w3.org/1999/xlink" width="2000" zoomAndPan="magnify" viewBox="0 0 1500 1499.999933" height="2000" preserveAspectRatio="xMidYMid meet" version="1.0"><defs><clipPath id="a5ce50bdc5"><path d="M 349.964844 334.238281 L 1223.714844 334.238281 L 1223.714844 1131 L 349.964844 1131 Z M 349.964844 334.238281 " clip-rule="nonzero"/></clipPath></defs><g clip-path="url(#a5ce50bdc5)"><path fill="#33f6bd" d="M 456.425781 415.492188 L 456.421875 415.121094 L 456.425781 414.746094 L 456.425781 375.757812 C 456.425781 372.382812 455.070312 369.34375 452.894531 367.167969 L 452.839844 367.167969 C 450.632812 364.964844 447.585938 363.585938 444.253906 363.585938 C 440.914062 363.585938 437.871094 364.964844 435.664062 367.167969 C 433.457031 369.375 432.082031 372.417969 432.082031 375.757812 L 432.082031 454.492188 C 432.082031 457.824219 433.457031 460.871094 435.664062 463.074219 C 437.871094 465.285156 440.914062 466.65625 444.25 466.65625 C 447.585938 466.65625 450.632812 465.285156 452.839844 463.074219 L 453.371094 462.570312 C 455.265625 460.445312 456.425781 457.605469 456.425781 454.492188 Z M 901.039062 466.65625 C 904.398438 466.65625 907.449219 465.296875 909.652344 463.105469 L 909.625 463.074219 C 911.835938 460.871094 913.207031 457.824219 913.207031 454.492188 L 913.207031 415.492188 L 913.203125 415.121094 L 913.207031 414.746094 L 913.207031 375.757812 C 913.207031 372.417969 911.835938 369.375 909.625 367.167969 L 909.148438 366.664062 C 906.996094 364.753906 904.148438 363.585938 901.039062 363.585938 C 897.679688 363.585938 894.625 364.949219 892.421875 367.140625 L 892.449219 367.167969 C 890.242188 369.375 888.867188 372.417969 888.867188 375.757812 L 888.867188 454.492188 C 888.867188 457.824219 890.242188 460.871094 892.449219 463.074219 L 892.925781 463.578125 C 895.082031 465.496094 897.925781 466.65625 901.039062 466.65625 Z M 901.039062 495.625 C 912.324219 495.625 922.59375 491.003906 930.050781 483.554688 L 930.105469 483.554688 C 937.550781 476.109375 942.175781 465.816406 942.175781 454.492188 L 942.175781 429.601562 L 974.09375 429.601562 L 974.09375 454.492188 C 974.09375 465.816406 978.722656 476.109375 986.164062 483.554688 C 993.613281 491.003906 1003.90625 495.625 1015.234375 495.625 C 1026.558594 495.625 1036.851562 491.003906 1044.296875 483.554688 C 1051.746094 476.109375 1056.367188 465.816406 1056.367188 454.492188 L 1056.367188 429.601562 L 1088.292969 429.601562 L 1088.292969 454.492188 C 1088.292969 465.816406 1092.917969 476.109375 1100.363281 483.554688 C 1107.8125 491.003906 1118.105469 495.625 1129.429688 495.625 C 1140.753906 495.625 1151.046875 491.003906 1158.496094 483.554688 C 1165.941406 476.109375 1170.566406 465.816406 1170.566406 454.492188 L 1170.566406 437.652344 C 1175.511719 440.539062 1179.886719 444.113281 1183.527344 448.210938 C 1190.53125 456.09375 1194.730469 465.96875 1194.730469 476.59375 L 1194.730469 549.335938 L 378.949219 549.335938 L 378.949219 476.59375 C 378.949219 465.96875 383.144531 456.089844 390.148438 448.207031 C 393.789062 444.109375 398.171875 440.535156 403.113281 437.640625 L 403.113281 454.492188 C 403.113281 465.816406 407.742188 476.109375 415.1875 483.554688 C 422.632812 491.003906 432.925781 495.625 444.253906 495.625 C 455.574219 495.625 465.871094 491.003906 473.316406 483.554688 L 474.207031 482.574219 C 481.136719 475.183594 485.394531 465.296875 485.394531 454.492188 L 485.394531 429.601562 L 517.3125 429.601562 L 517.3125 454.492188 C 517.3125 465.816406 521.9375 476.109375 529.382812 483.554688 C 536.832031 491.003906 547.125 495.625 558.449219 495.625 C 569.773438 495.625 580.066406 491.003906 587.511719 483.554688 C 594.960938 476.109375 599.585938 465.816406 599.585938 454.492188 L 599.585938 429.601562 L 631.507812 429.601562 L 631.507812 454.492188 C 631.507812 465.816406 636.132812 476.109375 643.578125 483.554688 C 651.027344 491.003906 661.320312 495.625 672.644531 495.625 C 683.96875 495.625 694.261719 491.003906 701.710938 483.554688 C 709.15625 476.109375 713.78125 465.816406 713.78125 454.492188 L 713.78125 429.601562 L 745.707031 429.601562 L 745.707031 454.492188 C 745.707031 465.816406 750.332031 476.109375 757.777344 483.554688 C 765.222656 491.003906 775.519531 495.625 786.84375 495.625 C 798.167969 495.625 808.457031 491.003906 815.90625 483.554688 C 823.351562 476.109375 827.980469 465.816406 827.980469 454.492188 L 827.980469 429.601562 L 859.898438 429.601562 L 859.898438 454.492188 C 859.898438 465.816406 864.523438 476.109375 871.96875 483.554688 L 872.933594 484.433594 C 880.304688 491.363281 890.203125 495.625 901.039062 495.625 Z M 859.898438 400.636719 L 859.898438 375.757812 C 859.898438 364.429688 864.523438 354.140625 871.96875 346.691406 L 872.023438 346.691406 C 879.480469 339.246094 889.75 334.621094 901.039062 334.621094 C 911.875 334.621094 921.769531 338.882812 929.140625 345.8125 L 930.105469 346.691406 C 937.550781 354.140625 942.175781 364.429688 942.175781 375.757812 L 942.175781 400.636719 L 974.09375 400.636719 L 974.09375 375.757812 C 974.09375 364.429688 978.722656 354.140625 986.164062 346.691406 C 993.613281 339.246094 1003.90625 334.621094 1015.230469 334.621094 C 1026.558594 334.621094 1036.851562 339.246094 1044.296875 346.691406 C 1051.746094 354.140625 1056.367188 364.429688 1056.367188 375.757812 L 1056.367188 400.636719 L 1088.292969 400.636719 L 1088.292969 375.757812 C 1088.292969 364.429688 1092.917969 354.140625 1100.363281 346.691406 C 1107.8125 339.246094 1118.105469 334.621094 1129.429688 334.621094 C 1140.753906 334.621094 1151.046875 339.246094 1158.496094 346.691406 C 1165.941406 354.140625 1170.566406 364.429688 1170.566406 375.757812 L 1170.566406 405.902344 C 1184.199219 410.777344 1196.105469 418.808594 1205.140625 428.980469 C 1216.746094 442.039062 1223.699219 458.59375 1223.699219 476.59375 L 1223.699219 1054.832031 C 1223.699219 1076.054688 1214.058594 1095.246094 1198.539062 1109.050781 C 1183.46875 1122.464844 1162.785156 1130.789062 1140.132812 1130.789062 L 433.542969 1130.789062 C 410.894531 1130.789062 390.207031 1122.460938 375.144531 1109.050781 C 359.621094 1095.246094 349.980469 1076.054688 349.980469 1054.832031 L 349.980469 476.59375 C 349.980469 458.589844 356.929688 442.039062 368.539062 428.972656 C 377.574219 418.800781 389.480469 410.765625 403.113281 405.894531 L 403.113281 375.757812 C 403.113281 364.429688 407.742188 354.140625 415.1875 346.691406 C 422.632812 339.246094 432.925781 334.621094 444.25 334.621094 C 455.574219 334.621094 465.871094 339.246094 473.316406 346.691406 L 473.289062 346.722656 C 480.757812 354.195312 485.394531 364.480469 485.394531 375.757812 L 485.394531 400.636719 L 517.3125 400.636719 L 517.3125 375.757812 C 517.3125 364.429688 521.9375 354.140625 529.382812 346.691406 C 536.832031 339.246094 547.125 334.621094 558.449219 334.621094 C 569.773438 334.621094 580.066406 339.246094 587.511719 346.691406 C 594.960938 354.140625 599.585938 364.429688 599.585938 375.757812 L 599.585938 400.636719 L 631.507812 400.636719 L 631.507812 375.757812 C 631.507812 364.429688 636.132812 354.140625 643.578125 346.691406 C 651.027344 339.246094 661.320312 334.621094 672.644531 334.621094 C 683.96875 334.621094 694.261719 339.246094 701.710938 346.691406 C 709.15625 354.140625 713.78125 364.429688 713.78125 375.757812 L 713.78125 400.636719 L 745.707031 400.636719 L 745.707031 375.757812 C 745.707031 364.429688 750.332031 354.140625 757.777344 346.691406 C 765.222656 339.246094 775.519531 334.621094 786.839844 334.621094 C 798.167969 334.621094 808.457031 339.246094 815.90625 346.691406 C 823.351562 354.140625 827.980469 364.429688 827.980469 375.757812 L 827.980469 400.636719 Z M 1015.230469 466.65625 C 1018.570312 466.65625 1021.613281 465.285156 1023.820312 463.074219 C 1026.027344 460.871094 1027.402344 457.824219 1027.402344 454.492188 L 1027.402344 375.757812 C 1027.402344 372.417969 1026.027344 369.375 1023.820312 367.167969 C 1021.613281 364.964844 1018.570312 363.585938 1015.234375 363.585938 C 1011.894531 363.585938 1008.851562 364.964844 1006.644531 367.167969 C 1004.4375 369.375 1003.0625 372.417969 1003.0625 375.757812 L 1003.0625 454.492188 C 1003.0625 457.824219 1004.4375 460.871094 1006.644531 463.074219 C 1008.851562 465.285156 1011.894531 466.65625 1015.230469 466.65625 Z M 1129.429688 466.65625 C 1132.765625 466.65625 1135.808594 465.285156 1138.019531 463.074219 C 1140.222656 460.871094 1141.597656 457.824219 1141.597656 454.492188 L 1141.597656 375.757812 C 1141.597656 372.417969 1140.222656 369.375 1138.019531 367.167969 C 1135.808594 364.964844 1132.765625 363.585938 1129.429688 363.585938 C 1126.09375 363.585938 1123.046875 364.964844 1120.839844 367.167969 C 1118.636719 369.375 1117.261719 372.417969 1117.261719 375.757812 L 1117.261719 454.492188 C 1117.261719 457.824219 1118.636719 460.871094 1120.839844 463.074219 C 1123.046875 465.285156 1126.09375 466.65625 1129.429688 466.65625 Z M 558.449219 466.65625 C 561.785156 466.65625 564.828125 465.285156 567.035156 463.074219 C 569.242188 460.871094 570.617188 457.824219 570.617188 454.492188 L 570.617188 375.757812 C 570.617188 372.417969 569.242188 369.375 567.035156 367.167969 C 564.828125 364.964844 561.785156 363.585938 558.449219 363.585938 C 555.113281 363.585938 552.066406 364.964844 549.859375 367.167969 C 547.65625 369.375 546.28125 372.417969 546.28125 375.757812 L 546.28125 454.492188 C 546.28125 457.824219 547.65625 460.871094 549.859375 463.074219 C 552.066406 465.285156 555.113281 466.65625 558.449219 466.65625 Z M 672.644531 466.65625 C 675.980469 466.65625 679.027344 465.285156 681.234375 463.074219 C 683.4375 460.871094 684.8125 457.824219 684.8125 454.492188 L 684.8125 375.757812 C 684.8125 372.417969 683.4375 369.375 681.234375 367.167969 C 679.027344 364.964844 675.980469 363.585938 672.644531 363.585938 C 669.308594 363.585938 666.265625 364.964844 664.058594 367.167969 C 661.851562 369.375 660.476562 372.417969 660.476562 375.757812 L 660.476562 454.492188 C 660.476562 457.824219 661.851562 460.871094 664.058594 463.074219 C 666.265625 465.285156 669.308594 466.65625 672.644531 466.65625 Z M 546.769531 899.097656 L 454.578125 899.097656 L 454.578125 991.289062 L 546.769531 991.289062 Z M 440.09375 870.128906 C 432.097656 870.128906 425.609375 876.617188 425.609375 884.609375 L 425.609375 1005.769531 C 425.609375 1013.769531 432.097656 1020.257812 440.09375 1020.257812 L 561.25 1020.257812 C 569.25 1020.257812 575.734375 1013.769531 575.734375 1005.769531 L 575.734375 884.609375 C 575.734375 876.617188 569.25 870.128906 561.25 870.128906 Z M 737.546875 899.097656 L 645.355469 899.097656 L 645.355469 991.289062 L 737.546875 991.289062 Z M 630.875 870.128906 C 622.875 870.128906 616.386719 876.617188 616.386719 884.609375 L 616.386719 1005.769531 C 616.386719 1013.769531 622.875 1020.257812 630.875 1020.257812 L 752.03125 1020.257812 C 760.027344 1020.257812 766.511719 1013.769531 766.511719 1005.769531 L 766.511719 884.609375 C 766.511719 876.617188 760.027344 870.128906 752.03125 870.128906 Z M 928.324219 899.097656 L 836.136719 899.097656 L 836.136719 991.289062 L 928.324219 991.289062 Z M 821.648438 870.128906 C 813.652344 870.128906 807.167969 876.617188 807.167969 884.609375 L 807.167969 1005.769531 C 807.167969 1013.769531 813.652344 1020.257812 821.648438 1020.257812 L 942.808594 1020.257812 C 950.808594 1020.257812 957.292969 1013.769531 957.292969 1005.769531 L 957.292969 884.609375 C 957.292969 876.617188 950.808594 870.128906 942.808594 870.128906 Z M 546.769531 681.605469 L 454.578125 681.605469 L 454.578125 773.800781 L 546.769531 773.800781 Z M 440.09375 652.636719 C 432.097656 652.636719 425.609375 659.121094 425.609375 667.121094 L 425.609375 788.28125 C 425.609375 796.28125 432.097656 802.765625 440.09375 802.765625 L 561.25 802.765625 C 569.25 802.765625 575.734375 796.28125 575.734375 788.28125 L 575.734375 667.121094 C 575.734375 659.121094 569.25 652.636719 561.25 652.636719 Z M 737.546875 681.605469 L 645.355469 681.605469 L 645.355469 773.800781 L 737.546875 773.800781 Z M 630.875 652.636719 C 622.875 652.636719 616.386719 659.121094 616.386719 667.121094 L 616.386719 788.28125 C 616.386719 796.28125 622.875 802.765625 630.875 802.765625 L 752.03125 802.765625 C 760.027344 802.765625 766.511719 796.28125 766.511719 788.28125 L 766.511719 667.121094 C 766.511719 659.121094 760.027344 652.636719 752.03125 652.636719 Z M 928.324219 681.605469 L 836.136719 681.605469 L 836.136719 773.800781 L 928.324219 773.800781 Z M 821.648438 652.636719 C 813.652344 652.636719 807.167969 659.121094 807.167969 667.121094 L 807.167969 788.28125 C 807.167969 796.28125 813.652344 802.765625 821.648438 802.765625 L 942.808594 802.765625 C 950.808594 802.765625 957.292969 796.28125 957.292969 788.28125 L 957.292969 667.121094 C 957.292969 659.121094 950.808594 652.636719 942.808594 652.636719 Z M 1119.105469 681.605469 L 1026.914062 681.605469 L 1026.914062 773.800781 L 1119.105469 773.800781 Z M 1012.429688 652.636719 C 1004.429688 652.636719 997.945312 659.121094 997.945312 667.121094 L 997.945312 788.28125 C 997.945312 796.28125 1004.429688 802.765625 1012.429688 802.765625 L 1133.585938 802.765625 C 1141.582031 802.765625 1148.070312 796.28125 1148.070312 788.28125 L 1148.070312 667.121094 C 1148.070312 659.121094 1141.582031 652.636719 1133.585938 652.636719 Z M 786.839844 466.65625 C 790.179688 466.65625 793.222656 465.285156 795.429688 463.074219 C 797.636719 460.871094 799.011719 457.824219 799.011719 454.492188 L 799.011719 415.492188 L 799.007812 415.121094 L 799.011719 414.746094 L 799.011719 375.757812 C 799.011719 372.417969 797.636719 369.375 795.429688 367.167969 C 793.222656 364.964844 790.179688 363.585938 786.84375 363.585938 C 783.503906 363.585938 780.460938 364.964844 778.253906 367.167969 C 776.050781 369.375 774.671875 372.417969 774.671875 375.757812 L 774.671875 454.492188 C 774.671875 457.824219 776.050781 460.871094 778.253906 463.074219 C 780.460938 465.285156 783.503906 466.65625 786.839844 466.65625 Z M 998.582031 1101.820312 L 998.582031 920.152344 C 998.582031 912.15625 1005.066406 905.671875 1013.0625 905.671875 L 1194.730469 905.671875 L 1194.730469 578.300781 L 378.949219 578.300781 L 378.949219 1054.832031 C 378.949219 1067.414062 384.863281 1078.972656 394.375 1087.441406 C 404.34375 1096.3125 418.203125 1101.820312 433.542969 1101.820312 Z M 1194.730469 955.117188 L 1048.027344 1101.820312 L 1140.132812 1101.820312 C 1155.472656 1101.820312 1169.335938 1096.3125 1179.308594 1087.441406 C 1188.820312 1078.972656 1194.730469 1067.414062 1194.730469 1054.832031 Z M 1027.550781 1081.34375 L 1174.253906 934.640625 L 1027.550781 934.640625 Z M 1027.550781 1081.34375 " fill-opacity="1" fill-rule="evenodd"/></g><path stroke-linecap="round" transform="matrix(0.75, 0, 0, 0.75, 397.857157, 1089.176262)" fill="none" stroke-linejoin="miter" d="M 30.497751 30.499361 L 289.497773 30.499361 " stroke="#ffffff" stroke-width="61" stroke-opacity="1" stroke-miterlimit="4"/></svg>