<svg xmlns="http://www.w3.org/2000/svg" xmlns:xlink="http://www.w3.org/1999/xlink" width="2000" zoomAndPan="magnify" viewBox="0 0 1500 1499.999933" height="2000" preserveAspectRatio="xMidYMid meet" version="1.0"><defs><clipPath id="795a6edd95"><path d="M 451.667969 369.351562 L 1048.667969 369.351562 L 1048.667969 1130.601562 L 451.667969 1130.601562 Z M 451.667969 369.351562 " clip-rule="nonzero"/></clipPath></defs><g clip-path="url(#795a6edd95)"><path fill="#33f6bd" d="M 508.542969 392.480469 C 489.871094 392.480469 474.621094 407.726562 474.621094 426.398438 L 474.621094 1073.59375 C 474.621094 1092.265625 489.871094 1107.511719 508.542969 1107.511719 L 991.453125 1107.511719 C 1010.125 1107.511719 1025.371094 1092.4375 1025.371094 1073.765625 L 1025.371094 426.398438 C 1025.371094 407.726562 1010.125 392.480469 991.453125 392.480469 Z M 991.453125 1130.46875 L 508.542969 1130.46875 C 477.191406 1130.46875 451.667969 1104.941406 451.667969 1073.59375 L 451.667969 426.398438 C 451.667969 395.046875 477.191406 369.523438 508.542969 369.523438 L 991.453125 369.523438 C 1022.804688 369.523438 1048.328125 395.046875 1048.328125 426.398438 L 1048.328125 1073.765625 C 1048.328125 1104.941406 1022.804688 1130.46875 991.453125 1130.46875 Z M 991.453125 1130.46875 " fill-opacity="1" fill-rule="evenodd"/></g><path fill="#33f6bd" d="M 533.894531 631.964844 L 967.472656 631.964844 L 967.472656 450.039062 L 533.894531 450.039062 Z M 979.121094 655.089844 L 522.417969 655.089844 C 516.078125 655.089844 510.941406 649.953125 510.941406 643.613281 L 510.941406 438.730469 C 510.941406 432.394531 516.078125 427.253906 522.417969 427.253906 L 978.949219 427.253906 C 985.289062 427.253906 990.425781 432.394531 990.425781 438.730469 L 990.425781 643.613281 C 990.597656 649.953125 985.457031 655.089844 979.121094 655.089844 Z M 979.121094 655.089844 " fill-opacity="1" fill-rule="evenodd"/><path fill="#33f6bd" d="M 530.8125 776.546875 L 579.976562 776.546875 L 579.976562 726.527344 L 530.8125 726.527344 Z M 591.453125 799.675781 L 519.164062 799.675781 C 512.824219 799.675781 507.683594 794.535156 507.683594 788.195312 L 507.683594 715.050781 C 507.683594 708.710938 512.824219 703.570312 519.164062 703.570312 L 591.453125 703.570312 C 597.792969 703.570312 602.929688 708.710938 602.929688 715.050781 L 602.929688 788.195312 C 602.929688 794.535156 597.792969 799.675781 591.453125 799.675781 Z M 591.453125 799.675781 " fill-opacity="1" fill-rule="evenodd"/><path fill="#33f6bd" d="M 530.8125 909.824219 L 579.976562 909.824219 L 579.976562 859.804688 L 530.8125 859.804688 Z M 591.453125 932.949219 L 519.164062 932.949219 C 512.824219 932.949219 507.683594 927.8125 507.683594 921.472656 L 507.683594 848.324219 C 507.683594 841.988281 512.824219 836.847656 519.164062 836.847656 L 591.453125 836.847656 C 597.792969 836.847656 602.929688 841.988281 602.929688 848.324219 L 602.929688 921.472656 C 602.929688 927.8125 597.792969 932.949219 591.453125 932.949219 Z M 591.453125 932.949219 " fill-opacity="1" fill-rule="evenodd"/><path fill="#33f6bd" d="M 530.8125 1041.730469 L 579.976562 1041.730469 L 579.976562 991.707031 L 530.8125 991.707031 Z M 591.453125 1064.855469 L 519.164062 1064.855469 C 512.824219 1064.855469 507.683594 1059.71875 507.683594 1053.378906 L 507.683594 980.230469 C 507.683594 973.894531 512.824219 968.753906 519.164062 968.753906 L 591.453125 968.753906 C 597.792969 968.753906 602.929688 973.894531 602.929688 980.230469 L 602.929688 1053.378906 C 602.929688 1059.71875 597.792969 1064.855469 591.453125 1064.855469 Z M 591.453125 1064.855469 " fill-opacity="1" fill-rule="evenodd"/><path fill="#33f6bd" d="M 661.175781 776.546875 L 710.167969 776.546875 L 710.167969 726.527344 L 661.003906 726.527344 L 661.003906 776.546875 Z M 721.816406 799.675781 L 649.699219 799.675781 C 643.359375 799.675781 638.21875 794.535156 638.21875 788.195312 L 638.21875 715.050781 C 638.21875 708.710938 643.359375 703.570312 649.699219 703.570312 L 721.816406 703.570312 C 728.15625 703.570312 733.296875 708.710938 733.296875 715.050781 L 733.296875 788.195312 C 733.296875 794.535156 728.15625 799.675781 721.816406 799.675781 Z M 721.816406 799.675781 " fill-opacity="1" fill-rule="evenodd"/><path fill="#33f6bd" d="M 661.175781 909.824219 L 710.167969 909.824219 L 710.167969 859.804688 L 661.003906 859.804688 L 661.003906 909.824219 Z M 721.816406 932.949219 L 649.699219 932.949219 C 643.359375 932.949219 638.21875 927.8125 638.21875 921.472656 L 638.21875 848.324219 C 638.21875 841.988281 643.359375 836.847656 649.699219 836.847656 L 721.816406 836.847656 C 728.15625 836.847656 733.296875 841.988281 733.296875 848.324219 L 733.296875 921.472656 C 733.296875 927.8125 728.15625 932.949219 721.816406 932.949219 Z M 721.816406 932.949219 " fill-opacity="1" fill-rule="evenodd"/><path fill="#33f6bd" d="M 661.175781 1041.730469 L 710.167969 1041.730469 L 710.167969 991.707031 L 661.003906 991.707031 L 661.003906 1041.730469 Z M 721.816406 1064.855469 L 649.699219 1064.855469 C 643.359375 1064.855469 638.21875 1059.71875 638.21875 1053.378906 L 638.21875 980.230469 C 638.21875 973.894531 643.359375 968.753906 649.699219 968.753906 L 721.816406 968.753906 C 728.15625 968.753906 733.296875 973.894531 733.296875 980.230469 L 733.296875 1053.378906 C 733.296875 1059.71875 728.15625 1064.855469 721.816406 1064.855469 Z M 721.816406 1064.855469 " fill-opacity="1" fill-rule="evenodd"/><path fill="#33f6bd" d="M 792.910156 776.546875 L 842.074219 776.546875 L 842.074219 726.527344 L 792.910156 726.527344 Z M 853.722656 799.675781 L 781.433594 799.675781 C 775.09375 799.675781 769.957031 794.535156 769.957031 788.195312 L 769.957031 715.050781 C 769.957031 708.710938 775.09375 703.570312 781.433594 703.570312 L 853.722656 703.570312 C 860.0625 703.570312 865.203125 708.710938 865.203125 715.050781 L 865.203125 788.195312 C 865.203125 794.535156 860.0625 799.675781 853.722656 799.675781 Z M 853.722656 799.675781 " fill-opacity="1" fill-rule="evenodd"/><path fill="#33f6bd" d="M 921.734375 776.546875 L 970.898438 776.546875 L 970.898438 726.527344 L 921.734375 726.527344 Z M 982.375 799.675781 L 910.082031 799.675781 C 903.746094 799.675781 898.605469 794.535156 898.605469 788.195312 L 898.605469 715.050781 C 898.605469 708.710938 903.746094 703.570312 910.082031 703.570312 L 982.375 703.570312 C 988.714844 703.570312 993.851562 708.710938 993.851562 715.050781 L 993.851562 788.195312 C 993.851562 794.535156 988.714844 799.675781 982.375 799.675781 Z M 982.375 799.675781 " fill-opacity="1" fill-rule="evenodd"/><path fill="#33f6bd" d="M 792.910156 909.824219 L 842.074219 909.824219 L 842.074219 859.804688 L 792.910156 859.804688 Z M 853.722656 932.949219 L 781.433594 932.949219 C 775.09375 932.949219 769.957031 927.8125 769.957031 921.472656 L 769.957031 848.324219 C 769.957031 841.988281 775.09375 836.847656 781.433594 836.847656 L 853.722656 836.847656 C 860.0625 836.847656 865.203125 841.988281 865.203125 848.324219 L 865.203125 921.472656 C 865.203125 927.8125 860.0625 932.949219 853.722656 932.949219 Z M 853.722656 932.949219 " fill-opacity="1" fill-rule="evenodd"/><path fill="#33f6bd" d="M 792.910156 1041.730469 L 842.074219 1041.730469 L 842.074219 991.707031 L 792.910156 991.707031 Z M 853.722656 1064.855469 L 781.433594 1064.855469 C 775.09375 1064.855469 769.957031 1059.71875 769.957031 1053.378906 L 769.957031 980.230469 C 769.957031 973.894531 775.09375 968.753906 781.433594 968.753906 L 853.722656 968.753906 C 860.0625 968.753906 865.203125 973.894531 865.203125 980.230469 L 865.203125 1053.378906 C 865.203125 1059.71875 860.0625 1064.855469 853.722656 1064.855469 Z M 853.722656 1064.855469 " fill-opacity="1" fill-rule="evenodd"/><path fill="#33f6bd" d="M 921.734375 1041.730469 L 966.101562 1041.730469 L 966.101562 856.71875 L 921.734375 856.71875 Z M 977.578125 1064.855469 L 910.082031 1064.855469 C 903.746094 1064.855469 898.605469 1059.71875 898.605469 1053.378906 L 898.605469 845.242188 C 898.605469 838.902344 903.746094 833.765625 910.082031 833.765625 L 977.578125 833.765625 C 983.917969 833.765625 989.054688 838.902344 989.054688 845.242188 L 989.054688 1053.378906 C 989.054688 1059.71875 983.917969 1064.855469 977.578125 1064.855469 Z M 977.578125 1064.855469 " fill-opacity="1" fill-rule="evenodd"/><path stroke-linecap="round" transform="matrix(0.75, 0, 0, 0.75, 543.482147, 1104.771917)" fill="none" stroke-linejoin="miter" d="M 19.497765 19.502029 L 300.497789 19.502029 " stroke="#ffffff" stroke-width="39" stroke-opacity="1" stroke-miterlimit="4"/></svg>