<svg xmlns="http://www.w3.org/2000/svg" xmlns:xlink="http://www.w3.org/1999/xlink" width="2000" zoomAndPan="magnify" viewBox="0 0 1500 1499.999933" height="2000" preserveAspectRatio="xMidYMid meet" version="1.0"><defs><clipPath id="60673e41ce"><path d="M 1002 1114 L 1070 1114 L 1070 1138.042969 L 1002 1138.042969 Z M 1002 1114 " clip-rule="nonzero"/></clipPath><clipPath id="5346d34475"><path d="M 393.335938 769 L 1106.585938 769 L 1106.585938 1138.042969 L 393.335938 1138.042969 Z M 393.335938 769 " clip-rule="nonzero"/></clipPath><clipPath id="0f18057982"><path d="M 561 361.792969 L 939 361.792969 L 939 739 L 561 739 Z M 561 361.792969 " clip-rule="nonzero"/></clipPath></defs><path stroke-linecap="round" transform="matrix(0.75, 0, 0, 0.75, 397.857157, 1089.176262)" fill="none" stroke-linejoin="miter" d="M 30.497751 30.499361 L 289.497773 30.499361 " stroke="#ffffff" stroke-width="61" stroke-opacity="1" stroke-miterlimit="4"/><g clip-path="url(#60673e41ce)"><path fill="#33f6bd" d="M 1058.054688 1138.046875 C 1064.570312 1138.046875 1069.855469 1132.765625 1069.855469 1126.25 C 1069.855469 1119.726562 1064.570312 1114.441406 1058.054688 1114.441406 L 1014.40625 1114.441406 C 1007.890625 1114.441406 1002.605469 1119.726562 1002.605469 1126.25 C 1002.605469 1132.765625 1007.890625 1138.046875 1014.40625 1138.046875 L 1058.054688 1138.046875 " fill-opacity="1" fill-rule="nonzero"/></g><g clip-path="url(#5346d34475)"><path fill="#33f6bd" d="M 976.449219 1138.046875 C 982.964844 1138.046875 988.246094 1132.765625 988.246094 1126.25 C 988.246094 1119.726562 982.964844 1114.441406 976.449219 1114.441406 L 416.941406 1114.441406 L 416.941406 950.425781 C 416.941406 907.195312 434.640625 867.882812 463.144531 839.371094 C 491.648438 810.867188 530.96875 793.167969 574.191406 793.167969 L 603.601562 793.167969 L 740.886719 961.234375 L 750.011719 953.804688 L 740.871094 961.273438 C 744.996094 966.324219 752.429688 967.078125 757.480469 962.945312 C 758.371094 962.226562 759.121094 961.402344 759.738281 960.503906 L 896.425781 793.167969 L 925.835938 793.167969 C 969.066406 793.167969 1008.378906 810.867188 1036.882812 839.371094 C 1065.394531 867.882812 1083.085938 907.195312 1083.085938 950.425781 L 1083.085938 1126.25 C 1083.085938 1132.765625 1088.375 1138.046875 1094.894531 1138.046875 C 1101.410156 1138.046875 1106.691406 1132.765625 1106.691406 1126.25 L 1106.691406 950.425781 C 1106.691406 900.679688 1086.351562 855.460938 1053.574219 822.683594 C 1020.800781 789.910156 975.582031 769.5625 925.835938 769.5625 L 890.878906 769.5625 C 887.460938 769.570312 884.066406 771.042969 881.738281 773.902344 L 890.878906 781.371094 L 881.746094 773.949219 L 750.011719 935.210938 L 618.859375 774.652344 C 616.730469 771.582031 613.175781 769.5625 609.15625 769.5625 L 574.191406 769.5625 C 524.445312 769.5625 479.226562 789.910156 446.453125 822.683594 C 413.675781 855.460938 393.335938 900.679688 393.335938 950.425781 L 393.335938 1126.25 C 393.335938 1132.765625 398.617188 1138.046875 405.144531 1138.046875 L 976.449219 1138.046875 " fill-opacity="1" fill-rule="nonzero"/></g><g clip-path="url(#0f18057982)"><path fill="#33f6bd" d="M 866.554688 433.761719 C 836.726562 403.9375 795.527344 385.484375 750.011719 385.484375 C 704.507812 385.484375 663.300781 403.9375 633.484375 433.761719 C 603.65625 463.585938 585.214844 504.785156 585.214844 550.292969 C 585.214844 595.800781 603.65625 637.007812 633.484375 666.824219 C 663.300781 696.648438 704.507812 715.101562 750.011719 715.101562 C 795.527344 715.101562 836.726562 696.648438 866.554688 666.824219 C 896.371094 637.007812 914.820312 595.800781 914.820312 550.292969 C 914.820312 504.785156 896.371094 463.585938 866.554688 433.761719 Z M 750.011719 361.878906 C 802.042969 361.878906 849.144531 382.972656 883.242188 417.070312 C 917.335938 451.164062 938.425781 498.269531 938.425781 550.292969 C 938.425781 602.324219 917.335938 649.421875 883.242188 683.523438 C 849.144531 717.613281 802.042969 738.707031 750.011719 738.707031 C 697.992188 738.707031 650.882812 717.613281 616.792969 683.523438 C 582.691406 649.421875 561.601562 602.324219 561.601562 550.292969 C 561.601562 498.269531 582.691406 451.164062 616.792969 417.070312 C 650.882812 382.972656 697.992188 361.878906 750.011719 361.878906 " fill-opacity="1" fill-rule="nonzero"/></g><path stroke-linecap="butt" transform="matrix(0.75, 0, 0, 0.75, 802.410732, 1100.705621)" fill="none" stroke-linejoin="miter" d="M -0.000767981 50.001884 L 639.999287 50.001884 " stroke="#ffffff" stroke-width="100" stroke-opacity="1" stroke-miterlimit="4"/></svg>