<svg xmlns="http://www.w3.org/2000/svg" xmlns:xlink="http://www.w3.org/1999/xlink" width="2000" zoomAndPan="magnify" viewBox="0 0 1500 1499.999933" height="2000" preserveAspectRatio="xMidYMid meet" version="1.0"><defs><clipPath id="4fec83b050"><path d="M 397.085938 308.859375 L 1102.835938 308.859375 L 1102.835938 1190.859375 L 397.085938 1190.859375 Z M 397.085938 308.859375 " clip-rule="nonzero"/></clipPath><clipPath id="9480f4839c"><path d="M 750 827.230469 L 1045.980469 827.230469 L 1045.980469 1234.820312 L 750 1234.820312 Z M 750 827.230469 " clip-rule="nonzero"/></clipPath><clipPath id="80fc06c47f"><path d="M 0 0.230469 L 295.980469 0.230469 L 295.980469 407.820312 L 0 407.820312 Z M 0 0.230469 " clip-rule="nonzero"/></clipPath><clipPath id="57a4c626ba"><rect x="0" width="296" y="0" height="408"/></clipPath></defs><g clip-path="url(#4fec83b050)"><path fill="#33f6bd" d="M 1049.96875 308.859375 L 450.023438 308.859375 C 420.832031 308.859375 397.085938 332.605469 397.085938 361.796875 L 397.085938 873.515625 C 397.085938 1048.652344 539.570312 1191.136719 714.707031 1191.136719 L 1049.96875 1191.136719 C 1079.160156 1191.136719 1102.90625 1167.390625 1102.90625 1138.199219 L 1102.90625 361.796875 C 1102.90625 332.605469 1079.160156 308.859375 1049.96875 308.859375 Z M 443.175781 949.9375 C 471.96875 978.992188 511.859375 997.035156 555.894531 997.035156 L 573.542969 997.035156 C 583.269531 997.035156 591.1875 1004.953125 591.1875 1014.679688 L 591.1875 1032.328125 C 591.1875 1076.363281 609.230469 1116.253906 638.28125 1145.046875 C 544.015625 1118.46875 469.753906 1044.207031 443.175781 949.9375 Z M 1067.617188 1138.199219 C 1067.617188 1147.925781 1059.699219 1155.84375 1049.96875 1155.84375 L 749.996094 1155.84375 C 681.886719 1155.84375 626.476562 1100.4375 626.476562 1032.328125 L 626.476562 1014.679688 C 626.476562 985.488281 602.730469 961.746094 573.542969 961.746094 L 555.894531 961.746094 C 487.785156 961.746094 432.378906 906.335938 432.378906 838.226562 L 432.378906 361.796875 C 432.378906 352.070312 440.296875 344.152344 450.023438 344.152344 L 1049.96875 344.152344 C 1059.699219 344.152344 1067.617188 352.070312 1067.617188 361.796875 Z M 1067.617188 1138.199219 " fill-opacity="1" fill-rule="nonzero"/></g><path fill="#33f6bd" d="M 610.195312 509.75 C 612.933594 516.324219 619.351562 520.605469 626.476562 520.605469 C 633.601562 520.605469 640.023438 516.324219 642.761719 509.75 L 686.875 403.878906 C 690.625 394.882812 686.375 384.550781 677.382812 380.804688 C 668.359375 377.03125 658.039062 381.3125 654.308594 390.296875 L 626.476562 457.082031 L 598.648438 390.296875 C 594.917969 381.3125 584.605469 377.039062 575.574219 380.804688 C 566.578125 384.550781 562.332031 394.882812 566.078125 403.878906 Z M 610.195312 509.75 " fill-opacity="1" fill-rule="nonzero"/><path fill="#33f6bd" d="M 699.09375 519.246094 C 708.089844 522.992188 718.425781 518.738281 722.167969 509.75 L 724.996094 502.960938 L 774.996094 502.960938 C 774.996094 502.960938 777.824219 509.75 777.828125 509.753906 C 781.566406 518.734375 791.957031 522.972656 800.898438 519.246094 C 809.894531 515.496094 814.140625 505.167969 810.394531 496.171875 L 766.28125 390.296875 C 763.539062 383.726562 757.121094 379.441406 749.996094 379.441406 C 742.871094 379.441406 736.453125 383.726562 733.710938 390.296875 L 689.597656 496.171875 C 685.851562 505.167969 690.097656 515.496094 699.09375 519.246094 Z M 760.289062 467.671875 L 739.703125 467.671875 L 749.996094 442.96875 Z M 760.289062 467.671875 " fill-opacity="1" fill-rule="nonzero"/><path fill="#33f6bd" d="M 829.402344 414.734375 L 855.871094 414.734375 L 855.871094 502.960938 C 855.871094 512.707031 863.769531 520.605469 873.515625 520.605469 C 883.257812 520.605469 891.160156 512.707031 891.160156 502.960938 L 891.160156 414.734375 L 917.628906 414.734375 C 927.375 414.734375 935.273438 406.832031 935.273438 397.089844 C 935.273438 387.34375 927.375 379.441406 917.628906 379.441406 L 829.402344 379.441406 C 819.65625 379.441406 811.753906 387.34375 811.753906 397.089844 C 811.753906 406.832031 819.65625 414.734375 829.402344 414.734375 Z M 829.402344 414.734375 " fill-opacity="1" fill-rule="nonzero"/><path fill="#33f6bd" d="M 573.542969 591.1875 L 926.453125 591.1875 C 936.195312 591.1875 944.097656 583.289062 944.097656 573.542969 C 944.097656 563.796875 936.195312 555.898438 926.453125 555.898438 L 573.542969 555.898438 C 563.796875 555.898438 555.894531 563.796875 555.894531 573.542969 C 555.894531 583.289062 563.796875 591.1875 573.542969 591.1875 Z M 573.542969 591.1875 " fill-opacity="1" fill-rule="nonzero"/><path fill="#33f6bd" d="M 891.160156 838.226562 C 813.324219 838.226562 749.996094 901.554688 749.996094 979.390625 C 749.996094 1057.226562 813.324219 1120.554688 891.160156 1120.554688 C 968.996094 1120.554688 1032.324219 1057.226562 1032.324219 979.390625 C 1032.324219 901.554688 968.996094 838.226562 891.160156 838.226562 Z M 891.160156 1085.261719 C 832.777344 1085.261719 785.289062 1037.773438 785.289062 979.390625 C 785.289062 921.007812 832.777344 873.515625 891.160156 873.515625 C 949.542969 873.515625 997.035156 921.007812 997.035156 979.390625 C 997.035156 1037.773438 949.542969 1085.261719 891.160156 1085.261719 Z M 891.160156 1085.261719 " fill-opacity="1" fill-rule="nonzero"/><path fill="#33f6bd" d="M 869.101562 935.277344 C 869.105469 935.855469 869.074219 936.429688 869.019531 937.003906 C 868.960938 937.582031 868.878906 938.152344 868.765625 938.71875 C 868.652344 939.285156 868.511719 939.84375 868.34375 940.398438 C 868.175781 940.953125 867.980469 941.496094 867.761719 942.027344 C 867.539062 942.5625 867.292969 943.085938 867.019531 943.59375 C 866.746094 944.105469 866.449219 944.597656 866.128906 945.078125 C 865.808594 945.558594 865.464844 946.023438 865.097656 946.46875 C 864.730469 946.917969 864.34375 947.34375 863.933594 947.753906 C 863.527344 948.160156 863.097656 948.550781 862.652344 948.917969 C 862.207031 949.28125 861.742188 949.625 861.261719 949.949219 C 860.78125 950.269531 860.285156 950.566406 859.777344 950.839844 C 859.265625 951.109375 858.746094 951.355469 858.210938 951.578125 C 857.675781 951.800781 857.132812 951.992188 856.582031 952.160156 C 856.027344 952.328125 855.46875 952.46875 854.902344 952.582031 C 854.332031 952.695312 853.761719 952.78125 853.1875 952.835938 C 852.613281 952.894531 852.035156 952.921875 851.457031 952.921875 C 850.878906 952.921875 850.304688 952.894531 849.726562 952.835938 C 849.152344 952.78125 848.582031 952.695312 848.015625 952.582031 C 847.449219 952.46875 846.890625 952.328125 846.335938 952.160156 C 845.78125 951.992188 845.238281 951.800781 844.707031 951.578125 C 844.171875 951.355469 843.648438 951.109375 843.140625 950.839844 C 842.628906 950.566406 842.136719 950.269531 841.65625 949.949219 C 841.175781 949.625 840.710938 949.28125 840.265625 948.917969 C 839.816406 948.550781 839.390625 948.160156 838.980469 947.753906 C 838.570312 947.34375 838.183594 946.917969 837.816406 946.46875 C 837.453125 946.023438 837.105469 945.558594 836.785156 945.078125 C 836.464844 944.597656 836.167969 944.105469 835.894531 943.59375 C 835.625 943.085938 835.375 942.5625 835.15625 942.027344 C 834.933594 941.496094 834.738281 940.953125 834.574219 940.398438 C 834.40625 939.84375 834.265625 939.285156 834.152344 938.71875 C 834.039062 938.152344 833.953125 937.582031 833.898438 937.003906 C 833.839844 936.429688 833.8125 935.855469 833.8125 935.277344 C 833.8125 934.699219 833.839844 934.121094 833.898438 933.546875 C 833.953125 932.972656 834.039062 932.398438 834.152344 931.832031 C 834.265625 931.265625 834.40625 930.707031 834.570312 930.152344 C 834.738281 929.601562 834.933594 929.058594 835.15625 928.523438 C 835.375 927.988281 835.625 927.46875 835.894531 926.957031 C 836.167969 926.449219 836.464844 925.953125 836.785156 925.472656 C 837.105469 924.992188 837.453125 924.527344 837.816406 924.082031 C 838.183594 923.636719 838.570312 923.207031 838.980469 922.796875 C 839.390625 922.390625 839.816406 922.003906 840.265625 921.636719 C 840.710938 921.269531 841.175781 920.925781 841.65625 920.605469 C 842.136719 920.285156 842.628906 919.988281 843.140625 919.714844 C 843.648438 919.441406 844.171875 919.195312 844.707031 918.972656 C 845.238281 918.753906 845.78125 918.558594 846.335938 918.390625 C 846.890625 918.222656 847.449219 918.082031 848.015625 917.96875 C 848.582031 917.855469 849.152344 917.773438 849.726562 917.714844 C 850.304688 917.660156 850.878906 917.628906 851.457031 917.628906 C 852.035156 917.628906 852.613281 917.660156 853.1875 917.714844 C 853.761719 917.773438 854.332031 917.855469 854.902344 917.96875 C 855.46875 918.082031 856.027344 918.222656 856.582031 918.390625 C 857.132812 918.558594 857.675781 918.753906 858.210938 918.972656 C 858.746094 919.195312 859.265625 919.441406 859.777344 919.714844 C 860.285156 919.988281 860.78125 920.285156 861.261719 920.605469 C 861.742188 920.925781 862.207031 921.269531 862.652344 921.636719 C 863.097656 922.003906 863.527344 922.390625 863.933594 922.796875 C 864.34375 923.207031 864.730469 923.636719 865.097656 924.082031 C 865.464844 924.527344 865.808594 924.992188 866.128906 925.472656 C 866.449219 925.953125 866.746094 926.449219 867.019531 926.957031 C 867.292969 927.46875 867.539062 927.988281 867.761719 928.523438 C 867.980469 929.058594 868.175781 929.601562 868.34375 930.152344 C 868.511719 930.707031 868.652344 931.265625 868.765625 931.832031 C 868.878906 932.398438 868.960938 932.972656 869.019531 933.546875 C 869.074219 934.121094 869.105469 934.699219 869.101562 935.277344 Z M 869.101562 935.277344 " fill-opacity="1" fill-rule="nonzero"/><path fill="#33f6bd" d="M 948.507812 1023.503906 C 948.507812 1024.082031 948.480469 1024.65625 948.421875 1025.234375 C 948.367188 1025.808594 948.28125 1026.378906 948.167969 1026.945312 C 948.054688 1027.511719 947.917969 1028.074219 947.75 1028.625 C 947.582031 1029.179688 947.386719 1029.722656 947.164062 1030.257812 C 946.945312 1030.789062 946.695312 1031.3125 946.425781 1031.820312 C 946.152344 1032.332031 945.855469 1032.828125 945.535156 1033.308594 C 945.214844 1033.789062 944.871094 1034.25 944.503906 1034.699219 C 944.136719 1035.144531 943.75 1035.570312 943.339844 1035.980469 C 942.929688 1036.390625 942.503906 1036.777344 942.058594 1037.144531 C 941.609375 1037.511719 941.148438 1037.855469 940.667969 1038.175781 C 940.183594 1038.496094 939.691406 1038.792969 939.179688 1039.066406 C 938.671875 1039.339844 938.148438 1039.585938 937.617188 1039.804688 C 937.082031 1040.027344 936.539062 1040.222656 935.984375 1040.390625 C 935.433594 1040.558594 934.871094 1040.699219 934.304688 1040.808594 C 933.738281 1040.921875 933.167969 1041.007812 932.59375 1041.0625 C 932.015625 1041.121094 931.441406 1041.148438 930.863281 1041.148438 C 930.285156 1041.148438 929.707031 1041.121094 929.132812 1041.0625 C 928.558594 1041.007812 927.988281 1040.921875 927.421875 1040.808594 C 926.851562 1040.699219 926.292969 1040.558594 925.742188 1040.390625 C 925.1875 1040.222656 924.644531 1040.027344 924.109375 1039.804688 C 923.578125 1039.585938 923.054688 1039.339844 922.542969 1039.066406 C 922.035156 1038.792969 921.539062 1038.496094 921.058594 1038.175781 C 920.578125 1037.855469 920.117188 1037.511719 919.667969 1037.144531 C 919.222656 1036.777344 918.792969 1036.390625 918.386719 1035.980469 C 917.976562 1035.570312 917.589844 1035.144531 917.222656 1034.699219 C 916.855469 1034.25 916.511719 1033.789062 916.191406 1033.308594 C 915.871094 1032.828125 915.574219 1032.332031 915.300781 1031.820312 C 915.027344 1031.3125 914.78125 1030.789062 914.558594 1030.257812 C 914.339844 1029.722656 914.144531 1029.179688 913.976562 1028.625 C 913.808594 1028.074219 913.667969 1027.511719 913.554688 1026.945312 C 913.445312 1026.378906 913.359375 1025.808594 913.300781 1025.234375 C 913.246094 1024.65625 913.21875 1024.082031 913.21875 1023.503906 C 913.21875 1022.925781 913.246094 1022.347656 913.300781 1021.773438 C 913.359375 1021.199219 913.445312 1020.628906 913.554688 1020.0625 C 913.667969 1019.496094 913.808594 1018.933594 913.976562 1018.382812 C 914.144531 1017.828125 914.339844 1017.285156 914.558594 1016.75 C 914.78125 1016.21875 915.027344 1015.695312 915.300781 1015.1875 C 915.574219 1014.675781 915.871094 1014.179688 916.191406 1013.699219 C 916.511719 1013.21875 916.855469 1012.757812 917.222656 1012.308594 C 917.589844 1011.863281 917.976562 1011.433594 918.386719 1011.027344 C 918.792969 1010.617188 919.222656 1010.230469 919.667969 1009.863281 C 920.117188 1009.496094 920.578125 1009.152344 921.058594 1008.832031 C 921.539062 1008.511719 922.035156 1008.214844 922.542969 1007.941406 C 923.054688 1007.667969 923.578125 1007.421875 924.109375 1007.203125 C 924.644531 1006.980469 925.1875 1006.785156 925.742188 1006.617188 C 926.292969 1006.449219 926.851562 1006.308594 927.421875 1006.195312 C 927.988281 1006.085938 928.558594 1006 929.132812 1005.941406 C 929.707031 1005.886719 930.285156 1005.859375 930.863281 1005.859375 C 931.441406 1005.859375 932.015625 1005.886719 932.59375 1005.941406 C 933.167969 1006 933.738281 1006.085938 934.304688 1006.195312 C 934.871094 1006.308594 935.433594 1006.449219 935.984375 1006.617188 C 936.539062 1006.785156 937.082031 1006.980469 937.617188 1007.203125 C 938.148438 1007.421875 938.671875 1007.667969 939.179688 1007.941406 C 939.691406 1008.214844 940.183594 1008.511719 940.667969 1008.832031 C 941.148438 1009.152344 941.609375 1009.496094 942.058594 1009.863281 C 942.503906 1010.230469 942.929688 1010.617188 943.339844 1011.027344 C 943.75 1011.433594 944.136719 1011.863281 944.503906 1012.308594 C 944.871094 1012.757812 945.214844 1013.21875 945.535156 1013.699219 C 945.855469 1014.179688 946.152344 1014.675781 946.425781 1015.1875 C 946.695312 1015.695312 946.945312 1016.21875 947.164062 1016.75 C 947.386719 1017.285156 947.582031 1017.828125 947.75 1018.382812 C 947.917969 1018.933594 948.054688 1019.496094 948.167969 1020.0625 C 948.28125 1020.628906 948.367188 1021.199219 948.421875 1021.773438 C 948.480469 1022.347656 948.507812 1022.925781 948.507812 1023.503906 Z M 948.507812 1023.503906 " fill-opacity="1" fill-rule="nonzero"/><path fill="#33f6bd" d="M 937.472656 921.5 C 929.878906 915.425781 918.75 916.648438 912.675781 924.257812 L 842.09375 1012.484375 C 836 1020.089844 837.234375 1031.199219 844.851562 1037.28125 C 852.394531 1043.324219 863.625 1042.0625 869.644531 1034.523438 L 940.226562 946.296875 C 946.320312 938.6875 945.085938 927.582031 937.472656 921.5 Z M 937.472656 921.5 " fill-opacity="1" fill-rule="nonzero"/><path fill="#33f6bd" d="M 1014.679688 626.480469 L 485.3125 626.480469 C 475.570312 626.480469 467.667969 634.378906 467.667969 644.125 C 467.667969 653.871094 475.570312 661.769531 485.3125 661.769531 L 1014.679688 661.769531 C 1024.421875 661.769531 1032.324219 653.871094 1032.324219 644.125 C 1032.324219 634.378906 1024.421875 626.480469 1014.679688 626.480469 Z M 1014.679688 626.480469 " fill-opacity="1" fill-rule="nonzero"/><path fill="#33f6bd" d="M 485.3125 732.351562 L 697.058594 732.351562 C 706.804688 732.351562 714.707031 724.453125 714.707031 714.707031 C 714.707031 704.960938 706.804688 697.0625 697.058594 697.0625 L 485.3125 697.0625 C 475.570312 697.0625 467.667969 704.960938 467.667969 714.707031 C 467.667969 724.453125 475.570312 732.351562 485.3125 732.351562 Z M 485.3125 732.351562 " fill-opacity="1" fill-rule="nonzero"/><path fill="#33f6bd" d="M 1014.679688 767.644531 L 485.3125 767.644531 C 475.570312 767.644531 467.667969 775.542969 467.667969 785.289062 C 467.667969 795.035156 475.570312 802.933594 485.3125 802.933594 L 1014.679688 802.933594 C 1024.421875 802.933594 1032.324219 795.035156 1032.324219 785.289062 C 1032.324219 775.542969 1024.421875 767.644531 1014.679688 767.644531 Z M 1014.679688 767.644531 " fill-opacity="1" fill-rule="nonzero"/><path fill="#33f6bd" d="M 697.058594 838.226562 L 485.3125 838.226562 C 475.570312 838.226562 467.667969 846.125 467.667969 855.871094 C 467.667969 865.617188 475.570312 873.515625 485.3125 873.515625 L 697.058594 873.515625 C 706.804688 873.515625 714.707031 865.617188 714.707031 855.871094 C 714.707031 846.125 706.804688 838.226562 697.058594 838.226562 Z M 697.058594 838.226562 " fill-opacity="1" fill-rule="nonzero"/><g clip-path="url(#9480f4839c)"><g transform="matrix(1, 0, 0, 1, 750, 827)"><g clip-path="url(#57a4c626ba)"><g clip-path="url(#80fc06c47f)"><path fill="#ffffff" d="M 0 0.230469 L 295.980469 0.230469 L 295.980469 408.363281 L 0 408.363281 Z M 0 0.230469 " fill-opacity="1" fill-rule="nonzero"/></g></g></g></g></svg>