<svg xmlns="http://www.w3.org/2000/svg" xmlns:xlink="http://www.w3.org/1999/xlink" width="2000" zoomAndPan="magnify" viewBox="0 0 1500 1499.999933" height="2000" preserveAspectRatio="xMidYMid meet" version="1.0"><defs><clipPath id="6e4d43ce4d"><path d="M 277 373.691406 L 1223 373.691406 L 1223 1125.941406 L 277 1125.941406 Z M 277 373.691406 " clip-rule="nonzero"/></clipPath><clipPath id="905e863c72"><path d="M 851 651 L 1010 651 L 1010 809 L 851 809 Z M 851 651 " clip-rule="nonzero"/></clipPath><clipPath id="4804163ec8"><path d="M 851.515625 682.132812 L 882.453125 651.195312 L 1009.035156 777.777344 L 978.097656 808.714844 Z M 851.515625 682.132812 " clip-rule="nonzero"/></clipPath><clipPath id="451f65dd8a"><path d="M 0.28125 0.121094 L 158.199219 0.121094 L 158.199219 157.800781 L 0.28125 157.800781 Z M 0.28125 0.121094 " clip-rule="nonzero"/></clipPath><clipPath id="2540112a2e"><path d="M 0.515625 31.132812 L 31.453125 0.195312 L 158.035156 126.777344 L 127.097656 157.714844 Z M 0.515625 31.132812 " clip-rule="nonzero"/></clipPath><clipPath id="94d94035e4"><rect x="0" width="159" y="0" height="158"/></clipPath></defs><g clip-path="url(#6e4d43ce4d)"><path fill="#33f6bd" d="M 1204.5 751.871094 L 1167.816406 775.941406 C 1165.753906 777.296875 1163.714844 777.085938 1162.6875 776.835938 C 1161.65625 776.589844 1159.746094 775.855469 1158.519531 773.714844 L 1021.410156 533.972656 C 1019.707031 531.003906 1020.605469 527.179688 1023.445312 525.269531 L 1217.332031 395.007812 C 1222.652344 391.4375 1224.066406 384.230469 1220.492188 378.914062 C 1216.921875 373.59375 1209.710938 372.179688 1204.398438 375.753906 L 1010.507812 506.015625 C 997.617188 514.675781 993.558594 532.015625 1001.273438 545.492188 L 1009.691406 560.214844 C 990.605469 568.648438 968.96875 569.761719 948.933594 563.078125 L 864.652344 534.949219 C 826.226562 522.125 784.957031 525.617188 749.875 543.433594 C 714.503906 525.507812 672.796875 522.382812 635.15625 534.949219 L 550.871094 563.078125 C 530.839844 569.765625 509.203125 568.648438 490.113281 560.214844 L 498.535156 545.496094 C 506.246094 532.015625 502.1875 514.675781 489.296875 506.015625 L 295.410156 375.753906 C 290.09375 372.183594 282.886719 373.59375 279.3125 378.914062 C 275.742188 384.230469 277.15625 391.4375 282.472656 395.007812 L 476.359375 525.269531 C 479.203125 527.179688 480.097656 531.003906 478.398438 533.976562 L 341.289062 773.710938 C 340.0625 775.855469 338.148438 776.589844 337.117188 776.835938 C 336.089844 777.085938 334.054688 777.296875 331.988281 775.941406 L 295.304688 751.871094 C 289.953125 748.355469 282.757812 749.847656 279.242188 755.203125 C 275.730469 760.5625 277.222656 767.753906 282.578125 771.265625 L 319.261719 795.339844 C 324.140625 798.539062 329.859375 800.210938 335.625 800.210938 C 337.933594 800.210938 340.25 799.945312 342.527344 799.398438 C 350.476562 797.492188 357.363281 792.328125 361.425781 785.230469 L 369.496094 771.121094 C 382.1875 779.742188 405.183594 798.027344 422.90625 827.035156 C 424.722656 830.003906 427.394531 834.503906 430.847656 840.40625 C 433.003906 844.09375 436.886719 846.148438 440.871094 846.148438 C 442.859375 846.148438 444.875 845.636719 446.71875 844.558594 C 452.246094 841.324219 454.105469 834.21875 450.871094 828.6875 C 447.34375 822.660156 444.59375 818.03125 442.703125 814.9375 C 422.03125 781.101562 395.464844 760.429688 381.058594 750.902344 L 478.542969 580.449219 C 492.910156 587.1875 508.488281 590.625 524.160156 590.625 C 535.609375 590.625 547.109375 588.792969 558.21875 585.085938 L 642.5 556.953125 C 669.726562 547.863281 699.472656 548.515625 726.222656 558.390625 C 722.582031 561.207031 719.042969 564.1875 715.636719 567.363281 L 643.40625 634.722656 C 631.816406 645.53125 625.15625 660.820312 625.132812 676.664062 C 625.109375 692.511719 631.722656 707.820312 643.28125 718.660156 C 662.957031 737.121094 693.304688 739.328125 715.445312 723.90625 L 807.558594 659.75 C 819.039062 651.75 834.484375 653.191406 844.285156 663.175781 L 964.890625 785.988281 L 1032.316406 853.410156 C 1045.46875 866.566406 1045.46875 887.964844 1032.316406 901.121094 C 1025.945312 907.488281 1017.472656 911 1008.460938 911 C 999.457031 911 990.992188 907.492188 984.621094 901.132812 C 984.617188 901.128906 984.613281 901.125 984.609375 901.121094 C 984.597656 901.105469 984.582031 901.097656 984.570312 901.085938 C 984.066406 900.585938 983.519531 900.15625 982.957031 899.769531 C 982.78125 899.648438 982.605469 899.550781 982.425781 899.441406 C 982.1875 899.296875 981.957031 899.128906 981.710938 899 L 884.917969 800.433594 C 880.425781 795.859375 873.082031 795.796875 868.511719 800.285156 C 863.941406 804.773438 863.875 812.117188 868.363281 816.6875 L 967.714844 917.859375 C 968.449219 918.609375 969.300781 919.207031 970.195312 919.722656 C 981.300781 932.964844 980.648438 952.785156 968.207031 965.230469 C 955.355469 978.074219 934.910156 978.46875 921.550781 966.167969 L 859.636719 903.117188 C 855.148438 898.542969 847.804688 898.480469 843.234375 902.96875 C 838.664062 907.457031 838.597656 914.800781 843.085938 919.371094 L 905.023438 982.445312 C 917.449219 995.800781 917.097656 1016.335938 904.207031 1029.226562 C 891.054688 1042.378906 869.652344 1042.382812 856.578125 1029.300781 L 834.1875 1006.503906 C 829.699219 1001.933594 822.355469 1001.867188 817.785156 1006.355469 C 813.214844 1010.84375 813.148438 1018.1875 817.636719 1022.757812 L 840.097656 1045.628906 C 853.25 1058.785156 853.25 1080.183594 840.097656 1093.339844 C 826.941406 1106.488281 805.546875 1106.488281 792.390625 1093.339844 L 779.335938 1080.285156 C 797.109375 1057.953125 795.683594 1025.261719 775.03125 1004.609375 C 761.964844 991.542969 744.070312 986.175781 727.035156 988.492188 C 729.355469 971.457031 723.988281 953.570312 710.921875 940.503906 C 700.167969 929.75 685.871094 923.824219 670.664062 923.824219 C 668.0625 923.824219 665.492188 924.011719 662.957031 924.351562 C 663.300781 921.816406 663.484375 919.246094 663.484375 916.648438 C 663.484375 901.441406 657.5625 887.144531 646.808594 876.390625 C 633.742188 863.324219 615.851562 857.957031 598.816406 860.273438 C 601.136719 843.238281 595.769531 825.347656 582.699219 812.28125 C 560.503906 790.082031 524.386719 790.078125 502.1875 812.28125 L 434.761719 879.707031 C 412.5625 901.902344 412.5625 938.023438 434.761719 960.21875 L 434.761719 960.222656 C 445.859375 971.320312 460.4375 976.871094 475.019531 976.871094 C 477.605469 976.871094 480.1875 976.6875 482.753906 976.335938 C 480.4375 993.371094 485.804688 1011.261719 498.871094 1024.332031 C 509.96875 1035.429688 524.546875 1040.980469 539.128906 1040.980469 C 547.472656 1040.980469 555.816406 1039.152344 563.507812 1035.515625 C 564.496094 1048.621094 569.976562 1061.445312 579.976562 1071.445312 C 591.074219 1082.542969 605.65625 1088.089844 620.234375 1088.089844 C 632.011719 1088.089844 643.792969 1084.464844 653.734375 1077.21875 C 655.390625 1089.5 660.96875 1100.847656 669.882812 1109.757812 C 680.980469 1120.859375 695.558594 1126.410156 710.136719 1126.410156 C 724.71875 1126.410156 739.296875 1120.859375 750.394531 1109.757812 L 763.199219 1096.953125 L 775.988281 1109.742188 C 787.085938 1120.839844 801.664062 1126.390625 816.246094 1126.390625 C 830.824219 1126.390625 845.402344 1120.839844 856.503906 1109.742188 C 869.570312 1096.671875 874.933594 1078.78125 872.617188 1061.746094 C 875.183594 1062.097656 877.769531 1062.28125 880.355469 1062.28125 C 894.933594 1062.28125 909.515625 1056.730469 920.609375 1045.628906 C 933.6875 1032.554688 939.117188 1014.820312 936.832031 997.859375 C 939.34375 998.195312 941.875 998.371094 944.40625 998.371094 C 958.949219 998.371094 973.472656 992.773438 984.609375 981.632812 C 997.6875 968.554688 1003.050781 950.644531 1000.71875 933.59375 C 1003.289062 933.945312 1005.871094 934.171875 1008.460938 934.171875 C 1023.042969 934.171875 1037.621094 928.621094 1048.71875 917.523438 C 1065.691406 900.550781 1069.671875 875.441406 1060.6875 854.636719 C 1068.25 841.5625 1073.820312 832.074219 1076.902344 827.03125 C 1094.625 798.019531 1117.628906 779.738281 1130.3125 771.121094 L 1138.382812 785.230469 C 1142.441406 792.328125 1149.328125 797.492188 1157.277344 799.398438 C 1159.550781 799.945312 1161.871094 800.210938 1164.179688 800.210938 C 1169.945312 800.210938 1175.664062 798.539062 1180.542969 795.339844 L 1217.230469 771.265625 C 1222.585938 767.753906 1224.078125 760.5625 1220.5625 755.203125 C 1217.046875 749.847656 1209.855469 748.355469 1204.5 751.871094 Z M 451.164062 943.816406 C 438.015625 930.664062 438.011719 909.261719 451.164062 896.109375 L 518.589844 828.683594 C 531.746094 815.53125 553.144531 815.535156 566.296875 828.683594 C 579.449219 841.835938 579.449219 863.238281 566.296875 876.390625 L 498.871094 943.816406 C 485.722656 956.96875 464.320312 956.972656 451.164062 943.816406 Z M 515.273438 1007.929688 C 502.125 994.773438 502.125 973.371094 515.273438 960.21875 L 582.699219 892.792969 C 595.855469 879.644531 617.253906 879.640625 630.40625 892.796875 C 636.777344 899.164062 640.285156 907.636719 640.285156 916.648438 C 640.285156 925.652344 636.78125 934.117188 630.417969 940.488281 C 630.414062 940.492188 630.410156 940.496094 630.40625 940.5 L 579.976562 990.929688 C 579.96875 990.9375 579.964844 990.945312 579.957031 990.949219 L 562.980469 1007.929688 C 549.828125 1021.078125 528.425781 1021.078125 515.273438 1007.929688 Z M 596.378906 1055.039062 C 583.230469 1041.886719 583.226562 1020.488281 596.378906 1007.335938 L 646.808594 956.90625 C 653.183594 950.53125 661.652344 947.023438 670.664062 947.023438 C 679.675781 947.023438 688.144531 950.53125 694.515625 956.90625 C 707.667969 970.058594 707.667969 991.457031 694.515625 1004.609375 L 669.882812 1029.246094 C 669.878906 1029.246094 669.875 1029.25 669.871094 1029.253906 L 644.085938 1055.039062 C 630.9375 1068.195312 609.53125 1068.195312 596.378906 1055.039062 Z M 733.992188 1093.355469 C 720.84375 1106.507812 699.441406 1106.511719 686.285156 1093.355469 C 679.914062 1086.984375 676.40625 1078.511719 676.40625 1069.503906 C 676.40625 1060.492188 679.914062 1052.019531 686.285156 1045.648438 L 710.921875 1021.011719 C 724.074219 1007.863281 745.476562 1007.863281 758.628906 1021.011719 C 771.78125 1034.167969 771.78125 1055.566406 758.628906 1068.722656 Z M 1057.105469 814.933594 C 1054.65625 818.941406 1050.863281 825.363281 1045.789062 834.078125 L 981.367188 769.65625 L 860.839844 646.921875 C 843.078125 628.835938 815.097656 626.226562 794.300781 640.710938 L 702.183594 704.867188 C 688.984375 714.066406 670.886719 712.75 659.152344 701.742188 C 652.160156 695.183594 648.316406 686.289062 648.332031 676.699219 C 648.347656 667.113281 652.214844 658.230469 659.226562 651.6875 L 731.457031 584.328125 C 765.253906 552.8125 813.472656 542.324219 857.308594 556.953125 L 941.589844 585.085938 C 967.902344 593.867188 996.390625 592.089844 1021.253906 580.433594 L 1118.746094 750.902344 C 1104.34375 760.429688 1077.777344 781.101562 1057.105469 814.933594 Z M 1057.105469 814.933594 " fill-opacity="1" fill-rule="nonzero"/></g><g clip-path="url(#905e863c72)"><g clip-path="url(#4804163ec8)"><g transform="matrix(1, 0, 0, 1, 851, 651)"><g clip-path="url(#94d94035e4)"><g clip-path="url(#451f65dd8a)"><g clip-path="url(#2540112a2e)"><path fill="#ffffff" d="M 0.515625 31.132812 L 31.453125 0.195312 L 158.09375 126.839844 L 127.160156 157.773438 Z M 0.515625 31.132812 " fill-opacity="1" fill-rule="nonzero"/></g></g></g></g></g></g></svg>