<svg xmlns="http://www.w3.org/2000/svg" xmlns:xlink="http://www.w3.org/1999/xlink" width="2000" zoomAndPan="magnify" viewBox="0 0 1500 1499.999933" height="2000" preserveAspectRatio="xMidYMid meet" version="1.0"><defs><clipPath id="dcddb1e564"><path d="M 273.609375 392.273438 L 1226.109375 392.273438 L 1226.109375 1107.773438 L 273.609375 1107.773438 Z M 273.609375 392.273438 " clip-rule="nonzero"/></clipPath><clipPath id="013fb59ae9"><path d="M 513 1036 L 921 1036 L 921 1141 L 513 1141 Z M 513 1036 " clip-rule="nonzero"/></clipPath><clipPath id="fd91888242"><path d="M 920.394531 1044.765625 L 918.328125 1140.605469 L 513.675781 1131.886719 L 515.742188 1036.046875 Z M 920.394531 1044.765625 " clip-rule="nonzero"/></clipPath><clipPath id="c3354c9235"><path d="M 0.601562 0 L 407.398438 0 L 407.398438 104.71875 L 0.601562 104.71875 Z M 0.601562 0 " clip-rule="nonzero"/></clipPath><clipPath id="7a8e87b0f6"><path d="M 407.394531 8.765625 L 405.328125 104.605469 L 0.675781 95.886719 L 2.742188 0.046875 Z M 407.394531 8.765625 " clip-rule="nonzero"/></clipPath><clipPath id="6b4a92706c"><rect x="0" width="408" y="0" height="105"/></clipPath></defs><g clip-path="url(#dcddb1e564)"><path fill="#33f6bd" d="M 437.03125 1107.445312 L 344.550781 1107.445312 C 305.378906 1107.445312 273.625 1075.6875 273.625 1036.515625 L 273.625 463.546875 C 273.625 444.734375 281.097656 426.695312 294.398438 413.394531 C 307.699219 400.09375 325.738281 392.621094 344.550781 392.621094 L 496.640625 392.621094 C 535.859375 392.621094 572.972656 402.230469 589.90625 445.4375 C 591.347656 449.109375 594.503906 450.703125 598.140625 451.714844 C 602.875 453.035156 608.324219 453.375 614.121094 453.375 L 1091.058594 453.375 C 1119.8125 453.375 1143.121094 476.683594 1143.121094 505.441406 L 1143.121094 609.625 L 1153.539062 609.625 C 1176.351562 609.625 1197.847656 620.308594 1211.628906 638.488281 C 1225.40625 656.671875 1229.875 680.253906 1223.707031 702.21875 L 1113.65625 1094.039062 C 1113.390625 1095.066406 1113.035156 1096.058594 1112.597656 1097.003906 C 1111.34375 1099.75 1109.441406 1102.0625 1107.136719 1103.804688 C 1104.832031 1105.554688 1102.09375 1106.757812 1099.109375 1107.226562 C 1098.082031 1107.390625 1097.03125 1107.464844 1095.972656 1107.441406 L 437.734375 1107.441406 C 437.5 1107.449219 437.261719 1107.449219 437.027344 1107.441406 Z M 344.550781 428.441406 C 335.238281 428.441406 326.308594 432.140625 319.726562 438.722656 C 313.140625 445.308594 309.441406 454.238281 309.441406 463.550781 L 309.441406 1036.519531 C 309.441406 1055.910156 325.160156 1071.628906 344.550781 1071.628906 L 359.648438 1071.628906 L 359.648438 561.144531 C 359.648438 532.390625 382.957031 509.078125 411.710938 509.078125 L 558.320312 509.078125 L 558.628906 465.144531 C 558.636719 464.523438 558.671875 463.90625 558.738281 463.300781 C 557.941406 461.78125 557.214844 460.1875 556.558594 458.511719 C 545.964844 431.488281 521.171875 428.441406 496.640625 428.441406 Z M 1107.304688 609.628906 L 1107.304688 505.441406 C 1107.304688 496.46875 1100.027344 489.195312 1091.058594 489.195312 L 614.121094 489.195312 C 607.09375 489.195312 600.445312 488.648438 594.292969 487.445312 L 594.140625 509.078125 L 888.648438 509.078125 C 917.402344 509.078125 940.714844 532.386719 940.714844 561.144531 L 940.714844 609.628906 Z M 1082.746094 1071.625 L 1189.222656 692.535156 C 1192.359375 681.367188 1190.085938 669.371094 1183.078125 660.125 C 1176.074219 650.878906 1165.140625 645.449219 1153.539062 645.449219 L 614.164062 645.449219 C 605.566406 645.449219 597.503906 648.410156 591.109375 653.492188 C 585.265625 658.132812 580.8125 664.539062 578.597656 672.074219 L 461.308594 1071.625 L 1082.75 1071.625 Z M 395.46875 1071.625 L 423.976562 1071.625 L 521.265625 740.210938 L 451.511719 740.210938 C 441.625 740.210938 433.601562 732.1875 433.601562 722.304688 C 433.601562 712.417969 441.625 704.394531 451.511719 704.394531 L 531.78125 704.394531 L 544.230469 661.984375 C 548.578125 647.167969 557.339844 634.566406 568.828125 625.441406 C 581.410156 615.453125 597.257812 609.628906 614.164062 609.628906 L 904.894531 609.628906 L 904.894531 561.144531 C 904.894531 552.171875 897.621094 544.898438 888.648438 544.898438 L 411.714844 544.898438 C 402.742188 544.898438 395.46875 552.171875 395.46875 561.144531 Z M 936.535156 676.933594 L 942.894531 677.578125 L 948.855469 679.429688 L 954.238281 682.351562 L 958.90625 686.203125 L 962.753906 690.871094 L 965.675781 696.25 L 967.53125 702.214844 L 968.171875 708.574219 L 967.53125 714.933594 L 965.675781 720.894531 L 962.753906 726.277344 L 958.90625 730.945312 L 954.238281 734.796875 L 948.855469 737.714844 L 942.894531 739.570312 L 936.535156 740.210938 L 930.175781 739.570312 L 924.210938 737.714844 L 918.832031 734.796875 L 914.164062 730.945312 L 910.3125 726.277344 L 907.390625 720.894531 L 905.539062 714.933594 L 904.894531 708.574219 L 905.539062 702.214844 L 907.390625 696.25 L 910.3125 690.871094 L 914.164062 686.203125 L 918.832031 682.351562 L 924.210938 679.429688 L 930.175781 677.578125 Z M 936.535156 712.753906 C 938.839844 712.753906 940.714844 710.878906 940.714844 708.574219 C 940.714844 706.265625 938.839844 704.394531 936.535156 704.394531 C 934.226562 704.394531 932.355469 706.265625 932.355469 708.574219 C 932.355469 710.878906 934.226562 712.753906 936.535156 712.753906 Z M 936.535156 712.753906 " fill-opacity="1" fill-rule="evenodd"/></g><g clip-path="url(#013fb59ae9)"><g clip-path="url(#fd91888242)"><g transform="matrix(1, 0, 0, 1, 513, 1036)"><g clip-path="url(#6b4a92706c)"><g clip-path="url(#c3354c9235)"><g clip-path="url(#7a8e87b0f6)"><path fill="#ffffff" d="M 407.394531 8.765625 L 405.328125 104.605469 L 0.636719 95.882812 L 2.703125 0.046875 Z M 407.394531 8.765625 " fill-opacity="1" fill-rule="nonzero"/></g></g></g></g></g></g></svg>