<svg xmlns="http://www.w3.org/2000/svg" xmlns:xlink="http://www.w3.org/1999/xlink" width="2000" zoomAndPan="magnify" viewBox="0 0 1500 1499.999933" height="2000" preserveAspectRatio="xMidYMid meet" version="1.0"><defs><clipPath id="7bec116138"><path d="M 367.753906 335.078125 L 1132.003906 335.078125 L 1132.003906 1164.578125 L 367.753906 1164.578125 Z M 367.753906 335.078125 " clip-rule="nonzero"/></clipPath><clipPath id="d09315678b"><path d="M 598 783 L 786 783 L 786 985 L 598 985 Z M 598 783 " clip-rule="nonzero"/></clipPath><clipPath id="d282155137"><path d="M 744.03125 783.398438 L 785.710938 820.320312 L 640.222656 984.554688 L 598.542969 947.628906 Z M 744.03125 783.398438 " clip-rule="nonzero"/></clipPath><clipPath id="36d6dc5633"><path d="M 0.320312 0.359375 L 187.761719 0.359375 L 187.761719 201.71875 L 0.320312 201.71875 Z M 0.320312 0.359375 " clip-rule="nonzero"/></clipPath><clipPath id="61158224d3"><path d="M 146.03125 0.398438 L 187.710938 37.320312 L 42.222656 201.554688 L 0.542969 164.628906 Z M 146.03125 0.398438 " clip-rule="nonzero"/></clipPath><clipPath id="495148ebc6"><rect x="0" width="188" y="0" height="202"/></clipPath></defs><g clip-path="url(#7bec116138)"><path fill="#33f6bd" d="M 430.535156 1107.214844 C 425.3125 1103.941406 422.304688 1100.019531 416.382812 1096.265625 C 418.695312 1087.242188 452.625 1008.75 456.136719 1005.136719 C 460.902344 1010.601562 465.640625 1013.222656 469.949219 1016.496094 L 511.410156 1055.019531 C 503.082031 1062.792969 435.492188 1102.835938 430.535156 1107.214844 Z M 534.339844 1037.140625 C 524.066406 1030.238281 496.058594 1003.765625 487.296875 995.03125 C 481.5 989.234375 476.664062 987.285156 471.222656 981.460938 C 473.4375 976.648438 474.714844 975.78125 478.78125 972.003906 L 599.382812 841.4375 C 604.941406 836.191406 611.34375 829.933594 615.339844 824.472656 C 624.9375 811.308594 637.1875 802.238281 647.125 788.980469 L 703.578125 727.449219 C 706.273438 724.851562 709.0625 722.058594 711.710938 719.125 C 717.4375 712.820312 723.429688 707.285156 727.542969 700.597656 C 734.066406 703.003906 751.269531 722.855469 759.5 731.058594 C 764.121094 735.65625 787.269531 759.019531 790.277344 760.730469 C 787.148438 763.304688 784.671875 765.710938 782.335938 769.199219 L 766.765625 786.5 C 762.292969 790.59375 762.820312 791.507812 759.210938 795.453125 L 726.101562 829.574219 C 720.324219 835.085938 717.003906 840.402344 710.507812 846.898438 C 697.273438 860.132812 695.46875 865.402344 678.769531 881.070312 C 666.0625 893.003906 670.464844 892.1875 662.816406 899.382812 C 660.046875 902.003906 657.183594 904.578125 654.296875 907.347656 C 650.808594 910.691406 650.277344 912.6875 646.644531 916.175781 C 635.308594 927.078125 624.433594 940.84375 615.144531 950.5625 L 603.019531 963.148438 C 600.324219 966.132812 601.261719 965.746094 598.976562 968.707031 C 593.609375 975.660156 579.386719 987.597656 574.335938 993.421875 C 571.183594 997.054688 570.507812 998.617188 566.875 1002.46875 C 563.265625 1006.316406 563.480469 1007.714844 559.464844 1011.492188 L 534.34375 1037.144531 Z M 814.316406 744.390625 C 806.832031 735.558594 784.5 716.527344 775.070312 707.261719 C 768.332031 700.644531 738.855469 672.777344 735.941406 668.015625 L 771.773438 632.328125 C 784.042969 619.960938 795.378906 607.785156 807.988281 595.800781 L 880.273438 523.972656 C 892.519531 512.351562 903.519531 499.667969 915.71875 488.070312 L 970.484375 434.410156 C 977.367188 427.625 978.304688 423.125 989.421875 417.710938 C 1008.214844 408.566406 1031.796875 414.800781 1043.613281 426.347656 C 1054.730469 437.226562 1063.539062 458.929688 1055.402344 479.601562 C 1048.882812 496.179688 1035.769531 501.160156 1022.964844 519.90625 L 988.242188 556.507812 C 982.035156 563.269531 977.078125 568.996094 971.253906 575.179688 L 867.183594 687.914062 C 863.40625 691.933594 862.464844 694.097656 859.21875 697.828125 L 832.121094 725.597656 C 827.984375 731.109375 819.441406 740.46875 814.316406 744.390625 Z M 1041.496094 392.15625 C 1045.441406 389.097656 1048.59375 384.527344 1052.636719 380.703125 C 1057.015625 376.539062 1060.242188 371.414062 1063.753906 368.5 C 1073.523438 360.367188 1088.058594 360.585938 1096.746094 369.128906 C 1116.453125 388.523438 1098.234375 401.660156 1087.578125 412.898438 C 1084.542969 416.097656 1079.492188 421.535156 1076.433594 423.871094 C 1069.699219 416.433594 1073.378906 418.046875 1060.433594 405.414062 C 1053.625 398.75 1048.015625 397.449219 1041.496094 392.15625 Z M 708.992188 681.730469 L 697.320312 695.109375 C 692.4375 699.96875 688.488281 703.675781 684.207031 708.105469 L 672.246094 722.179688 C 668.492188 726.441406 663.101562 730.769531 659.179688 735.222656 L 647.773438 748.480469 C 642.746094 753.414062 639.785156 757.023438 634.996094 761.789062 C 632.132812 764.628906 631.4375 764.53125 628.863281 767.972656 L 592.597656 808.589844 C 579.726562 823.726562 561.53125 841.027344 547.671875 855.632812 C 543.148438 860.398438 540.910156 864.753906 535.761719 869.832031 C 517.90625 887.421875 504.382812 905.277344 486.070312 923.058594 C 479.476562 929.460938 478.058594 933.046875 474.015625 937.015625 C 456.234375 954.4375 440.519531 972.21875 429.332031 995.320312 C 415.0625 1024.796875 402.789062 1054.058594 390.925781 1085.941406 C 388.664062 1092.03125 385.800781 1099.058594 384.597656 1105.675781 C 380.410156 1128.796875 394.777344 1115.011719 370.929688 1141.382812 C 361.59375 1151.707031 372.515625 1184.214844 401.851562 1147.566406 C 408.25 1139.53125 410.25 1144.585938 421.460938 1141.238281 C 445.863281 1133.996094 522.261719 1083.175781 548.46875 1062.289062 C 556.144531 1056.175781 554.988281 1054.5625 560.929688 1048.691406 L 698.019531 901.691406 C 702.710938 896.757812 705.476562 891.847656 710.027344 887.589844 L 753.171875 841.558594 C 756.105469 838.261719 756.492188 836.792969 759.113281 833.761719 C 766.476562 825.292969 777.355469 816.4375 785.007812 807.507812 C 790.660156 800.964844 805.460938 780.292969 811.886719 779.378906 C 813.402344 779.164062 814.074219 779.113281 815.617188 778.921875 C 827.71875 777.382812 836.933594 762.171875 844.515625 753.078125 L 920.144531 672.296875 C 925.464844 665.777344 928.855469 661.976562 934.632812 655.214844 C 951.835938 635.097656 975.949219 610.984375 994.574219 590.265625 C 1004.917969 578.765625 1014.328125 569.140625 1024.914062 557.492188 C 1031.75 549.960938 1049.050781 527.582031 1056.078125 524.71875 C 1064.765625 566.78125 1047.199219 583.457031 1021.765625 609.230469 C 1011.367188 619.769531 1001.238281 629.488281 990.625 639.8125 L 959.632812 671.984375 C 943.199219 689.429688 910.398438 717.222656 899.644531 735.488281 C 895.191406 743.042969 878.804688 768.910156 885.277344 780.894531 C 888.648438 787.078125 903.15625 789.050781 907.898438 782.171875 C 910.136719 778.945312 914.226562 765.445312 917.328125 760.007812 C 932.921875 732.769531 955.132812 716.789062 975.296875 694.507812 C 989.976562 678.265625 1006.652344 663.585938 1021.332031 647.175781 C 1049.074219 616.160156 1078.480469 601.289062 1085.050781 554.4375 C 1088.441406 530.0625 1082.160156 523.035156 1076.410156 503.328125 C 1074.796875 497.816406 1081.535156 488.863281 1083.582031 481.5 C 1086.925781 469.46875 1085.3125 464.03125 1085.84375 452.074219 C 1093.398438 446.609375 1123.792969 416.53125 1127.882812 406.546875 C 1149.898438 352.691406 1080.308594 301.316406 1029.847656 364.796875 C 1025.445312 370.355469 1013.414062 384.457031 1006.460938 385.515625 C 987.957031 388.28125 979.125 390.6875 963.773438 401.636719 L 719.265625 645.707031 C 716.5 648.789062 715.25 650.738281 712.242188 653.769531 C 705.070312 661.011719 697.609375 666.234375 705.308594 676.75 Z M 708.992188 681.730469 " fill-opacity="1" fill-rule="evenodd"/></g><g clip-path="url(#d09315678b)"><g clip-path="url(#d282155137)"><g transform="matrix(1, 0, 0, 1, 598, 783)"><g clip-path="url(#495148ebc6)"><g clip-path="url(#36d6dc5633)"><g clip-path="url(#61158224d3)"><path fill="#ffffff" d="M 146.03125 0.398438 L 187.710938 37.320312 L 42.183594 201.597656 L 0.503906 164.671875 Z M 146.03125 0.398438 " fill-opacity="1" fill-rule="nonzero"/></g></g></g></g></g></g></svg>