<svg xmlns="http://www.w3.org/2000/svg" xmlns:xlink="http://www.w3.org/1999/xlink" width="2000" zoomAndPan="magnify" viewBox="0 0 1500 1499.999933" height="2000" preserveAspectRatio="xMidYMid meet" version="1.0"><defs><clipPath id="51869088fb"><path d="M 459 293.917969 L 1041 293.917969 L 1041 1205.917969 L 459 1205.917969 Z M 459 293.917969 " clip-rule="nonzero"/></clipPath><clipPath id="5088bdac0c"><path d="M 838 604 L 1024 604 L 1024 809 L 838 809 Z M 838 604 " clip-rule="nonzero"/></clipPath><clipPath id="3433767cd4"><path d="M 948.769531 604.347656 L 1023.714844 660.023438 L 913.613281 808.226562 L 838.671875 752.554688 Z M 948.769531 604.347656 " clip-rule="nonzero"/></clipPath><clipPath id="dc069cfdc4"><path d="M 0.558594 0.320312 L 185.839844 0.320312 L 185.839844 204.320312 L 0.558594 204.320312 Z M 0.558594 0.320312 " clip-rule="nonzero"/></clipPath><clipPath id="56fdd924b5"><path d="M 110.769531 0.347656 L 185.714844 56.023438 L 75.613281 204.226562 L 0.671875 148.554688 Z M 110.769531 0.347656 " clip-rule="nonzero"/></clipPath><clipPath id="6c8d5ffcdf"><rect x="0" width="186" y="0" height="205"/></clipPath></defs><g clip-path="url(#51869088fb)"><path fill="#33f6bd" d="M 760.347656 1207.304688 C 705.621094 1207.304688 661.246094 1162.929688 661.246094 1108.199219 C 661.246094 1054.210938 705.621094 1010.328125 760.347656 1010.328125 C 812.859375 1010.328125 857.234375 1055.195312 857.234375 1108.199219 C 857.234375 1162.929688 813.847656 1207.304688 760.347656 1207.304688 Z M 760.347656 1059.632812 C 732.984375 1059.632812 710.550781 1081.574219 710.550781 1108.199219 C 710.550781 1136.058594 732.492188 1158 760.347656 1158 C 785.988281 1158 807.929688 1135.070312 807.929688 1108.199219 C 807.929688 1081.820312 786.234375 1059.632812 760.347656 1059.632812 Z M 761.582031 956.832031 C 703.402344 956.832031 671.847656 910.730469 671.847656 867.097656 C 671.847656 768.238281 733.476562 714.25 787.714844 666.914062 C 830.117188 629.691406 866.847656 597.640625 866.847656 550.308594 C 866.847656 501.988281 826.910156 450.710938 753.199219 450.710938 C 718.441406 450.710938 690.582031 461.3125 670.121094 482.019531 C 647.441406 504.945312 635.359375 539.460938 636.097656 579.398438 C 636.097656 623.527344 608.488281 670.613281 547.597656 670.613281 C 486.703125 670.859375 459.09375 623.773438 459.09375 579.890625 C 459.09375 394.257812 610.707031 293.917969 753.445312 293.917969 C 917.140625 293.917969 1040.652344 405.597656 1040.652344 553.757812 C 1040.652344 659.765625 977.785156 712.03125 927.003906 754.1875 C 884.847656 789.441406 851.316406 817.050781 851.316406 867.097656 C 851.316406 910.730469 819.761719 956.832031 761.582031 956.832031 Z M 753.445312 401.40625 C 855.507812 401.40625 916.402344 477.089844 916.402344 550.308594 C 916.402344 619.828125 867.589844 662.722656 820.253906 703.894531 C 769.222656 748.515625 721.152344 790.425781 721.152344 867.097656 C 721.152344 886.570312 733.722656 907.527344 761.582031 907.527344 C 789.441406 907.527344 802.011719 886.570312 802.011719 867.097656 C 802.011719 794.125 849.59375 754.433594 895.445312 716.222656 C 944.753906 675.296875 991.347656 636.59375 991.347656 553.757812 C 991.347656 415.457031 871.78125 343.226562 753.445312 343.226562 C 631.660156 343.226562 508.398438 424.578125 508.398438 579.890625 C 508.398438 589.753906 511.109375 621.554688 547.597656 621.554688 C 584.082031 621.554688 586.792969 589.753906 586.792969 579.890625 C 586.054688 526.886719 603.3125 479.800781 635.113281 447.507812 C 664.695312 417.429688 705.621094 401.40625 753.445312 401.40625 Z M 753.445312 401.40625 " fill-opacity="1" fill-rule="nonzero"/></g><g clip-path="url(#5088bdac0c)"><g clip-path="url(#3433767cd4)"><g transform="matrix(1, 0, 0, 1, 838, 604)"><g clip-path="url(#6c8d5ffcdf)"><g clip-path="url(#dc069cfdc4)"><g clip-path="url(#56fdd924b5)"><path fill="#ffffff" d="M 110.769531 0.347656 L 185.714844 56.023438 L 75.667969 204.15625 L 0.722656 148.480469 Z M 110.769531 0.347656 " fill-opacity="1" fill-rule="nonzero"/></g></g></g></g></g></g></svg>