<svg xmlns="http://www.w3.org/2000/svg" xmlns:xlink="http://www.w3.org/1999/xlink" width="2000" zoomAndPan="magnify" viewBox="0 0 1500 1499.999933" height="2000" preserveAspectRatio="xMidYMid meet" version="1.0"><defs><clipPath id="7a8feb20c0"><path d="M 348.4375 348.4375 L 1151.6875 348.4375 L 1151.6875 1151.6875 L 348.4375 1151.6875 Z M 348.4375 348.4375 " clip-rule="nonzero"/></clipPath><clipPath id="40b15d7d65"><path d="M 444.195312 670.980469 L 487.945312 670.980469 L 487.945312 955.804688 L 444.195312 955.804688 Z M 444.195312 670.980469 " clip-rule="nonzero"/></clipPath><clipPath id="0c39f9ac78"><path d="M 0.195312 0.980469 L 43.945312 0.980469 L 43.945312 285.804688 L 0.195312 285.804688 Z M 0.195312 0.980469 " clip-rule="nonzero"/></clipPath><clipPath id="94b789af8f"><rect x="0" width="44" y="0" height="286"/></clipPath></defs><g clip-path="url(#7a8feb20c0)"><path fill="#33f6bd" d="M 1138.257812 1124.789062 L 1124.871094 1124.789062 L 1124.871094 897.238281 C 1124.871094 896.359375 1124.785156 895.488281 1124.613281 894.625 C 1124.441406 893.761719 1124.1875 892.925781 1123.851562 892.113281 C 1123.515625 891.300781 1123.105469 890.53125 1122.617188 889.800781 C 1122.128906 889.070312 1121.574219 888.394531 1120.949219 887.773438 C 1120.328125 887.152344 1119.652344 886.59375 1118.921875 886.105469 C 1118.191406 885.617188 1117.421875 885.207031 1116.609375 884.871094 C 1115.796875 884.535156 1114.960938 884.28125 1114.097656 884.109375 C 1113.234375 883.9375 1112.363281 883.851562 1111.484375 883.851562 L 1031.175781 883.851562 C 1030.296875 883.851562 1029.425781 883.9375 1028.5625 884.109375 C 1027.699219 884.28125 1026.863281 884.535156 1026.050781 884.871094 C 1025.238281 885.207031 1024.46875 885.617188 1023.738281 886.105469 C 1023.007812 886.59375 1022.332031 887.152344 1021.710938 887.773438 C 1021.085938 888.394531 1020.53125 889.070312 1020.042969 889.800781 C 1019.554688 890.53125 1019.144531 891.300781 1018.808594 892.113281 C 1018.472656 892.925781 1018.21875 893.761719 1018.046875 894.625 C 1017.875 895.488281 1017.789062 896.359375 1017.789062 897.238281 L 1017.789062 1124.789062 L 964.246094 1124.789062 L 964.246094 361.824219 C 964.246094 360.945312 964.160156 360.074219 963.988281 359.210938 C 963.820312 358.347656 963.566406 357.511719 963.226562 356.699219 C 962.890625 355.886719 962.480469 355.117188 961.992188 354.386719 C 961.503906 353.65625 960.949219 352.980469 960.328125 352.359375 C 959.707031 351.738281 959.027344 351.179688 958.296875 350.691406 C 957.566406 350.203125 956.796875 349.792969 955.984375 349.457031 C 955.171875 349.121094 954.335938 348.867188 953.472656 348.695312 C 952.609375 348.523438 951.742188 348.4375 950.863281 348.4375 L 870.550781 348.4375 C 869.671875 348.4375 868.800781 348.523438 867.9375 348.695312 C 867.078125 348.867188 866.238281 349.121094 865.425781 349.457031 C 864.617188 349.792969 863.84375 350.203125 863.113281 350.691406 C 862.382812 351.179688 861.707031 351.738281 861.085938 352.359375 C 860.464844 352.980469 859.910156 353.65625 859.421875 354.386719 C 858.933594 355.117188 858.519531 355.886719 858.183594 356.699219 C 857.847656 357.511719 857.59375 358.347656 857.421875 359.210938 C 857.25 360.074219 857.164062 360.945312 857.164062 361.824219 L 857.164062 709.84375 C 857.164062 710.722656 857.25 711.589844 857.421875 712.453125 C 857.59375 713.316406 857.847656 714.152344 858.183594 714.964844 C 858.519531 715.777344 858.933594 716.546875 859.421875 717.277344 C 859.910156 718.007812 860.464844 718.683594 861.085938 719.308594 C 861.707031 719.929688 862.382812 720.484375 863.113281 720.972656 C 863.84375 721.460938 864.617188 721.871094 865.425781 722.207031 C 866.238281 722.542969 867.078125 722.796875 867.9375 722.96875 C 868.800781 723.140625 869.671875 723.226562 870.550781 723.226562 C 871.429688 723.226562 872.300781 723.140625 873.160156 722.96875 C 874.023438 722.796875 874.859375 722.542969 875.671875 722.207031 C 876.484375 721.871094 877.253906 721.460938 877.984375 720.972656 C 878.71875 720.484375 879.394531 719.929688 880.015625 719.308594 C 880.636719 718.683594 881.191406 718.007812 881.679688 717.277344 C 882.167969 716.546875 882.578125 715.777344 882.917969 714.964844 C 883.253906 714.152344 883.507812 713.316406 883.679688 712.453125 C 883.847656 711.589844 883.933594 710.722656 883.933594 709.84375 L 883.933594 375.207031 L 937.476562 375.207031 L 937.476562 1124.789062 L 883.933594 1124.789062 L 883.933594 816.925781 C 883.933594 816.046875 883.847656 815.175781 883.679688 814.3125 C 883.507812 813.453125 883.253906 812.613281 882.917969 811.800781 C 882.578125 810.992188 882.167969 810.21875 881.679688 809.488281 C 881.191406 808.757812 880.636719 808.082031 880.015625 807.460938 C 879.394531 806.839844 878.71875 806.285156 877.984375 805.796875 C 877.253906 805.308594 876.484375 804.894531 875.671875 804.558594 C 874.859375 804.222656 874.023438 803.96875 873.160156 803.796875 C 872.300781 803.625 871.429688 803.539062 870.550781 803.539062 C 869.671875 803.539062 868.800781 803.625 867.9375 803.796875 C 867.078125 803.96875 866.238281 804.222656 865.425781 804.558594 C 864.617188 804.894531 863.84375 805.308594 863.113281 805.796875 C 862.382812 806.285156 861.707031 806.839844 861.085938 807.460938 C 860.464844 808.082031 859.910156 808.757812 859.421875 809.488281 C 858.933594 810.21875 858.519531 810.992188 858.183594 811.800781 C 857.847656 812.613281 857.59375 813.453125 857.421875 814.3125 C 857.25 815.175781 857.164062 816.046875 857.164062 816.925781 L 857.164062 1124.789062 L 803.625 1124.789062 L 803.625 509.0625 C 803.621094 508.183594 803.539062 507.3125 803.367188 506.449219 C 803.195312 505.589844 802.941406 504.75 802.605469 503.9375 C 802.269531 503.128906 801.855469 502.355469 801.367188 501.625 C 800.878906 500.894531 800.324219 500.21875 799.703125 499.597656 C 799.082031 498.976562 798.40625 498.421875 797.675781 497.933594 C 796.945312 497.445312 796.171875 497.03125 795.359375 496.695312 C 794.546875 496.359375 793.710938 496.105469 792.847656 495.933594 C 791.988281 495.761719 791.117188 495.675781 790.238281 495.675781 L 709.925781 495.675781 C 709.046875 495.675781 708.175781 495.761719 707.3125 495.933594 C 706.453125 496.105469 705.617188 496.359375 704.804688 496.695312 C 703.992188 497.03125 703.21875 497.445312 702.488281 497.933594 C 701.757812 498.421875 701.082031 498.976562 700.460938 499.597656 C 699.839844 500.21875 699.285156 500.894531 698.796875 501.625 C 698.308594 502.355469 697.894531 503.128906 697.558594 503.9375 C 697.222656 504.75 696.96875 505.589844 696.796875 506.449219 C 696.625 507.3125 696.539062 508.183594 696.539062 509.0625 L 696.539062 1124.789062 L 643 1124.789062 L 643 763.382812 C 643 762.503906 642.914062 761.632812 642.742188 760.773438 C 642.570312 759.910156 642.316406 759.074219 641.980469 758.261719 C 641.644531 757.449219 641.230469 756.675781 640.742188 755.945312 C 640.253906 755.214844 639.699219 754.539062 639.078125 753.917969 C 638.457031 753.296875 637.78125 752.742188 637.050781 752.253906 C 636.320312 751.765625 635.546875 751.351562 634.734375 751.015625 C 633.925781 750.679688 633.085938 750.425781 632.226562 750.253906 C 631.363281 750.082031 630.492188 749.996094 629.613281 749.996094 L 549.300781 749.996094 C 548.421875 749.996094 547.550781 750.082031 546.691406 750.253906 C 545.828125 750.425781 544.992188 750.679688 544.179688 751.015625 C 543.367188 751.351562 542.59375 751.765625 541.863281 752.253906 C 541.132812 752.742188 540.457031 753.296875 539.835938 753.917969 C 539.214844 754.539062 538.660156 755.214844 538.171875 755.945312 C 537.683594 756.675781 537.269531 757.449219 536.933594 758.261719 C 536.597656 759.074219 536.34375 759.910156 536.171875 760.773438 C 536 761.632812 535.917969 762.503906 535.917969 763.382812 L 535.917969 1124.789062 L 482.375 1124.789062 L 482.375 629.53125 C 482.375 628.652344 482.289062 627.78125 482.117188 626.917969 C 481.945312 626.054688 481.691406 625.21875 481.355469 624.40625 C 481.019531 623.59375 480.605469 622.824219 480.117188 622.09375 C 479.628906 621.363281 479.074219 620.6875 478.453125 620.066406 C 477.832031 619.445312 477.15625 618.886719 476.425781 618.398438 C 475.695312 617.910156 474.921875 617.5 474.113281 617.164062 C 473.300781 616.828125 472.460938 616.574219 471.601562 616.402344 C 470.738281 616.230469 469.867188 616.144531 468.988281 616.144531 L 388.675781 616.144531 C 387.796875 616.144531 386.929688 616.230469 386.066406 616.402344 C 385.203125 616.574219 384.367188 616.828125 383.554688 617.164062 C 382.742188 617.5 381.972656 617.910156 381.242188 618.398438 C 380.511719 618.886719 379.832031 619.445312 379.210938 620.066406 C 378.589844 620.6875 378.035156 621.363281 377.546875 622.09375 C 377.058594 622.824219 376.648438 623.59375 376.3125 624.40625 C 375.972656 625.21875 375.71875 626.054688 375.550781 626.917969 C 375.378906 627.78125 375.292969 628.652344 375.292969 629.53125 L 375.292969 1124.789062 L 361.90625 1124.789062 C 361.027344 1124.789062 360.15625 1124.875 359.296875 1125.046875 C 358.433594 1125.214844 357.597656 1125.46875 356.785156 1125.804688 C 355.972656 1126.144531 355.199219 1126.554688 354.46875 1127.042969 C 353.738281 1127.53125 353.0625 1128.085938 352.441406 1128.707031 C 351.820312 1129.328125 351.265625 1130.003906 350.777344 1130.738281 C 350.289062 1131.46875 349.875 1132.238281 349.539062 1133.050781 C 349.203125 1133.863281 348.949219 1134.699219 348.777344 1135.5625 C 348.605469 1136.421875 348.519531 1137.292969 348.519531 1138.171875 C 348.519531 1139.050781 348.605469 1139.921875 348.777344 1140.785156 C 348.949219 1141.644531 349.203125 1142.484375 349.539062 1143.296875 C 349.875 1144.105469 350.289062 1144.878906 350.777344 1145.609375 C 351.265625 1146.339844 351.820312 1147.015625 352.441406 1147.636719 C 353.0625 1148.257812 353.738281 1148.8125 354.46875 1149.300781 C 355.199219 1149.789062 355.972656 1150.203125 356.785156 1150.539062 C 357.597656 1150.875 358.433594 1151.128906 359.296875 1151.300781 C 360.15625 1151.472656 361.027344 1151.558594 361.90625 1151.558594 L 1138.257812 1151.558594 C 1139.136719 1151.558594 1140.007812 1151.472656 1140.867188 1151.300781 C 1141.730469 1151.128906 1142.566406 1150.875 1143.378906 1150.539062 C 1144.191406 1150.203125 1144.960938 1149.789062 1145.691406 1149.300781 C 1146.425781 1148.8125 1147.101562 1148.257812 1147.722656 1147.636719 C 1148.34375 1147.015625 1148.898438 1146.339844 1149.386719 1145.609375 C 1149.875 1144.878906 1150.285156 1144.105469 1150.625 1143.296875 C 1150.960938 1142.484375 1151.214844 1141.644531 1151.386719 1140.785156 C 1151.554688 1139.921875 1151.640625 1139.050781 1151.640625 1138.171875 C 1151.640625 1137.292969 1151.554688 1136.421875 1151.386719 1135.5625 C 1151.214844 1134.699219 1150.960938 1133.863281 1150.625 1133.050781 C 1150.285156 1132.238281 1149.875 1131.46875 1149.386719 1130.738281 C 1148.898438 1130.003906 1148.34375 1129.328125 1147.722656 1128.707031 C 1147.101562 1128.085938 1146.425781 1127.53125 1145.691406 1127.042969 C 1144.960938 1126.554688 1144.191406 1126.144531 1143.378906 1125.804688 C 1142.566406 1125.46875 1141.730469 1125.214844 1140.867188 1125.046875 C 1140.007812 1124.875 1139.136719 1124.789062 1138.257812 1124.789062 Z M 455.605469 1124.789062 L 402.0625 1124.789062 L 402.0625 642.914062 L 455.605469 642.914062 Z M 616.226562 1124.789062 L 562.6875 1124.789062 L 562.6875 776.769531 L 616.226562 776.769531 Z M 776.851562 1124.789062 L 723.3125 1124.789062 L 723.3125 522.445312 L 776.851562 522.445312 Z M 1098.101562 1124.789062 L 1044.558594 1124.789062 L 1044.558594 910.621094 L 1098.101562 910.621094 Z M 1098.101562 1124.789062 " fill-opacity="1" fill-rule="nonzero"/></g><path fill="#33f6bd" d="M 883.933594 763.382812 C 883.933594 764.261719 883.847656 765.132812 883.679688 765.996094 C 883.507812 766.855469 883.253906 767.695312 882.917969 768.503906 C 882.578125 769.316406 882.167969 770.089844 881.679688 770.820312 C 881.191406 771.550781 880.636719 772.226562 880.015625 772.847656 C 879.394531 773.46875 878.71875 774.023438 877.984375 774.511719 C 877.253906 775 876.484375 775.414062 875.671875 775.75 C 874.859375 776.085938 874.023438 776.339844 873.160156 776.511719 C 872.300781 776.683594 871.429688 776.769531 870.550781 776.769531 C 869.671875 776.769531 868.800781 776.683594 867.9375 776.511719 C 867.078125 776.339844 866.238281 776.085938 865.425781 775.75 C 864.617188 775.414062 863.84375 775 863.113281 774.511719 C 862.382812 774.023438 861.707031 773.46875 861.085938 772.847656 C 860.464844 772.226562 859.910156 771.550781 859.421875 770.820312 C 858.933594 770.089844 858.519531 769.316406 858.183594 768.503906 C 857.847656 767.695312 857.59375 766.855469 857.421875 765.996094 C 857.25 765.132812 857.164062 764.261719 857.164062 763.382812 C 857.164062 762.503906 857.25 761.632812 857.421875 760.773438 C 857.59375 759.910156 857.847656 759.074219 858.183594 758.261719 C 858.519531 757.449219 858.933594 756.675781 859.421875 755.945312 C 859.910156 755.214844 860.464844 754.539062 861.085938 753.917969 C 861.707031 753.296875 862.382812 752.742188 863.113281 752.253906 C 863.84375 751.765625 864.617188 751.351562 865.425781 751.015625 C 866.238281 750.679688 867.078125 750.425781 867.9375 750.253906 C 868.800781 750.082031 869.671875 749.996094 870.550781 749.996094 C 871.429688 749.996094 872.300781 750.082031 873.160156 750.253906 C 874.023438 750.425781 874.859375 750.679688 875.671875 751.015625 C 876.484375 751.351562 877.253906 751.765625 877.984375 752.253906 C 878.71875 752.742188 879.394531 753.296875 880.015625 753.917969 C 880.636719 754.539062 881.191406 755.214844 881.679688 755.945312 C 882.167969 756.675781 882.578125 757.449219 882.917969 758.261719 C 883.253906 759.074219 883.507812 759.910156 883.679688 760.773438 C 883.847656 761.632812 883.933594 762.503906 883.933594 763.382812 Z M 883.933594 763.382812 " fill-opacity="1" fill-rule="nonzero"/><g clip-path="url(#40b15d7d65)"><g transform="matrix(1, 0, 0, 1, 444, 670)"><g clip-path="url(#94b789af8f)"><g clip-path="url(#0c39f9ac78)"><path fill="#ffffff" d="M 0.195312 0.980469 L 43.945312 0.980469 L 43.945312 285.871094 L 0.195312 285.871094 Z M 0.195312 0.980469 " fill-opacity="1" fill-rule="nonzero"/></g></g></g></g></svg>