<svg xmlns="http://www.w3.org/2000/svg" xmlns:xlink="http://www.w3.org/1999/xlink" width="2000" zoomAndPan="magnify" viewBox="0 0 1500 1499.999933" height="2000" preserveAspectRatio="xMidYMid meet" version="1.0"><defs><clipPath id="c5e0f21c88"><path d="M 330.582031 330.582031 L 1169 330.582031 L 1169 1169 L 330.582031 1169 Z M 330.582031 330.582031 " clip-rule="nonzero"/></clipPath><clipPath id="3c91c9ff0f"><path d="M 315.179688 1095.089844 L 709.375 1095.089844 L 709.375 1243.75 L 315.179688 1243.75 Z M 315.179688 1095.089844 " clip-rule="nonzero"/></clipPath><clipPath id="377943624f"><path d="M 0.179688 0.0898438 L 394.375 0.0898438 L 394.375 148.75 L 0.179688 148.75 Z M 0.179688 0.0898438 " clip-rule="nonzero"/></clipPath><clipPath id="494a74a9e4"><rect x="0" width="395" y="0" height="149"/></clipPath></defs><path fill="#33f6bd" d="M 991.0625 412.953125 L 1021.292969 412.953125 C 1027.488281 412.953125 1032.625 407.8125 1032.625 401.617188 C 1032.625 395.417969 1027.488281 390.28125 1021.292969 390.28125 L 991.0625 390.28125 C 984.867188 390.28125 979.726562 395.417969 979.726562 401.617188 C 979.726562 407.8125 984.867188 412.953125 991.0625 412.953125 Z M 991.0625 412.953125 " fill-opacity="1" fill-rule="nonzero"/><path fill="#33f6bd" d="M 900.378906 412.953125 L 930.605469 412.953125 C 936.804688 412.953125 941.941406 407.8125 941.941406 401.617188 C 941.941406 395.417969 936.804688 390.28125 930.605469 390.28125 L 900.378906 390.28125 C 894.183594 390.28125 889.042969 395.417969 889.042969 401.617188 C 889.042969 407.8125 894.183594 412.953125 900.378906 412.953125 Z M 900.378906 412.953125 " fill-opacity="1" fill-rule="nonzero"/><g clip-path="url(#c5e0f21c88)"><path fill="#33f6bd" d="M 1127.089844 511.191406 L 1077.96875 511.191406 L 1077.96875 401.617188 C 1077.96875 362.015625 1045.777344 329.824219 1006.175781 329.824219 L 492.300781 329.824219 C 452.703125 329.824219 420.507812 362.015625 420.507812 401.617188 L 420.507812 511.191406 L 371.386719 511.191406 C 348.414062 511.191406 329.824219 529.78125 329.824219 552.757812 L 329.824219 855.035156 C 329.824219 878.011719 348.414062 896.601562 371.386719 896.601562 L 420.507812 896.601562 L 420.507812 934.386719 L 371.386719 934.386719 C 348.414062 934.386719 329.824219 952.976562 329.824219 975.949219 L 329.824219 1036.40625 C 329.824219 1059.378906 348.414062 1077.96875 371.386719 1077.96875 L 420.507812 1077.96875 L 420.507812 1096.859375 C 420.507812 1136.460938 452.703125 1168.652344 492.300781 1168.652344 L 1006.175781 1168.652344 C 1045.777344 1168.652344 1077.96875 1136.460938 1077.96875 1096.859375 L 1077.96875 836.144531 L 1127.089844 836.144531 C 1150.0625 836.144531 1168.652344 817.554688 1168.652344 794.582031 L 1168.652344 552.757812 C 1168.652344 529.78125 1150.0625 511.191406 1127.089844 511.191406 Z M 1145.980469 552.757812 L 1145.980469 794.582031 C 1145.980469 799.566406 1144.015625 803.953125 1140.84375 807.425781 L 944.964844 611.550781 C 929.246094 595.832031 901.890625 595.832031 886.171875 611.550781 L 839.921875 657.796875 L 823.902344 641.777344 C 808.183594 626.058594 780.828125 626.058594 765.109375 641.777344 L 654.625 752.261719 L 654.625 552.90625 C 654.625 542.480469 663.089844 534.015625 673.515625 534.015625 L 1126.9375 534.015625 C 1137.367188 534.015625 1145.832031 542.480469 1145.832031 552.90625 Z M 995.75 813.472656 L 855.945312 673.667969 L 902.191406 627.417969 C 909.597656 620.015625 921.539062 620.015625 928.945312 627.417969 L 1114.996094 813.472656 Z M 654.777344 784.152344 L 781.28125 657.648438 C 788.6875 650.242188 800.625 650.242188 808.03125 657.648438 L 963.859375 813.472656 L 673.820312 813.472656 C 663.390625 813.472656 654.925781 805.007812 654.925781 794.582031 L 654.925781 784.152344 Z M 1055.296875 401.617188 L 1055.296875 450.738281 L 595.226562 450.738281 L 693.46875 352.496094 L 1006.175781 352.496094 C 1033.230469 352.496094 1055.296875 374.5625 1055.296875 401.617188 Z M 492.300781 352.496094 L 661.425781 352.496094 L 563.183594 450.738281 L 443.179688 450.738281 L 443.179688 401.617188 C 443.179688 374.5625 465.246094 352.496094 492.300781 352.496094 Z M 352.496094 855.035156 L 352.496094 552.757812 C 352.496094 542.328125 360.960938 533.863281 371.386719 533.863281 L 522.527344 533.863281 C 532.957031 533.863281 541.421875 542.328125 541.421875 552.757812 L 541.421875 855.035156 C 541.421875 865.464844 532.957031 873.929688 522.527344 873.929688 L 371.386719 873.929688 C 360.960938 873.929688 352.496094 865.464844 352.496094 855.035156 Z M 352.496094 1036.40625 L 352.496094 975.949219 C 352.496094 965.519531 360.960938 957.054688 371.386719 957.054688 L 492.300781 957.054688 C 502.730469 957.054688 511.191406 965.519531 511.191406 975.949219 L 511.191406 1036.40625 C 511.191406 1046.832031 502.730469 1055.296875 492.300781 1055.296875 L 371.386719 1055.296875 C 360.960938 1055.296875 352.496094 1046.832031 352.496094 1036.40625 Z M 1055.296875 1096.859375 C 1055.296875 1123.914062 1033.230469 1145.980469 1006.175781 1145.980469 L 492.300781 1145.980469 C 465.246094 1145.980469 443.179688 1123.914062 443.179688 1096.859375 L 443.179688 1077.96875 L 492.300781 1077.96875 C 515.273438 1077.96875 533.863281 1059.378906 533.863281 1036.40625 L 533.863281 975.949219 C 533.863281 952.976562 515.273438 934.386719 492.300781 934.386719 L 443.179688 934.386719 L 443.179688 896.601562 L 522.527344 896.601562 C 545.5 896.601562 564.09375 878.011719 564.09375 855.035156 L 564.09375 552.757812 C 564.09375 529.78125 545.5 511.191406 522.527344 511.191406 L 443.179688 511.191406 L 443.179688 473.40625 L 1055.296875 473.40625 L 1055.296875 511.191406 L 673.667969 511.191406 C 650.695312 511.191406 632.105469 529.78125 632.105469 552.757812 L 632.105469 794.582031 C 632.105469 817.554688 650.695312 836.144531 673.667969 836.144531 L 1055.296875 836.144531 Z M 1055.296875 1096.859375 " fill-opacity="1" fill-rule="nonzero"/></g><path fill="#33f6bd" d="M 401.617188 594.320312 L 492.300781 594.320312 C 498.496094 594.320312 503.636719 589.179688 503.636719 582.984375 C 503.636719 576.789062 498.496094 571.648438 492.300781 571.648438 L 401.617188 571.648438 C 395.417969 571.648438 390.28125 576.789062 390.28125 582.984375 C 390.28125 589.179688 395.417969 594.320312 401.617188 594.320312 Z M 401.617188 594.320312 " fill-opacity="1" fill-rule="nonzero"/><path fill="#33f6bd" d="M 401.617188 654.777344 L 492.300781 654.777344 C 498.496094 654.777344 503.636719 649.636719 503.636719 643.441406 C 503.636719 637.242188 498.496094 632.105469 492.300781 632.105469 L 401.617188 632.105469 C 395.417969 632.105469 390.28125 637.242188 390.28125 643.441406 C 390.28125 649.636719 395.417969 654.777344 401.617188 654.777344 Z M 401.617188 654.777344 " fill-opacity="1" fill-rule="nonzero"/><path fill="#33f6bd" d="M 401.617188 715.230469 L 492.300781 715.230469 C 498.496094 715.230469 503.636719 710.09375 503.636719 703.898438 C 503.636719 697.699219 498.496094 692.5625 492.300781 692.5625 L 401.617188 692.5625 C 395.417969 692.5625 390.28125 697.699219 390.28125 703.898438 C 390.28125 710.09375 395.417969 715.230469 401.617188 715.230469 Z M 401.617188 715.230469 " fill-opacity="1" fill-rule="nonzero"/><path fill="#33f6bd" d="M 401.617188 775.6875 L 492.300781 775.6875 C 498.496094 775.6875 503.636719 770.550781 503.636719 764.351562 C 503.636719 758.15625 498.496094 753.015625 492.300781 753.015625 L 401.617188 753.015625 C 395.417969 753.015625 390.28125 758.15625 390.28125 764.351562 C 390.28125 770.550781 395.417969 775.6875 401.617188 775.6875 Z M 401.617188 775.6875 " fill-opacity="1" fill-rule="nonzero"/><path fill="#33f6bd" d="M 503.636719 824.808594 C 503.636719 818.613281 498.496094 813.472656 492.300781 813.472656 L 401.617188 813.472656 C 395.417969 813.472656 390.28125 818.613281 390.28125 824.808594 C 390.28125 831.003906 395.417969 836.144531 401.617188 836.144531 L 492.300781 836.144531 C 498.496094 836.144531 503.636719 831.003906 503.636719 824.808594 Z M 503.636719 824.808594 " fill-opacity="1" fill-rule="nonzero"/><path fill="#33f6bd" d="M 1025.070312 613.210938 C 1025.070312 636.1875 1043.660156 654.777344 1066.632812 654.777344 C 1089.605469 654.777344 1108.195312 636.1875 1108.195312 613.210938 C 1108.195312 590.238281 1089.605469 571.648438 1066.632812 571.648438 C 1043.660156 571.648438 1025.070312 590.238281 1025.070312 613.210938 Z M 1085.527344 613.210938 C 1085.527344 623.640625 1077.0625 632.105469 1066.632812 632.105469 C 1056.203125 632.105469 1047.742188 623.640625 1047.742188 613.210938 C 1047.742188 602.785156 1056.203125 594.320312 1066.632812 594.320312 C 1077.0625 594.320312 1085.527344 602.785156 1085.527344 613.210938 Z M 1085.527344 613.210938 " fill-opacity="1" fill-rule="nonzero"/><path fill="#33f6bd" d="M 843.703125 900.378906 C 843.703125 906.574219 848.839844 911.714844 855.035156 911.714844 L 1006.175781 911.714844 C 1012.375 911.714844 1017.511719 906.574219 1017.511719 900.378906 C 1017.511719 894.183594 1012.375 889.042969 1006.175781 889.042969 L 855.035156 889.042969 C 848.839844 889.042969 843.703125 894.183594 843.703125 900.378906 Z M 843.703125 900.378906 " fill-opacity="1" fill-rule="nonzero"/><path fill="#33f6bd" d="M 1006.175781 949.5 L 764.351562 949.5 C 758.15625 949.5 753.015625 954.636719 753.015625 960.835938 C 753.015625 967.03125 758.15625 972.171875 764.351562 972.171875 L 1006.175781 972.171875 C 1012.375 972.171875 1017.511719 967.03125 1017.511719 960.835938 C 1017.511719 954.636719 1012.375 949.5 1006.175781 949.5 Z M 1006.175781 949.5 " fill-opacity="1" fill-rule="nonzero"/><path fill="#33f6bd" d="M 1006.175781 1009.957031 L 764.351562 1009.957031 C 758.15625 1009.957031 753.015625 1015.09375 753.015625 1021.289062 C 753.015625 1027.488281 758.15625 1032.625 764.351562 1032.625 L 1006.175781 1032.625 C 1012.375 1032.625 1017.511719 1027.488281 1017.511719 1021.289062 C 1017.511719 1015.09375 1012.375 1009.957031 1006.175781 1009.957031 Z M 1006.175781 1009.957031 " fill-opacity="1" fill-rule="nonzero"/><path fill="#33f6bd" d="M 1006.175781 1070.410156 L 764.351562 1070.410156 C 758.15625 1070.410156 753.015625 1075.550781 753.015625 1081.746094 C 753.015625 1087.945312 758.15625 1093.082031 764.351562 1093.082031 L 1006.175781 1093.082031 C 1012.375 1093.082031 1017.511719 1087.945312 1017.511719 1081.746094 C 1017.511719 1075.550781 1012.375 1070.410156 1006.175781 1070.410156 Z M 1006.175781 1070.410156 " fill-opacity="1" fill-rule="nonzero"/><g clip-path="url(#3c91c9ff0f)"><g transform="matrix(1, 0, 0, 1, 315, 1095)"><g clip-path="url(#494a74a9e4)"><g clip-path="url(#377943624f)"><path fill="#ffffff" d="M 0.179688 0.0898438 L 394.476562 0.0898438 L 394.476562 148.75 L 0.179688 148.75 Z M 0.179688 0.0898438 " fill-opacity="1" fill-rule="nonzero"/></g></g></g></g></svg>