<svg xmlns="http://www.w3.org/2000/svg" xmlns:xlink="http://www.w3.org/1999/xlink" width="2000" zoomAndPan="magnify" viewBox="0 0 1500 1499.999933" height="2000" preserveAspectRatio="xMidYMid meet" version="1.0"><defs><clipPath id="49cfd46a03"><path d="M 261.796875 567 L 646 567 L 646 735 L 261.796875 735 Z M 261.796875 567 " clip-rule="nonzero"/></clipPath><clipPath id="b32d5ae0ed"><path d="M 261.796875 368.589844 L 887 368.589844 L 887 537 L 261.796875 537 Z M 261.796875 368.589844 " clip-rule="nonzero"/></clipPath><clipPath id="a094cc3219"><path d="M 610 437 L 1238.296875 437 L 1238.296875 1062 L 610 1062 Z M 610 437 " clip-rule="nonzero"/></clipPath><clipPath id="b5fcc6994d"><path d="M 261.796875 765 L 646 765 L 646 933 L 261.796875 933 Z M 261.796875 765 " clip-rule="nonzero"/></clipPath><clipPath id="c7797afece"><path d="M 261.796875 963 L 887 963 L 887 1131.339844 L 261.796875 1131.339844 Z M 261.796875 963 " clip-rule="nonzero"/></clipPath><clipPath id="f4fa10187a"><path d="M 516.890625 1067.183594 L 801.097656 1067.183594 L 801.097656 1156.347656 L 516.890625 1156.347656 Z M 516.890625 1067.183594 " clip-rule="nonzero"/></clipPath><clipPath id="91a31f092c"><path d="M 0.890625 0.183594 L 285.097656 0.183594 L 285.097656 89.347656 L 0.890625 89.347656 Z M 0.890625 0.183594 " clip-rule="nonzero"/></clipPath><clipPath id="366de76adc"><rect x="0" width="286" y="0" height="90"/></clipPath><clipPath id="9e538465a6"><path d="M 133.800781 492.132812 L 359.976562 492.132812 L 359.976562 550.046875 L 133.800781 550.046875 Z M 133.800781 492.132812 " clip-rule="nonzero"/></clipPath><clipPath id="bd6460e00d"><path d="M 0.800781 0.132812 L 226.976562 0.132812 L 226.976562 58.046875 L 0.800781 58.046875 Z M 0.800781 0.132812 " clip-rule="nonzero"/></clipPath><clipPath id="ec608b4d78"><rect x="0" width="227" y="0" height="59"/></clipPath></defs><path fill="#33f6bd" d="M 353.261719 452.726562 C 353.261719 453.730469 353.164062 454.71875 352.96875 455.703125 C 352.773438 456.683594 352.484375 457.636719 352.101562 458.5625 C 351.71875 459.484375 351.25 460.363281 350.691406 461.195312 C 350.136719 462.027344 349.503906 462.800781 348.796875 463.507812 C 348.089844 464.214844 347.320312 464.847656 346.488281 465.402344 C 345.652344 465.957031 344.777344 466.429688 343.851562 466.8125 C 342.925781 467.195312 341.972656 467.484375 340.992188 467.679688 C 340.007812 467.875 339.019531 467.972656 338.015625 467.972656 C 337.015625 467.972656 336.023438 467.875 335.042969 467.679688 C 334.0625 467.484375 333.109375 467.195312 332.183594 466.8125 C 331.257812 466.429688 330.378906 465.957031 329.546875 465.402344 C 328.714844 464.847656 327.945312 464.214844 327.238281 463.507812 C 326.53125 462.800781 325.898438 462.027344 325.34375 461.195312 C 324.785156 460.363281 324.316406 459.484375 323.933594 458.5625 C 323.550781 457.636719 323.261719 456.683594 323.066406 455.703125 C 322.871094 454.71875 322.773438 453.730469 322.773438 452.726562 C 322.773438 451.726562 322.871094 450.734375 323.066406 449.753906 C 323.261719 448.773438 323.550781 447.820312 323.933594 446.894531 C 324.316406 445.96875 324.785156 445.089844 325.34375 444.257812 C 325.898438 443.425781 326.53125 442.65625 327.238281 441.949219 C 327.945312 441.242188 328.714844 440.609375 329.546875 440.050781 C 330.378906 439.496094 331.257812 439.027344 332.183594 438.644531 C 333.109375 438.261719 334.0625 437.972656 335.042969 437.777344 C 336.023438 437.582031 337.015625 437.484375 338.015625 437.484375 C 339.019531 437.484375 340.007812 437.582031 340.992188 437.777344 C 341.972656 437.972656 342.925781 438.261719 343.851562 438.644531 C 344.777344 439.027344 345.652344 439.496094 346.488281 440.050781 C 347.320312 440.609375 348.089844 441.242188 348.796875 441.949219 C 349.503906 442.65625 350.136719 443.425781 350.691406 444.257812 C 351.25 445.089844 351.71875 445.96875 352.101562 446.894531 C 352.484375 447.820312 352.773438 448.773438 352.96875 449.753906 C 353.164062 450.734375 353.261719 451.726562 353.261719 452.726562 Z M 353.261719 452.726562 " fill-opacity="1" fill-rule="nonzero"/><path fill="#33f6bd" d="M 414.238281 452.726562 C 414.238281 453.730469 414.140625 454.71875 413.945312 455.703125 C 413.75 456.683594 413.460938 457.636719 413.078125 458.5625 C 412.695312 459.484375 412.226562 460.363281 411.671875 461.195312 C 411.113281 462.027344 410.480469 462.800781 409.773438 463.507812 C 409.066406 464.214844 408.296875 464.847656 407.464844 465.402344 C 406.632812 465.957031 405.753906 466.429688 404.828125 466.8125 C 403.902344 467.195312 402.949219 467.484375 401.96875 467.679688 C 400.988281 467.875 399.996094 467.972656 398.996094 467.972656 C 397.992188 467.972656 397.003906 467.875 396.019531 467.679688 C 395.039062 467.484375 394.085938 467.195312 393.160156 466.8125 C 392.238281 466.429688 391.359375 465.957031 390.527344 465.402344 C 389.691406 464.847656 388.921875 464.214844 388.214844 463.507812 C 387.507812 462.800781 386.875 462.027344 386.320312 461.195312 C 385.761719 460.363281 385.292969 459.484375 384.910156 458.5625 C 384.527344 457.636719 384.238281 456.683594 384.042969 455.703125 C 383.847656 454.71875 383.75 453.730469 383.75 452.726562 C 383.75 451.726562 383.847656 450.734375 384.042969 449.753906 C 384.238281 448.773438 384.527344 447.820312 384.910156 446.894531 C 385.292969 445.96875 385.761719 445.089844 386.320312 444.257812 C 386.875 443.425781 387.507812 442.65625 388.214844 441.949219 C 388.921875 441.242188 389.691406 440.609375 390.527344 440.050781 C 391.359375 439.496094 392.238281 439.027344 393.160156 438.644531 C 394.085938 438.261719 395.039062 437.972656 396.019531 437.777344 C 397.003906 437.582031 397.992188 437.484375 398.996094 437.484375 C 399.996094 437.484375 400.988281 437.582031 401.96875 437.777344 C 402.949219 437.972656 403.902344 438.261719 404.828125 438.644531 C 405.753906 439.027344 406.632812 439.496094 407.464844 440.050781 C 408.296875 440.609375 409.066406 441.242188 409.773438 441.949219 C 410.480469 442.65625 411.113281 443.425781 411.671875 444.257812 C 412.226562 445.089844 412.695312 445.96875 413.078125 446.894531 C 413.460938 447.820312 413.75 448.773438 413.945312 449.753906 C 414.140625 450.734375 414.238281 451.726562 414.238281 452.726562 Z M 414.238281 452.726562 " fill-opacity="1" fill-rule="nonzero"/><path fill="#33f6bd" d="M 353.261719 650.90625 C 353.261719 651.90625 353.164062 652.898438 352.96875 653.878906 C 352.773438 654.859375 352.484375 655.8125 352.101562 656.738281 C 351.71875 657.664062 351.25 658.542969 350.691406 659.375 C 350.136719 660.207031 349.503906 660.976562 348.796875 661.683594 C 348.089844 662.390625 347.320312 663.023438 346.488281 663.582031 C 345.652344 664.136719 344.777344 664.605469 343.851562 664.988281 C 342.925781 665.371094 341.972656 665.660156 340.992188 665.855469 C 340.007812 666.050781 339.019531 666.148438 338.015625 666.148438 C 337.015625 666.148438 336.023438 666.050781 335.042969 665.855469 C 334.0625 665.660156 333.109375 665.371094 332.183594 664.988281 C 331.257812 664.605469 330.378906 664.136719 329.546875 663.582031 C 328.714844 663.023438 327.945312 662.390625 327.238281 661.683594 C 326.53125 660.976562 325.898438 660.207031 325.34375 659.375 C 324.785156 658.542969 324.316406 657.664062 323.933594 656.738281 C 323.550781 655.8125 323.261719 654.859375 323.066406 653.878906 C 322.871094 652.898438 322.773438 651.90625 322.773438 650.90625 C 322.773438 649.902344 322.871094 648.914062 323.066406 647.929688 C 323.261719 646.949219 323.550781 645.996094 323.933594 645.070312 C 324.316406 644.148438 324.785156 643.269531 325.34375 642.4375 C 325.898438 641.605469 326.53125 640.832031 327.238281 640.125 C 327.945312 639.417969 328.714844 638.785156 329.546875 638.230469 C 330.378906 637.675781 331.257812 637.203125 332.183594 636.820312 C 333.109375 636.4375 334.0625 636.148438 335.042969 635.953125 C 336.023438 635.757812 337.015625 635.660156 338.015625 635.660156 C 339.019531 635.660156 340.007812 635.757812 340.992188 635.953125 C 341.972656 636.148438 342.925781 636.4375 343.851562 636.820312 C 344.777344 637.203125 345.652344 637.675781 346.488281 638.230469 C 347.320312 638.785156 348.089844 639.417969 348.796875 640.125 C 349.503906 640.832031 350.136719 641.605469 350.691406 642.4375 C 351.25 643.269531 351.71875 644.148438 352.101562 645.070312 C 352.484375 645.996094 352.773438 646.949219 352.96875 647.929688 C 353.164062 648.914062 353.261719 649.902344 353.261719 650.90625 Z M 353.261719 650.90625 " fill-opacity="1" fill-rule="nonzero"/><path fill="#33f6bd" d="M 414.238281 650.90625 C 414.238281 651.90625 414.140625 652.898438 413.945312 653.878906 C 413.75 654.859375 413.460938 655.8125 413.078125 656.738281 C 412.695312 657.664062 412.226562 658.542969 411.671875 659.375 C 411.113281 660.207031 410.480469 660.976562 409.773438 661.683594 C 409.066406 662.390625 408.296875 663.023438 407.464844 663.582031 C 406.632812 664.136719 405.753906 664.605469 404.828125 664.988281 C 403.902344 665.371094 402.949219 665.660156 401.96875 665.855469 C 400.988281 666.050781 399.996094 666.148438 398.996094 666.148438 C 397.992188 666.148438 397.003906 666.050781 396.019531 665.855469 C 395.039062 665.660156 394.085938 665.371094 393.160156 664.988281 C 392.238281 664.605469 391.359375 664.136719 390.527344 663.582031 C 389.691406 663.023438 388.921875 662.390625 388.214844 661.683594 C 387.507812 660.976562 386.875 660.207031 386.320312 659.375 C 385.761719 658.542969 385.292969 657.664062 384.910156 656.738281 C 384.527344 655.8125 384.238281 654.859375 384.042969 653.878906 C 383.847656 652.898438 383.75 651.90625 383.75 650.90625 C 383.75 649.902344 383.847656 648.914062 384.042969 647.929688 C 384.238281 646.949219 384.527344 645.996094 384.910156 645.070312 C 385.292969 644.148438 385.761719 643.269531 386.320312 642.4375 C 386.875 641.605469 387.507812 640.832031 388.214844 640.125 C 388.921875 639.417969 389.691406 638.785156 390.527344 638.230469 C 391.359375 637.675781 392.238281 637.203125 393.160156 636.820312 C 394.085938 636.4375 395.039062 636.148438 396.019531 635.953125 C 397.003906 635.757812 397.992188 635.660156 398.996094 635.660156 C 399.996094 635.660156 400.988281 635.757812 401.96875 635.953125 C 402.949219 636.148438 403.902344 636.4375 404.828125 636.820312 C 405.753906 637.203125 406.632812 637.675781 407.464844 638.230469 C 408.296875 638.785156 409.066406 639.417969 409.773438 640.125 C 410.480469 640.832031 411.113281 641.605469 411.671875 642.4375 C 412.226562 643.269531 412.695312 644.148438 413.078125 645.070312 C 413.460938 645.996094 413.75 646.949219 413.945312 647.929688 C 414.140625 648.914062 414.238281 649.902344 414.238281 650.90625 Z M 414.238281 650.90625 " fill-opacity="1" fill-rule="nonzero"/><path fill="#33f6bd" d="M 353.261719 849.082031 C 353.261719 850.082031 353.164062 851.074219 352.96875 852.058594 C 352.773438 853.039062 352.484375 853.992188 352.101562 854.917969 C 351.71875 855.839844 351.25 856.71875 350.691406 857.550781 C 350.136719 858.382812 349.503906 859.15625 348.796875 859.863281 C 348.089844 860.570312 347.320312 861.203125 346.488281 861.757812 C 345.652344 862.3125 344.777344 862.785156 343.851562 863.167969 C 342.925781 863.550781 341.972656 863.839844 340.992188 864.035156 C 340.007812 864.230469 339.019531 864.328125 338.015625 864.328125 C 337.015625 864.328125 336.023438 864.230469 335.042969 864.035156 C 334.0625 863.839844 333.109375 863.550781 332.183594 863.167969 C 331.257812 862.785156 330.378906 862.3125 329.546875 861.757812 C 328.714844 861.203125 327.945312 860.570312 327.238281 859.863281 C 326.53125 859.15625 325.898438 858.382812 325.34375 857.550781 C 324.785156 856.71875 324.316406 855.839844 323.933594 854.917969 C 323.550781 853.992188 323.261719 853.039062 323.066406 852.058594 C 322.871094 851.074219 322.773438 850.082031 322.773438 849.082031 C 322.773438 848.082031 322.871094 847.089844 323.066406 846.109375 C 323.261719 845.128906 323.550781 844.171875 323.933594 843.25 C 324.316406 842.324219 324.785156 841.445312 325.34375 840.613281 C 325.898438 839.78125 326.53125 839.011719 327.238281 838.304688 C 327.945312 837.59375 328.714844 836.964844 329.546875 836.40625 C 330.378906 835.851562 331.257812 835.382812 332.183594 835 C 333.109375 834.617188 334.0625 834.328125 335.042969 834.132812 C 336.023438 833.9375 337.015625 833.839844 338.015625 833.839844 C 339.019531 833.839844 340.007812 833.9375 340.992188 834.132812 C 341.972656 834.328125 342.925781 834.617188 343.851562 835 C 344.777344 835.382812 345.652344 835.851562 346.488281 836.40625 C 347.320312 836.964844 348.089844 837.59375 348.796875 838.304688 C 349.503906 839.011719 350.136719 839.78125 350.691406 840.613281 C 351.25 841.445312 351.71875 842.324219 352.101562 843.25 C 352.484375 844.171875 352.773438 845.128906 352.96875 846.109375 C 353.164062 847.089844 353.261719 848.082031 353.261719 849.082031 Z M 353.261719 849.082031 " fill-opacity="1" fill-rule="nonzero"/><path fill="#33f6bd" d="M 414.238281 849.082031 C 414.238281 850.082031 414.140625 851.074219 413.945312 852.058594 C 413.75 853.039062 413.460938 853.992188 413.078125 854.917969 C 412.695312 855.839844 412.226562 856.71875 411.671875 857.550781 C 411.113281 858.382812 410.480469 859.15625 409.773438 859.863281 C 409.066406 860.570312 408.296875 861.203125 407.464844 861.757812 C 406.632812 862.3125 405.753906 862.785156 404.828125 863.167969 C 403.902344 863.550781 402.949219 863.839844 401.96875 864.035156 C 400.988281 864.230469 399.996094 864.328125 398.996094 864.328125 C 397.992188 864.328125 397.003906 864.230469 396.019531 864.035156 C 395.039062 863.839844 394.085938 863.550781 393.160156 863.167969 C 392.238281 862.785156 391.359375 862.3125 390.527344 861.757812 C 389.691406 861.203125 388.921875 860.570312 388.214844 859.863281 C 387.507812 859.15625 386.875 858.382812 386.320312 857.550781 C 385.761719 856.71875 385.292969 855.839844 384.910156 854.917969 C 384.527344 853.992188 384.238281 853.039062 384.042969 852.058594 C 383.847656 851.074219 383.75 850.082031 383.75 849.082031 C 383.75 848.082031 383.847656 847.089844 384.042969 846.109375 C 384.238281 845.128906 384.527344 844.171875 384.910156 843.25 C 385.292969 842.324219 385.761719 841.445312 386.320312 840.613281 C 386.875 839.78125 387.507812 839.011719 388.214844 838.304688 C 388.921875 837.59375 389.691406 836.964844 390.527344 836.40625 C 391.359375 835.851562 392.238281 835.382812 393.160156 835 C 394.085938 834.617188 395.039062 834.328125 396.019531 834.132812 C 397.003906 833.9375 397.992188 833.839844 398.996094 833.839844 C 399.996094 833.839844 400.988281 833.9375 401.96875 834.132812 C 402.949219 834.328125 403.902344 834.617188 404.828125 835 C 405.753906 835.382812 406.632812 835.851562 407.464844 836.40625 C 408.296875 836.964844 409.066406 837.59375 409.773438 838.304688 C 410.480469 839.011719 411.113281 839.78125 411.671875 840.613281 C 412.226562 841.445312 412.695312 842.324219 413.078125 843.25 C 413.460938 844.171875 413.75 845.128906 413.945312 846.109375 C 414.140625 847.089844 414.238281 848.082031 414.238281 849.082031 Z M 414.238281 849.082031 " fill-opacity="1" fill-rule="nonzero"/><path fill="#33f6bd" d="M 353.261719 1047.261719 C 353.261719 1048.261719 353.164062 1049.253906 352.96875 1050.234375 C 352.773438 1051.214844 352.484375 1052.167969 352.101562 1053.09375 C 351.71875 1054.019531 351.25 1054.898438 350.691406 1055.730469 C 350.136719 1056.5625 349.503906 1057.332031 348.796875 1058.039062 C 348.089844 1058.746094 347.320312 1059.378906 346.488281 1059.9375 C 345.652344 1060.492188 344.777344 1060.960938 343.851562 1061.34375 C 342.925781 1061.726562 341.972656 1062.015625 340.992188 1062.210938 C 340.007812 1062.40625 339.019531 1062.503906 338.015625 1062.503906 C 337.015625 1062.503906 336.023438 1062.40625 335.042969 1062.210938 C 334.0625 1062.015625 333.109375 1061.726562 332.183594 1061.34375 C 331.257812 1060.960938 330.378906 1060.492188 329.546875 1059.9375 C 328.714844 1059.378906 327.945312 1058.746094 327.238281 1058.039062 C 326.53125 1057.332031 325.898438 1056.5625 325.34375 1055.730469 C 324.785156 1054.898438 324.316406 1054.019531 323.933594 1053.09375 C 323.550781 1052.167969 323.261719 1051.214844 323.066406 1050.234375 C 322.871094 1049.253906 322.773438 1048.261719 322.773438 1047.261719 C 322.773438 1046.257812 322.871094 1045.269531 323.066406 1044.285156 C 323.261719 1043.304688 323.550781 1042.351562 323.933594 1041.425781 C 324.316406 1040.5 324.785156 1039.625 325.34375 1038.792969 C 325.898438 1037.957031 326.53125 1037.1875 327.238281 1036.480469 C 327.945312 1035.773438 328.714844 1035.140625 329.546875 1034.585938 C 330.378906 1034.027344 331.257812 1033.558594 332.183594 1033.175781 C 333.109375 1032.792969 334.0625 1032.503906 335.042969 1032.308594 C 336.023438 1032.113281 337.015625 1032.015625 338.015625 1032.015625 C 339.019531 1032.015625 340.007812 1032.113281 340.992188 1032.308594 C 341.972656 1032.503906 342.925781 1032.792969 343.851562 1033.175781 C 344.777344 1033.558594 345.652344 1034.027344 346.488281 1034.585938 C 347.320312 1035.140625 348.089844 1035.773438 348.796875 1036.480469 C 349.503906 1037.1875 350.136719 1037.957031 350.691406 1038.792969 C 351.25 1039.625 351.71875 1040.5 352.101562 1041.425781 C 352.484375 1042.351562 352.773438 1043.304688 352.96875 1044.285156 C 353.164062 1045.269531 353.261719 1046.257812 353.261719 1047.261719 Z M 353.261719 1047.261719 " fill-opacity="1" fill-rule="nonzero"/><path fill="#33f6bd" d="M 414.238281 1047.261719 C 414.238281 1048.261719 414.140625 1049.253906 413.945312 1050.234375 C 413.75 1051.214844 413.460938 1052.167969 413.078125 1053.09375 C 412.695312 1054.019531 412.226562 1054.898438 411.671875 1055.730469 C 411.113281 1056.5625 410.480469 1057.332031 409.773438 1058.039062 C 409.066406 1058.746094 408.296875 1059.378906 407.464844 1059.9375 C 406.632812 1060.492188 405.753906 1060.960938 404.828125 1061.34375 C 403.902344 1061.726562 402.949219 1062.015625 401.96875 1062.210938 C 400.988281 1062.40625 399.996094 1062.503906 398.996094 1062.503906 C 397.992188 1062.503906 397.003906 1062.40625 396.019531 1062.210938 C 395.039062 1062.015625 394.085938 1061.726562 393.160156 1061.34375 C 392.238281 1060.960938 391.359375 1060.492188 390.527344 1059.9375 C 389.691406 1059.378906 388.921875 1058.746094 388.214844 1058.039062 C 387.507812 1057.332031 386.875 1056.5625 386.320312 1055.730469 C 385.761719 1054.898438 385.292969 1054.019531 384.910156 1053.09375 C 384.527344 1052.167969 384.238281 1051.214844 384.042969 1050.234375 C 383.847656 1049.253906 383.75 1048.261719 383.75 1047.261719 C 383.75 1046.257812 383.847656 1045.269531 384.042969 1044.285156 C 384.238281 1043.304688 384.527344 1042.351562 384.910156 1041.425781 C 385.292969 1040.5 385.761719 1039.625 386.320312 1038.792969 C 386.875 1037.957031 387.507812 1037.1875 388.214844 1036.480469 C 388.921875 1035.773438 389.691406 1035.140625 390.527344 1034.585938 C 391.359375 1034.027344 392.238281 1033.558594 393.160156 1033.175781 C 394.085938 1032.792969 395.039062 1032.503906 396.019531 1032.308594 C 397.003906 1032.113281 397.992188 1032.015625 398.996094 1032.015625 C 399.996094 1032.015625 400.988281 1032.113281 401.96875 1032.308594 C 402.949219 1032.503906 403.902344 1032.792969 404.828125 1033.175781 C 405.753906 1033.558594 406.632812 1034.027344 407.464844 1034.585938 C 408.296875 1035.140625 409.066406 1035.773438 409.773438 1036.480469 C 410.480469 1037.1875 411.113281 1037.957031 411.671875 1038.792969 C 412.226562 1039.625 412.695312 1040.5 413.078125 1041.425781 C 413.460938 1042.351562 413.75 1043.304688 413.945312 1044.285156 C 414.140625 1045.269531 414.238281 1046.257812 414.238281 1047.261719 Z M 414.238281 1047.261719 " fill-opacity="1" fill-rule="nonzero"/><g clip-path="url(#49cfd46a03)"><path fill="#33f6bd" d="M 300.667969 734.75 L 581.929688 734.75 L 581.929688 733.988281 C 581.929688 723.316406 583.453125 713.40625 586.5 704.261719 L 300.667969 704.261719 C 296.09375 704.261719 292.285156 700.449219 292.285156 696.636719 L 292.285156 605.171875 C 292.285156 600.597656 296.09375 597.550781 300.667969 597.550781 L 644.429688 597.550781 C 643.667969 591.453125 642.90625 585.355469 643.667969 579.257812 C 643.667969 574.683594 644.429688 570.871094 645.191406 567.0625 L 300.667969 567.0625 C 279.324219 567.0625 261.796875 584.59375 261.796875 605.171875 L 261.796875 696.636719 C 261.796875 717.21875 279.324219 734.75 300.667969 734.75 Z M 300.667969 734.75 " fill-opacity="1" fill-rule="nonzero"/></g><g clip-path="url(#b32d5ae0ed)"><path fill="#33f6bd" d="M 300.667969 536.570312 L 657.386719 536.570312 C 661.199219 530.472656 665.773438 524.375 671.109375 518.277344 L 683.304688 506.082031 L 300.667969 506.082031 C 296.09375 506.082031 292.285156 502.273438 292.285156 498.460938 L 292.285156 406.996094 C 292.285156 402.421875 296.09375 399.371094 300.667969 399.371094 L 847.945312 399.371094 C 852.515625 399.371094 856.328125 403.183594 856.328125 406.996094 L 856.328125 423 C 865.476562 416.902344 875.382812 412.328125 886.816406 409.28125 L 886.816406 406.996094 C 886.816406 385.652344 869.285156 368.882812 847.945312 368.882812 L 300.667969 368.882812 C 279.324219 368.882812 261.796875 386.414062 261.796875 406.996094 L 261.796875 498.460938 C 261.796875 519.039062 279.324219 536.570312 300.667969 536.570312 Z M 300.667969 536.570312 " fill-opacity="1" fill-rule="nonzero"/></g><g clip-path="url(#a094cc3219)"><path fill="#33f6bd" d="M 1178.746094 672.246094 L 1161.980469 672.246094 C 1158.167969 660.050781 1152.832031 647.855469 1147.496094 636.421875 L 1158.929688 624.988281 C 1181.796875 602.121094 1180.273438 564.011719 1156.644531 540.382812 L 1134.539062 518.277344 C 1122.34375 506.082031 1106.335938 499.222656 1089.566406 499.222656 C 1074.324219 499.222656 1059.839844 505.320312 1049.171875 515.992188 L 1037.738281 527.425781 C 1026.304688 521.328125 1014.109375 516.753906 1001.914062 512.941406 L 1001.914062 496.175781 C 1001.914062 464.160156 974.472656 437.484375 940.171875 437.484375 L 908.921875 437.484375 C 874.621094 437.484375 847.179688 463.398438 847.179688 496.175781 L 847.179688 512.941406 C 834.984375 516.753906 822.789062 522.089844 811.355469 527.425781 L 799.921875 515.992188 C 789.253906 505.320312 774.769531 499.222656 759.527344 499.222656 C 742.757812 499.222656 726.75 506.082031 714.554688 518.277344 L 692.449219 540.382812 C 681.015625 551.816406 674.917969 566.296875 673.394531 581.542969 C 672.632812 598.3125 678.730469 614.320312 689.402344 624.988281 L 700.835938 636.421875 C 694.738281 647.855469 690.164062 660.050781 686.351562 672.246094 L 669.582031 672.246094 C 637.570312 672.246094 610.894531 699.6875 610.894531 733.988281 L 610.894531 765.238281 C 610.894531 799.539062 636.808594 826.976562 669.582031 826.976562 L 686.351562 826.976562 C 690.164062 839.175781 695.5 851.371094 700.835938 862.804688 L 689.402344 874.234375 C 677.96875 885.667969 671.871094 901.675781 673.394531 917.683594 C 674.15625 932.925781 681.015625 947.410156 692.449219 958.84375 L 714.554688 980.945312 C 726.75 993.144531 742.757812 1000.003906 759.527344 1000.003906 C 774.769531 1000.003906 789.253906 993.90625 799.921875 983.996094 L 812.121094 971.800781 C 823.550781 977.898438 835.75 982.472656 847.945312 986.28125 L 847.945312 1003.050781 C 847.945312 1035.066406 875.382812 1061.742188 909.683594 1061.742188 L 940.933594 1061.742188 C 975.234375 1061.742188 1002.675781 1035.828125 1002.675781 1003.050781 L 1002.675781 986.28125 C 1014.871094 982.472656 1027.066406 977.136719 1038.5 971.800781 L 1049.933594 983.234375 C 1060.601562 993.90625 1075.085938 1000.003906 1090.332031 1000.003906 C 1107.097656 1000.003906 1123.105469 993.144531 1135.300781 980.945312 L 1157.40625 958.84375 C 1181.796875 934.453125 1182.558594 896.339844 1159.691406 874.234375 L 1148.257812 862.804688 C 1154.355469 851.371094 1158.929688 839.175781 1162.742188 826.976562 L 1179.511719 826.976562 C 1211.523438 826.976562 1238.203125 799.539062 1238.203125 765.238281 L 1238.203125 733.988281 C 1237.4375 700.449219 1211.523438 672.246094 1178.746094 672.246094 Z M 1206.949219 766 C 1206.949219 783.53125 1194.753906 797.25 1178.746094 797.25 L 1139.113281 797.25 C 1133.777344 823.167969 1123.105469 846.796875 1109.386719 868.136719 L 1137.589844 896.339844 C 1148.257812 907.011719 1147.496094 926.066406 1135.300781 938.261719 L 1113.195312 960.367188 C 1106.335938 967.226562 1097.953125 970.277344 1090.332031 970.277344 C 1083.46875 970.277344 1076.609375 967.988281 1072.035156 962.652344 L 1043.835938 934.453125 C 1022.492188 948.171875 998.101562 958.082031 972.949219 964.179688 L 972.949219 1003.8125 C 972.949219 1019.058594 959.226562 1032.015625 941.695312 1032.015625 L 910.445312 1032.015625 C 892.914062 1032.015625 879.195312 1019.820312 879.195312 1003.8125 L 879.195312 964.179688 C 853.277344 958.84375 829.648438 948.171875 808.308594 934.453125 L 780.105469 962.652344 C 774.769531 967.988281 768.671875 970.277344 761.8125 970.277344 C 753.429688 970.277344 745.042969 967.226562 738.945312 960.367188 L 716.839844 938.261719 C 704.644531 926.066406 703.121094 907.011719 714.554688 896.339844 L 742.757812 868.136719 C 729.035156 846.796875 719.128906 822.40625 713.03125 797.25 L 673.394531 797.25 C 658.148438 797.25 645.191406 783.53125 645.191406 766 L 645.191406 734.75 C 645.191406 717.21875 657.386719 703.5 673.394531 703.5 L 713.03125 703.5 C 718.367188 677.582031 729.035156 653.953125 742.757812 632.613281 L 714.554688 604.410156 C 703.882812 593.738281 704.644531 574.683594 716.839844 562.488281 L 738.945312 540.382812 C 745.804688 533.523438 754.191406 530.472656 761.8125 530.472656 C 768.671875 530.472656 775.53125 532.761719 780.867188 538.097656 L 809.070312 566.296875 C 830.414062 552.578125 854.804688 542.667969 879.957031 536.570312 L 879.957031 496.9375 C 879.957031 481.691406 893.675781 468.734375 911.207031 468.734375 L 942.460938 468.734375 C 959.988281 468.734375 973.710938 480.929688 973.710938 496.9375 L 973.710938 536.570312 C 999.625 541.90625 1023.253906 552.578125 1044.597656 566.296875 L 1072.800781 538.097656 C 1078.132812 532.761719 1084.230469 530.472656 1091.855469 530.472656 C 1100.238281 530.472656 1108.625 533.523438 1114.722656 540.382812 L 1136.824219 562.488281 C 1149.019531 574.683594 1149.785156 593.738281 1139.113281 604.410156 L 1110.910156 632.613281 C 1124.628906 653.953125 1134.539062 678.34375 1140.636719 703.5 L 1180.273438 703.5 C 1195.515625 703.5 1208.472656 717.21875 1208.472656 734.75 L 1208.472656 766 Z M 1206.949219 766 " fill-opacity="1" fill-rule="nonzero"/></g><path fill="#33f6bd" d="M 924.929688 597.550781 C 841.082031 597.550781 772.484375 666.148438 772.484375 749.992188 C 772.484375 833.839844 841.082031 902.4375 924.929688 902.4375 C 1008.773438 902.4375 1077.371094 833.839844 1077.371094 749.992188 C 1077.371094 666.148438 1008.773438 597.550781 924.929688 597.550781 Z M 924.929688 871.949219 C 857.851562 871.949219 802.972656 817.070312 802.972656 749.992188 C 802.972656 682.917969 857.851562 628.039062 924.929688 628.039062 C 992.003906 628.039062 1046.882812 682.917969 1046.882812 749.992188 C 1046.882812 817.070312 992.003906 871.949219 924.929688 871.949219 Z M 924.929688 871.949219 " fill-opacity="1" fill-rule="nonzero"/><g clip-path="url(#b5fcc6994d)"><path fill="#33f6bd" d="M 300.667969 932.925781 L 645.191406 932.925781 C 644.429688 929.117188 643.667969 924.542969 643.667969 920.730469 C 643.667969 914.632812 643.667969 908.535156 644.429688 902.4375 L 300.667969 902.4375 C 296.09375 902.4375 292.285156 898.628906 292.285156 894.816406 L 292.285156 803.351562 C 292.285156 798.777344 296.09375 795.726562 300.667969 795.726562 L 586.5 795.726562 C 583.453125 786.582031 581.929688 775.910156 581.929688 766 L 581.929688 765.238281 L 300.667969 765.238281 C 279.324219 765.238281 261.796875 782.769531 261.796875 803.351562 L 261.796875 894.816406 C 261.796875 915.394531 279.324219 932.925781 300.667969 932.925781 Z M 300.667969 932.925781 " fill-opacity="1" fill-rule="nonzero"/></g><g clip-path="url(#c7797afece)"><path fill="#33f6bd" d="M 856.328125 1092.992188 C 856.328125 1097.566406 852.515625 1100.617188 847.945312 1100.617188 L 300.667969 1100.617188 C 296.09375 1100.617188 292.285156 1096.804688 292.285156 1092.992188 L 292.285156 1001.527344 C 292.285156 996.953125 296.09375 993.90625 300.667969 993.90625 L 683.304688 993.90625 L 671.109375 981.710938 C 665.773438 976.375 661.199219 970.277344 656.625 963.417969 L 300.667969 963.417969 C 279.324219 963.417969 261.796875 980.949219 261.796875 1001.527344 L 261.796875 1092.992188 C 261.796875 1114.335938 279.324219 1131.105469 300.667969 1131.105469 L 847.945312 1131.105469 C 869.285156 1131.105469 886.816406 1113.574219 886.816406 1092.992188 L 886.816406 1090.707031 C 875.382812 1087.660156 865.476562 1083.085938 856.328125 1076.988281 Z M 856.328125 1092.992188 " fill-opacity="1" fill-rule="nonzero"/></g><g clip-path="url(#f4fa10187a)"><g transform="matrix(1, 0, 0, 1, 516, 1067)"><g clip-path="url(#366de76adc)"><g clip-path="url(#91a31f092c)"><path fill="#ffffff" d="M 285.097656 0.183594 L 285.097656 89.347656 L 0.890625 89.347656 L 0.890625 0.183594 Z M 285.097656 0.183594 " fill-opacity="1" fill-rule="nonzero"/></g></g></g></g><g clip-path="url(#9e538465a6)"><g transform="matrix(1, 0, 0, 1, 133, 492)"><g clip-path="url(#ec608b4d78)"><g clip-path="url(#bd6460e00d)"><path fill="#ffffff" d="M 226.976562 0.132812 L 226.976562 58.046875 L 0.75 58.046875 L 0.75 0.132812 Z M 226.976562 0.132812 " fill-opacity="1" fill-rule="nonzero"/></g></g></g></g></svg>