<svg xmlns="http://www.w3.org/2000/svg" xmlns:xlink="http://www.w3.org/1999/xlink" width="2000" zoomAndPan="magnify" viewBox="0 0 1500 1499.999933" height="2000" preserveAspectRatio="xMidYMid meet" version="1.0"><defs><clipPath id="2bc4daa220"><path d="M 347.597656 385.640625 L 1152.347656 385.640625 L 1152.347656 1114.640625 L 347.597656 1114.640625 Z M 347.597656 385.640625 " clip-rule="nonzero"/></clipPath><clipPath id="161c4d72b9"><path d="M 319.753906 486.324219 L 415.617188 486.324219 L 415.617188 777.160156 L 319.753906 777.160156 Z M 319.753906 486.324219 " clip-rule="nonzero"/></clipPath><clipPath id="7fa18c14ab"><path d="M 0.753906 0.324219 L 96.617188 0.324219 L 96.617188 291.160156 L 0.753906 291.160156 Z M 0.753906 0.324219 " clip-rule="nonzero"/></clipPath><clipPath id="b04f799018"><rect x="0" width="97" y="0" height="292"/></clipPath></defs><g clip-path="url(#2bc4daa220)"><path fill="#33f6bd" d="M 1056.582031 385.921875 L 443.40625 385.921875 C 441.835938 385.921875 440.269531 385.960938 438.707031 386.039062 C 437.140625 386.121094 435.578125 386.238281 434.019531 386.390625 C 432.457031 386.546875 430.902344 386.742188 429.351562 386.972656 C 427.800781 387.203125 426.257812 387.472656 424.722656 387.78125 C 423.183594 388.085938 421.65625 388.429688 420.136719 388.8125 C 418.617188 389.195312 417.105469 389.613281 415.605469 390.070312 C 414.105469 390.527344 412.617188 391.019531 411.144531 391.546875 C 409.667969 392.078125 408.207031 392.644531 406.757812 393.242188 C 405.308594 393.84375 403.878906 394.480469 402.460938 395.152344 C 401.042969 395.820312 399.644531 396.527344 398.261719 397.265625 C 396.882812 398.007812 395.519531 398.777344 394.175781 399.585938 C 392.828125 400.390625 391.507812 401.230469 390.203125 402.101562 C 388.898438 402.972656 387.617188 403.875 386.359375 404.808594 C 385.101562 405.742188 383.867188 406.707031 382.65625 407.703125 C 381.441406 408.695312 380.257812 409.71875 379.09375 410.773438 C 377.933594 411.824219 376.800781 412.90625 375.691406 414.015625 C 374.582031 415.125 373.5 416.257812 372.449219 417.417969 C 371.394531 418.582031 370.371094 419.765625 369.378906 420.980469 C 368.382812 422.191406 367.417969 423.425781 366.484375 424.683594 C 365.550781 425.941406 364.648438 427.222656 363.777344 428.527344 C 362.90625 429.832031 362.066406 431.152344 361.261719 432.5 C 360.453125 433.84375 359.683594 435.207031 358.941406 436.585938 C 358.203125 437.96875 357.496094 439.367188 356.828125 440.785156 C 356.15625 442.203125 355.519531 443.632812 354.917969 445.082031 C 354.320312 446.53125 353.753906 447.992188 353.222656 449.46875 C 352.695312 450.941406 352.203125 452.429688 351.746094 453.929688 C 351.289062 455.429688 350.871094 456.941406 350.488281 458.460938 C 350.105469 459.980469 349.761719 461.507812 349.457031 463.046875 C 349.148438 464.582031 348.878906 466.125 348.648438 467.675781 C 348.417969 469.226562 348.222656 470.78125 348.066406 472.34375 C 347.914062 473.902344 347.796875 475.464844 347.714844 477.03125 C 347.636719 478.59375 347.597656 480.160156 347.597656 481.730469 L 347.597656 1094.90625 C 347.597656 1095.851562 347.664062 1096.789062 347.804688 1097.71875 C 347.941406 1098.652344 348.148438 1099.566406 348.421875 1100.46875 C 348.695312 1101.371094 349.035156 1102.246094 349.4375 1103.097656 C 349.839844 1103.953125 350.300781 1104.769531 350.828125 1105.550781 C 351.351562 1106.335938 351.929688 1107.078125 352.5625 1107.773438 C 353.195312 1108.472656 353.875 1109.121094 354.601562 1109.71875 C 355.332031 1110.316406 356.097656 1110.855469 356.90625 1111.339844 C 357.714844 1111.824219 358.554688 1112.25 359.425781 1112.609375 C 360.296875 1112.96875 361.1875 1113.265625 362.101562 1113.492188 C 363.015625 1113.722656 363.941406 1113.882812 364.878906 1113.976562 C 365.816406 1114.066406 366.757812 1114.089844 367.699219 1114.042969 C 368.640625 1113.996094 369.570312 1113.882812 370.496094 1113.699219 C 371.417969 1113.515625 372.324219 1113.265625 373.210938 1112.945312 C 374.097656 1112.628906 374.957031 1112.25 375.789062 1111.804688 C 376.621094 1111.359375 377.414062 1110.859375 378.171875 1110.296875 C 378.929688 1109.734375 379.640625 1109.121094 380.304688 1108.457031 L 527.984375 960.773438 L 1056.582031 960.773438 C 1058.152344 960.773438 1059.71875 960.734375 1061.28125 960.65625 C 1062.847656 960.574219 1064.410156 960.457031 1065.972656 960.304688 C 1067.53125 960.148438 1069.085938 959.953125 1070.636719 959.722656 C 1072.1875 959.492188 1073.730469 959.222656 1075.265625 958.914062 C 1076.804688 958.609375 1078.332031 958.265625 1079.851562 957.882812 C 1081.375 957.5 1082.882812 957.082031 1084.382812 956.625 C 1085.882812 956.167969 1087.371094 955.675781 1088.847656 955.148438 C 1090.320312 954.617188 1091.78125 954.054688 1093.230469 953.453125 C 1094.679688 952.851562 1096.109375 952.214844 1097.527344 951.542969 C 1098.945312 950.875 1100.34375 950.167969 1101.726562 949.429688 C 1103.109375 948.691406 1104.472656 947.917969 1105.816406 947.109375 C 1107.160156 946.304688 1108.484375 945.464844 1109.785156 944.59375 C 1111.089844 943.722656 1112.371094 942.820312 1113.628906 941.886719 C 1114.886719 940.953125 1116.121094 939.988281 1117.335938 938.992188 C 1118.546875 938 1119.730469 936.976562 1120.894531 935.921875 C 1122.054688 934.867188 1123.191406 933.789062 1124.296875 932.679688 C 1125.40625 931.570312 1126.488281 930.4375 1127.539062 929.277344 C 1128.59375 928.113281 1129.617188 926.929688 1130.609375 925.714844 C 1131.605469 924.503906 1132.570312 923.269531 1133.503906 922.011719 C 1134.4375 920.753906 1135.339844 919.472656 1136.210938 918.167969 C 1137.082031 916.863281 1137.921875 915.542969 1138.726562 914.199219 C 1139.535156 912.851562 1140.308594 911.488281 1141.046875 910.109375 C 1141.785156 908.726562 1142.492188 907.328125 1143.164062 905.910156 C 1143.832031 904.492188 1144.46875 903.0625 1145.070312 901.613281 C 1145.671875 900.164062 1146.234375 898.703125 1146.765625 897.226562 C 1147.292969 895.753906 1147.785156 894.265625 1148.242188 892.765625 C 1148.699219 891.265625 1149.117188 889.753906 1149.5 888.234375 C 1149.882812 886.714844 1150.226562 885.1875 1150.535156 883.648438 C 1150.839844 882.113281 1151.109375 880.570312 1151.339844 879.019531 C 1151.574219 877.46875 1151.765625 875.914062 1151.921875 874.351562 C 1152.078125 872.792969 1152.195312 871.230469 1152.273438 869.664062 C 1152.351562 868.101562 1152.390625 866.535156 1152.394531 864.964844 L 1152.394531 481.730469 C 1152.390625 480.160156 1152.351562 478.59375 1152.273438 477.03125 C 1152.195312 475.464844 1152.078125 473.902344 1151.921875 472.34375 C 1151.765625 470.78125 1151.574219 469.226562 1151.339844 467.675781 C 1151.109375 466.125 1150.839844 464.582031 1150.535156 463.046875 C 1150.226562 461.507812 1149.882812 459.980469 1149.5 458.460938 C 1149.117188 456.941406 1148.699219 455.429688 1148.242188 453.929688 C 1147.785156 452.429688 1147.292969 450.941406 1146.765625 449.46875 C 1146.234375 447.992188 1145.671875 446.53125 1145.070312 445.082031 C 1144.46875 443.632812 1143.832031 442.203125 1143.164062 440.785156 C 1142.492188 439.367188 1141.785156 437.96875 1141.046875 436.585938 C 1140.308594 435.207031 1139.535156 433.84375 1138.726562 432.5 C 1137.921875 431.152344 1137.082031 429.832031 1136.210938 428.527344 C 1135.339844 427.222656 1134.4375 425.941406 1133.503906 424.683594 C 1132.570312 423.425781 1131.605469 422.191406 1130.609375 420.980469 C 1129.617188 419.765625 1128.59375 418.582031 1127.539062 417.417969 C 1126.488281 416.257812 1125.40625 415.125 1124.296875 414.015625 C 1123.191406 412.90625 1122.054688 411.824219 1120.894531 410.773438 C 1119.730469 409.71875 1118.546875 408.695312 1117.335938 407.703125 C 1116.121094 406.707031 1114.886719 405.742188 1113.628906 404.808594 C 1112.371094 403.875 1111.089844 402.972656 1109.785156 402.101562 C 1108.484375 401.230469 1107.160156 400.390625 1105.816406 399.585938 C 1104.472656 398.777344 1103.109375 398.007812 1101.726562 397.265625 C 1100.34375 396.527344 1098.945312 395.820312 1097.527344 395.152344 C 1096.109375 394.480469 1094.679688 393.84375 1093.230469 393.242188 C 1091.78125 392.644531 1090.320312 392.078125 1088.847656 391.546875 C 1087.371094 391.019531 1085.882812 390.527344 1084.382812 390.070312 C 1082.882812 389.613281 1081.375 389.195312 1079.851562 388.8125 C 1078.332031 388.429688 1076.804688 388.085938 1075.265625 387.78125 C 1073.730469 387.472656 1072.1875 387.203125 1070.636719 386.972656 C 1069.085938 386.742188 1067.53125 386.546875 1065.972656 386.390625 C 1064.410156 386.238281 1062.847656 386.121094 1061.28125 386.039062 C 1059.71875 385.960938 1058.152344 385.921875 1056.582031 385.921875 Z M 1114.070312 864.964844 C 1114.066406 866.847656 1113.972656 868.726562 1113.785156 870.597656 C 1113.601562 872.472656 1113.324219 874.332031 1112.953125 876.175781 C 1112.585938 878.023438 1112.128906 879.84375 1111.578125 881.644531 C 1111.03125 883.445312 1110.398438 885.214844 1109.675781 886.953125 C 1108.957031 888.695312 1108.152344 890.390625 1107.261719 892.050781 C 1106.375 893.710938 1105.40625 895.324219 1104.363281 896.886719 C 1103.316406 898.453125 1102.195312 899.960938 1101 901.417969 C 1099.808594 902.871094 1098.542969 904.265625 1097.214844 905.597656 C 1095.882812 906.925781 1094.488281 908.1875 1093.035156 909.382812 C 1091.582031 910.578125 1090.070312 911.699219 1088.507812 912.742188 C 1086.941406 913.789062 1085.328125 914.757812 1083.667969 915.644531 C 1082.011719 916.53125 1080.3125 917.335938 1078.574219 918.058594 C 1076.835938 918.78125 1075.066406 919.414062 1073.265625 919.960938 C 1071.464844 920.507812 1069.640625 920.96875 1067.792969 921.335938 C 1065.949219 921.707031 1064.089844 921.984375 1062.214844 922.167969 C 1060.34375 922.355469 1058.464844 922.449219 1056.582031 922.453125 L 520.050781 922.453125 C 518.792969 922.453125 517.546875 922.574219 516.3125 922.820312 C 515.082031 923.066406 513.882812 923.429688 512.71875 923.910156 C 511.558594 924.390625 510.453125 924.980469 509.40625 925.679688 C 508.359375 926.378906 507.394531 927.175781 506.503906 928.066406 L 385.917969 1048.652344 L 385.917969 481.730469 C 385.921875 479.847656 386.015625 477.96875 386.203125 476.097656 C 386.386719 474.222656 386.664062 472.363281 387.035156 470.519531 C 387.402344 468.671875 387.863281 466.851562 388.410156 465.050781 C 388.957031 463.25 389.589844 461.480469 390.3125 459.742188 C 391.035156 458 391.839844 456.304688 392.726562 454.644531 C 393.613281 452.984375 394.582031 451.371094 395.628906 449.808594 C 396.671875 448.242188 397.792969 446.734375 398.988281 445.277344 C 400.183594 443.824219 401.445312 442.429688 402.773438 441.097656 C 404.105469 439.769531 405.5 438.507812 406.953125 437.3125 C 408.410156 436.117188 409.917969 434.996094 411.484375 433.953125 C 413.046875 432.90625 414.660156 431.9375 416.320312 431.050781 C 417.980469 430.164062 419.675781 429.359375 421.417969 428.636719 C 423.15625 427.914062 424.925781 427.28125 426.726562 426.734375 C 428.527344 426.1875 430.347656 425.726562 432.195312 425.359375 C 434.039062 424.988281 435.898438 424.710938 437.773438 424.527344 C 439.644531 424.339844 441.523438 424.246094 443.40625 424.242188 L 1056.582031 424.242188 C 1058.464844 424.246094 1060.34375 424.339844 1062.214844 424.527344 C 1064.089844 424.710938 1065.949219 424.988281 1067.792969 425.359375 C 1069.640625 425.726562 1071.464844 426.1875 1073.265625 426.734375 C 1075.066406 427.28125 1076.835938 427.914062 1078.574219 428.636719 C 1080.3125 429.359375 1082.011719 430.164062 1083.667969 431.050781 C 1085.328125 431.9375 1086.941406 432.90625 1088.507812 433.953125 C 1090.070312 434.996094 1091.582031 436.117188 1093.035156 437.3125 C 1094.488281 438.507812 1095.882812 439.769531 1097.214844 441.097656 C 1098.542969 442.429688 1099.808594 443.824219 1101 445.277344 C 1102.195312 446.734375 1103.316406 448.242188 1104.363281 449.808594 C 1105.40625 451.371094 1106.375 452.984375 1107.261719 454.644531 C 1108.152344 456.304688 1108.957031 458 1109.675781 459.742188 C 1110.398438 461.480469 1111.03125 463.25 1111.578125 465.050781 C 1112.128906 466.851562 1112.585938 468.671875 1112.953125 470.519531 C 1113.324219 472.363281 1113.601562 474.222656 1113.785156 476.097656 C 1113.972656 477.96875 1114.066406 479.847656 1114.070312 481.730469 Z M 999.097656 558.375 C 999.097656 559.003906 999.066406 559.628906 999.007812 560.253906 C 998.945312 560.878906 998.855469 561.5 998.730469 562.117188 C 998.609375 562.730469 998.457031 563.339844 998.277344 563.941406 C 998.09375 564.542969 997.882812 565.132812 997.640625 565.710938 C 997.402344 566.292969 997.132812 566.859375 996.839844 567.410156 C 996.542969 567.964844 996.222656 568.503906 995.871094 569.023438 C 995.523438 569.546875 995.148438 570.050781 994.753906 570.535156 C 994.355469 571.019531 993.933594 571.484375 993.488281 571.929688 C 993.046875 572.375 992.582031 572.792969 992.09375 573.191406 C 991.609375 573.589844 991.105469 573.964844 990.585938 574.3125 C 990.0625 574.660156 989.523438 574.984375 988.972656 575.277344 C 988.417969 575.574219 987.851562 575.84375 987.269531 576.082031 C 986.691406 576.324219 986.101562 576.535156 985.5 576.714844 C 984.898438 576.898438 984.292969 577.050781 983.675781 577.171875 C 983.058594 577.292969 982.441406 577.386719 981.816406 577.449219 C 981.191406 577.507812 980.5625 577.539062 979.9375 577.539062 L 520.050781 577.539062 C 519.425781 577.539062 518.800781 577.507812 518.175781 577.445312 C 517.550781 577.382812 516.929688 577.292969 516.3125 577.171875 C 515.699219 577.046875 515.089844 576.894531 514.488281 576.714844 C 513.890625 576.53125 513.300781 576.320312 512.71875 576.078125 C 512.140625 575.839844 511.574219 575.570312 511.019531 575.277344 C 510.464844 574.980469 509.929688 574.65625 509.40625 574.308594 C 508.886719 573.960938 508.382812 573.585938 507.894531 573.1875 C 507.410156 572.789062 506.945312 572.371094 506.503906 571.925781 C 506.058594 571.480469 505.636719 571.019531 505.238281 570.53125 C 504.84375 570.046875 504.46875 569.542969 504.121094 569.023438 C 503.769531 568.5 503.449219 567.964844 503.152344 567.410156 C 502.855469 566.855469 502.589844 566.289062 502.347656 565.710938 C 502.109375 565.128906 501.898438 564.539062 501.714844 563.9375 C 501.535156 563.339844 501.382812 562.730469 501.257812 562.113281 C 501.136719 561.5 501.042969 560.878906 500.984375 560.253906 C 500.921875 559.628906 500.890625 559.003906 500.890625 558.375 C 500.890625 557.75 500.921875 557.125 500.984375 556.5 C 501.042969 555.875 501.136719 555.253906 501.257812 554.636719 C 501.382812 554.023438 501.535156 553.414062 501.714844 552.8125 C 501.898438 552.214844 502.109375 551.625 502.347656 551.042969 C 502.589844 550.464844 502.855469 549.898438 503.152344 549.34375 C 503.449219 548.789062 503.769531 548.253906 504.121094 547.730469 C 504.46875 547.210938 504.84375 546.707031 505.238281 546.21875 C 505.636719 545.734375 506.058594 545.269531 506.503906 544.828125 C 506.945312 544.382812 507.410156 543.960938 507.894531 543.5625 C 508.382812 543.167969 508.886719 542.792969 509.40625 542.445312 C 509.929688 542.09375 510.464844 541.773438 511.019531 541.476562 C 511.574219 541.179688 512.140625 540.914062 512.71875 540.671875 C 513.300781 540.433594 513.890625 540.222656 514.488281 540.039062 C 515.089844 539.859375 515.699219 539.707031 516.3125 539.582031 C 516.929688 539.460938 517.550781 539.367188 518.175781 539.308594 C 518.800781 539.246094 519.425781 539.214844 520.050781 539.214844 L 979.9375 539.214844 C 980.5625 539.214844 981.191406 539.246094 981.816406 539.304688 C 982.441406 539.367188 983.058594 539.460938 983.675781 539.582031 C 984.292969 539.703125 984.898438 539.855469 985.5 540.039062 C 986.101562 540.21875 986.691406 540.429688 987.269531 540.671875 C 987.851562 540.910156 988.417969 541.179688 988.972656 541.472656 C 989.523438 541.769531 990.0625 542.09375 990.585938 542.441406 C 991.105469 542.789062 991.609375 543.164062 992.09375 543.5625 C 992.582031 543.960938 993.046875 544.378906 993.488281 544.824219 C 993.933594 545.269531 994.355469 545.730469 994.753906 546.21875 C 995.148438 546.703125 995.523438 547.207031 995.871094 547.726562 C 996.222656 548.25 996.542969 548.789062 996.839844 549.339844 C 997.132812 549.894531 997.402344 550.460938 997.640625 551.042969 C 997.882812 551.621094 998.09375 552.210938 998.277344 552.8125 C 998.457031 553.414062 998.609375 554.023438 998.730469 554.636719 C 998.855469 555.253906 998.945312 555.875 999.007812 556.5 C 999.066406 557.121094 999.097656 557.75 999.097656 558.375 Z M 999.097656 673.347656 C 999.097656 673.976562 999.066406 674.601562 999.007812 675.226562 C 998.945312 675.851562 998.855469 676.472656 998.730469 677.085938 C 998.609375 677.703125 998.457031 678.3125 998.277344 678.910156 C 998.09375 679.511719 997.882812 680.101562 997.640625 680.683594 C 997.402344 681.261719 997.132812 681.828125 996.839844 682.382812 C 996.542969 682.9375 996.222656 683.472656 995.871094 683.996094 C 995.523438 684.519531 995.148438 685.023438 994.753906 685.507812 C 994.355469 685.992188 993.933594 686.457031 993.488281 686.898438 C 993.046875 687.34375 992.582031 687.765625 992.09375 688.164062 C 991.609375 688.5625 991.105469 688.933594 990.585938 689.285156 C 990.0625 689.632812 989.523438 689.953125 988.972656 690.25 C 988.417969 690.546875 987.851562 690.8125 987.269531 691.054688 C 986.691406 691.292969 986.101562 691.503906 985.5 691.6875 C 984.898438 691.867188 984.292969 692.019531 983.675781 692.144531 C 983.058594 692.265625 982.441406 692.355469 981.816406 692.417969 C 981.191406 692.480469 980.5625 692.511719 979.9375 692.507812 L 520.050781 692.507812 C 519.425781 692.507812 518.800781 692.480469 518.175781 692.417969 C 517.550781 692.355469 516.929688 692.265625 516.3125 692.140625 C 515.699219 692.019531 515.089844 691.867188 514.488281 691.683594 C 513.890625 691.503906 513.300781 691.292969 512.71875 691.050781 C 512.140625 690.8125 511.574219 690.542969 511.019531 690.246094 C 510.464844 689.949219 509.929688 689.628906 509.40625 689.28125 C 508.886719 688.929688 508.382812 688.558594 507.894531 688.160156 C 507.410156 687.761719 506.945312 687.339844 506.503906 686.898438 C 506.058594 686.453125 505.636719 685.988281 505.238281 685.503906 C 504.84375 685.019531 504.46875 684.515625 504.121094 683.992188 C 503.769531 683.472656 503.449219 682.933594 503.152344 682.378906 C 502.855469 681.828125 502.589844 681.261719 502.347656 680.679688 C 502.109375 680.101562 501.898438 679.511719 501.714844 678.910156 C 501.535156 678.308594 501.382812 677.703125 501.257812 677.085938 C 501.136719 676.46875 501.042969 675.851562 500.984375 675.226562 C 500.921875 674.601562 500.890625 673.976562 500.890625 673.347656 C 500.890625 672.71875 500.921875 672.09375 500.984375 671.46875 C 501.042969 670.84375 501.136719 670.226562 501.257812 669.609375 C 501.382812 668.992188 501.535156 668.386719 501.714844 667.785156 C 501.898438 667.183594 502.109375 666.59375 502.347656 666.015625 C 502.589844 665.433594 502.855469 664.867188 503.152344 664.316406 C 503.449219 663.761719 503.769531 663.222656 504.121094 662.703125 C 504.46875 662.179688 504.84375 661.675781 505.238281 661.191406 C 505.636719 660.707031 506.058594 660.242188 506.503906 659.796875 C 506.945312 659.355469 507.410156 658.933594 507.894531 658.535156 C 508.382812 658.136719 508.886719 657.765625 509.40625 657.414062 C 509.929688 657.066406 510.464844 656.746094 511.019531 656.449219 C 511.574219 656.152344 512.140625 655.882812 512.71875 655.644531 C 513.300781 655.402344 513.890625 655.191406 514.488281 655.011719 C 515.089844 654.828125 515.699219 654.675781 516.3125 654.554688 C 516.929688 654.429688 517.550781 654.339844 518.175781 654.277344 C 518.800781 654.214844 519.425781 654.1875 520.050781 654.1875 L 979.9375 654.1875 C 980.5625 654.183594 981.191406 654.214844 981.816406 654.277344 C 982.441406 654.339844 983.058594 654.429688 983.675781 654.550781 C 984.292969 654.675781 984.898438 654.828125 985.5 655.007812 C 986.101562 655.191406 986.691406 655.402344 987.269531 655.640625 C 987.851562 655.882812 988.417969 656.148438 988.972656 656.445312 C 989.523438 656.742188 990.0625 657.0625 990.585938 657.410156 C 991.105469 657.761719 991.609375 658.132812 992.09375 658.53125 C 992.582031 658.929688 993.046875 659.351562 993.488281 659.796875 C 993.933594 660.238281 994.355469 660.703125 994.753906 661.1875 C 995.148438 661.671875 995.523438 662.175781 995.871094 662.699219 C 996.222656 663.222656 996.542969 663.757812 996.839844 664.3125 C 997.132812 664.867188 997.402344 665.433594 997.640625 666.011719 C 997.882812 666.59375 998.09375 667.183594 998.277344 667.785156 C 998.457031 668.386719 998.609375 668.992188 998.730469 669.609375 C 998.855469 670.222656 998.945312 670.84375 999.007812 671.46875 C 999.066406 672.09375 999.097656 672.71875 999.097656 673.347656 Z M 999.097656 788.320312 C 999.097656 788.945312 999.066406 789.574219 999.007812 790.195312 C 998.945312 790.820312 998.855469 791.441406 998.730469 792.058594 C 998.609375 792.671875 998.457031 793.28125 998.277344 793.882812 C 998.09375 794.484375 997.882812 795.074219 997.640625 795.652344 C 997.402344 796.234375 997.132812 796.800781 996.839844 797.355469 C 996.542969 797.90625 996.222656 798.445312 995.871094 798.96875 C 995.523438 799.488281 995.148438 799.992188 994.753906 800.476562 C 994.355469 800.964844 993.933594 801.425781 993.488281 801.871094 C 993.046875 802.316406 992.582031 802.734375 992.09375 803.132812 C 991.609375 803.53125 991.105469 803.90625 990.585938 804.253906 C 990.0625 804.601562 989.523438 804.925781 988.972656 805.222656 C 988.417969 805.515625 987.851562 805.785156 987.269531 806.023438 C 986.691406 806.265625 986.101562 806.476562 985.5 806.65625 C 984.898438 806.839844 984.292969 806.992188 983.675781 807.113281 C 983.058594 807.238281 982.441406 807.328125 981.816406 807.390625 C 981.191406 807.449219 980.5625 807.480469 979.9375 807.480469 L 520.050781 807.480469 C 519.425781 807.480469 518.800781 807.449219 518.175781 807.386719 C 517.550781 807.328125 516.929688 807.234375 516.3125 807.113281 C 515.699219 806.988281 515.089844 806.835938 514.488281 806.65625 C 513.890625 806.472656 513.300781 806.261719 512.71875 806.023438 C 512.140625 805.78125 511.574219 805.511719 511.019531 805.21875 C 510.464844 804.921875 509.929688 804.601562 509.40625 804.25 C 508.886719 803.902344 508.382812 803.527344 507.894531 803.128906 C 507.410156 802.734375 506.945312 802.3125 506.503906 801.867188 C 506.058594 801.425781 505.636719 800.960938 505.238281 800.476562 C 504.84375 799.988281 504.46875 799.484375 504.121094 798.964844 C 503.769531 798.441406 503.449219 797.90625 503.152344 797.351562 C 502.855469 796.796875 502.589844 796.230469 502.347656 795.652344 C 502.109375 795.070312 501.898438 794.480469 501.714844 793.882812 C 501.535156 793.28125 501.382812 792.671875 501.257812 792.058594 C 501.136719 791.441406 501.042969 790.820312 500.984375 790.195312 C 500.921875 789.570312 500.890625 788.945312 500.890625 788.320312 C 500.890625 787.691406 500.921875 787.066406 500.984375 786.441406 C 501.042969 785.816406 501.136719 785.195312 501.257812 784.582031 C 501.382812 783.964844 501.535156 783.355469 501.714844 782.757812 C 501.898438 782.15625 502.109375 781.566406 502.347656 780.984375 C 502.589844 780.40625 502.855469 779.839844 503.152344 779.285156 C 503.449219 778.730469 503.769531 778.195312 504.121094 777.671875 C 504.46875 777.152344 504.84375 776.648438 505.238281 776.164062 C 505.636719 775.675781 506.058594 775.214844 506.503906 774.769531 C 506.945312 774.324219 507.410156 773.90625 507.894531 773.507812 C 508.382812 773.109375 508.886719 772.734375 509.40625 772.386719 C 509.929688 772.039062 510.464844 771.714844 511.019531 771.417969 C 511.574219 771.125 512.140625 770.855469 512.71875 770.617188 C 513.300781 770.375 513.890625 770.164062 514.488281 769.980469 C 515.089844 769.800781 515.699219 769.648438 516.3125 769.523438 C 516.929688 769.402344 517.550781 769.3125 518.175781 769.25 C 518.800781 769.1875 519.425781 769.15625 520.050781 769.15625 L 979.9375 769.15625 C 980.5625 769.15625 981.191406 769.1875 981.816406 769.25 C 982.441406 769.308594 983.058594 769.402344 983.675781 769.523438 C 984.292969 769.644531 984.898438 769.796875 985.5 769.980469 C 986.101562 770.160156 986.691406 770.371094 987.269531 770.613281 C 987.851562 770.851562 988.417969 771.121094 988.972656 771.417969 C 989.523438 771.710938 990.0625 772.035156 990.585938 772.382812 C 991.105469 772.730469 991.609375 773.105469 992.09375 773.503906 C 992.582031 773.902344 993.046875 774.320312 993.488281 774.765625 C 993.933594 775.210938 994.355469 775.675781 994.753906 776.160156 C 995.148438 776.644531 995.523438 777.148438 995.871094 777.671875 C 996.222656 778.191406 996.542969 778.730469 996.839844 779.285156 C 997.132812 779.835938 997.402344 780.402344 997.640625 780.984375 C 997.882812 781.5625 998.09375 782.15625 998.277344 782.753906 C 998.457031 783.355469 998.609375 783.964844 998.730469 784.578125 C 998.855469 785.195312 998.945312 785.816406 999.007812 786.441406 C 999.066406 787.066406 999.097656 787.691406 999.097656 788.320312 Z M 999.097656 788.320312 " fill-opacity="1" fill-rule="nonzero"/></g><g clip-path="url(#161c4d72b9)"><g transform="matrix(1, 0, 0, 1, 319, 486)"><g clip-path="url(#b04f799018)"><g clip-path="url(#7fa18c14ab)"><path fill="#ffffff" d="M 0.753906 0.324219 L 96.617188 0.324219 L 96.617188 291.277344 L 0.753906 291.277344 Z M 0.753906 0.324219 " fill-opacity="1" fill-rule="nonzero"/></g></g></g></g></svg>