<svg xmlns="http://www.w3.org/2000/svg" xmlns:xlink="http://www.w3.org/1999/xlink" width="2000" zoomAndPan="magnify" viewBox="0 0 1500 1499.999933" height="2000" preserveAspectRatio="xMidYMid meet" version="1.0"><defs><clipPath id="57441f9bf6"><path d="M 477 436 L 1022.914062 436 L 1022.914062 1177.839844 L 477 1177.839844 Z M 477 436 " clip-rule="nonzero"/></clipPath><clipPath id="173aab7ab1"><path d="M 683 322.089844 L 817 322.089844 L 817 389 L 683 389 Z M 683 322.089844 " clip-rule="nonzero"/></clipPath><clipPath id="2c72d78b2f"><path d="M 850.894531 1002.679688 L 1106.695312 1002.679688 L 1106.695312 1280.804688 L 850.894531 1280.804688 Z M 850.894531 1002.679688 " clip-rule="nonzero"/></clipPath><clipPath id="b529081d56"><path d="M 0.894531 0.679688 L 256.695312 0.679688 L 256.695312 278.804688 L 0.894531 278.804688 Z M 0.894531 0.679688 " clip-rule="nonzero"/></clipPath><clipPath id="7857d39fd8"><rect x="0" width="257" y="0" height="279"/></clipPath></defs><g clip-path="url(#57441f9bf6)"><path fill="#33f6bd" d="M 989.808594 436.320312 L 933.941406 436.320312 L 933.941406 461.246094 L 989.808594 461.246094 C 993.863281 461.246094 997.289062 464.671875 997.289062 468.726562 L 997.289062 1145.503906 C 997.289062 1149.558594 993.863281 1152.980469 989.808594 1152.980469 L 510.199219 1152.980469 C 506.144531 1152.980469 502.722656 1149.558594 502.722656 1145.503906 L 502.722656 468.726562 C 502.722656 464.671875 506.144531 461.246094 510.199219 461.246094 L 569.0625 461.246094 L 569.0625 436.320312 L 510.199219 436.320312 C 492.335938 436.320312 477.796875 450.84375 477.796875 468.726562 L 477.796875 1145.503906 C 477.796875 1163.367188 492.335938 1177.910156 510.199219 1177.910156 L 989.808594 1177.910156 C 1007.671875 1177.910156 1022.214844 1163.367188 1022.214844 1145.503906 L 1022.214844 468.726562 C 1022.214844 450.84375 1007.671875 436.320312 989.808594 436.320312 Z M 989.808594 436.320312 " fill-opacity="1" fill-rule="nonzero"/></g><path fill="#33f6bd" d="M 593.988281 408.402344 C 593.988281 404.347656 597.410156 400.925781 601.464844 400.925781 L 901.519531 400.925781 C 905.574219 400.925781 908.996094 404.347656 908.996094 408.402344 L 908.996094 436.304688 L 933.921875 436.304688 L 933.921875 408.402344 C 933.921875 390.539062 919.382812 375.996094 901.519531 375.996094 L 601.464844 375.996094 C 583.601562 375.996094 569.0625 390.539062 569.0625 408.402344 L 569.0625 436.304688 L 593.988281 436.304688 Z M 593.988281 408.402344 " fill-opacity="1" fill-rule="nonzero"/><path fill="#33f6bd" d="M 909.011719 497.042969 C 909.011719 501.097656 905.589844 504.519531 901.535156 504.519531 L 601.464844 504.519531 C 597.410156 504.519531 593.988281 501.097656 593.988281 497.042969 L 593.988281 461.246094 L 569.0625 461.246094 L 569.0625 497.042969 C 569.0625 514.90625 583.601562 529.445312 601.464844 529.445312 L 901.519531 529.445312 C 919.382812 529.445312 933.921875 514.90625 933.921875 497.042969 L 933.921875 461.246094 L 908.996094 461.246094 L 908.996094 497.042969 Z M 909.011719 497.042969 " fill-opacity="1" fill-rule="nonzero"/><path fill="#33f6bd" d="M 569.0625 436.320312 L 593.988281 436.320312 L 593.988281 461.246094 L 569.0625 461.246094 Z M 569.0625 436.320312 " fill-opacity="1" fill-rule="nonzero"/><path fill="#33f6bd" d="M 909.011719 436.320312 L 933.941406 436.320312 L 933.941406 461.246094 L 909.011719 461.246094 Z M 909.011719 436.320312 " fill-opacity="1" fill-rule="nonzero"/><g clip-path="url(#173aab7ab1)"><path fill="#33f6bd" d="M 816.386719 388.460938 L 791.457031 388.460938 C 791.457031 365.609375 772.863281 347.015625 750.011719 347.015625 C 727.164062 347.015625 708.570312 365.609375 708.570312 388.460938 L 683.640625 388.460938 C 683.625 351.867188 713.40625 322.089844 749.996094 322.089844 C 786.605469 322.089844 816.386719 351.867188 816.386719 388.460938 Z M 816.386719 388.460938 " fill-opacity="1" fill-rule="nonzero"/></g><path fill="#33f6bd" d="M 933.574219 676.714844 L 696.089844 676.714844 C 689.207031 676.714844 683.625 671.128906 683.625 664.25 C 683.625 657.371094 689.207031 651.789062 696.089844 651.789062 L 933.574219 651.789062 C 940.453125 651.789062 946.039062 657.371094 946.039062 664.25 C 946.039062 671.128906 940.472656 676.714844 933.574219 676.714844 Z M 933.574219 676.714844 " fill-opacity="1" fill-rule="nonzero"/><path fill="#33f6bd" d="M 933.574219 756.332031 L 696.089844 756.332031 C 689.207031 756.332031 683.625 750.746094 683.625 743.867188 C 683.625 736.988281 689.207031 731.402344 696.089844 731.402344 L 933.574219 731.402344 C 940.453125 731.402344 946.039062 736.988281 946.039062 743.867188 C 946.039062 750.746094 940.472656 756.332031 933.574219 756.332031 Z M 933.574219 756.332031 " fill-opacity="1" fill-rule="nonzero"/><path fill="#33f6bd" d="M 933.574219 835.929688 L 696.089844 835.929688 C 689.207031 835.929688 683.625 830.347656 683.625 823.464844 C 683.625 816.585938 689.207031 811.003906 696.089844 811.003906 L 933.574219 811.003906 C 940.453125 811.003906 946.039062 816.585938 946.039062 823.464844 C 946.039062 830.347656 940.472656 835.929688 933.574219 835.929688 Z M 933.574219 835.929688 " fill-opacity="1" fill-rule="nonzero"/><path fill="#33f6bd" d="M 933.574219 915.546875 L 696.089844 915.546875 C 689.207031 915.546875 683.625 909.960938 683.625 903.082031 C 683.625 896.203125 689.207031 890.621094 696.089844 890.621094 L 933.574219 890.621094 C 940.453125 890.621094 946.039062 896.203125 946.039062 903.082031 C 946.039062 909.960938 940.472656 915.546875 933.574219 915.546875 Z M 933.574219 915.546875 " fill-opacity="1" fill-rule="nonzero"/><path fill="#33f6bd" d="M 933.574219 995.164062 L 696.089844 995.164062 C 689.207031 995.164062 683.625 989.578125 683.625 982.699219 C 683.625 975.820312 689.207031 970.234375 696.089844 970.234375 L 933.574219 970.234375 C 940.453125 970.234375 946.039062 975.820312 946.039062 982.699219 C 946.039062 989.578125 940.472656 995.164062 933.574219 995.164062 Z M 933.574219 995.164062 " fill-opacity="1" fill-rule="nonzero"/><path fill="#33f6bd" d="M 567.730469 702.121094 C 564.542969 702.121094 561.351562 700.910156 558.925781 698.46875 L 535.710938 675.25 C 530.839844 670.382812 530.839844 662.488281 535.710938 657.621094 C 540.578125 652.75 548.472656 652.75 553.339844 657.621094 L 567.75 672.027344 L 609.742188 630.035156 C 614.609375 625.164062 622.503906 625.164062 627.375 630.035156 C 632.242188 634.902344 632.242188 642.796875 627.375 647.667969 L 576.554688 698.484375 C 574.113281 700.894531 570.921875 702.121094 567.730469 702.121094 Z M 567.730469 702.121094 " fill-opacity="1" fill-rule="nonzero"/><path fill="#33f6bd" d="M 569.726562 781.722656 C 566.417969 781.722656 563.246094 780.410156 560.917969 778.066406 L 537.703125 754.851562 C 532.835938 749.980469 532.835938 742.089844 537.703125 737.21875 C 542.574219 732.351562 550.464844 732.351562 555.335938 737.21875 L 569.742188 751.628906 L 611.734375 709.632812 C 616.605469 704.765625 624.5 704.765625 629.367188 709.632812 C 634.238281 714.503906 634.238281 722.398438 629.367188 727.265625 L 578.550781 778.082031 C 576.207031 780.410156 573.035156 781.722656 569.726562 781.722656 Z M 569.726562 781.722656 " fill-opacity="1" fill-rule="nonzero"/><g clip-path="url(#2c72d78b2f)"><g transform="matrix(1, 0, 0, 1, 850, 1002)"><g clip-path="url(#7857d39fd8)"><g clip-path="url(#b529081d56)"><path fill="#ffffff" d="M 0.894531 0.679688 L 256.695312 0.679688 L 256.695312 278.464844 L 0.894531 278.464844 Z M 0.894531 0.679688 " fill-opacity="1" fill-rule="nonzero"/></g></g></g></g></svg>